<svg width="85" height="151" viewBox="0 0 85 151" fill="none" xmlns="http://www.w3.org/2000/svg">
<g clip-path="url(#clip0_294_495)">
<path d="M6.87891 49.421V50.8523C14.0972 47.3935 21.9173 45.3638 29.9076 44.8752C22.0081 44.8742 14.1847 46.4185 6.87891 49.421Z" fill="white"/>
<path d="M6.87891 52.5354V53.8409C12.8898 50.4102 19.4345 48.0123 26.24 46.7471C19.5073 47.5789 12.9625 49.5356 6.87891 52.5354Z" fill="white"/>
<path d="M33.6064 43.4599C24.5918 42.3584 15.4447 43.3047 6.84717 46.2282V47.8011C15.3378 44.4014 24.4755 42.9189 33.6064 43.4599Z" fill="white"/>
<path d="M37.5261 42.469C27.4458 39.971 16.8918 40.1064 6.87891 42.8622V44.561C16.7578 41.3085 27.2964 40.5892 37.5261 42.469Z" fill="white"/>
<path d="M6.87891 81.1311V83.2074C7.46533 80.1856 8.27021 77.2102 9.28724 74.3047C8.34686 76.5293 7.54261 78.809 6.87891 81.1311Z" fill="white"/>
<path d="M41.5398 42.0599C30.4962 37.8381 18.4558 36.9467 6.91016 39.496V41.3363C18.2877 38.2844 30.2999 38.5354 41.5398 42.0599Z" fill="white"/>
<path d="M6.87891 55.6024V56.7821C11.8238 53.4386 17.2262 50.8268 22.9187 49.0276C17.2841 50.4389 11.8822 52.6532 6.87891 55.6024Z" fill="white"/>
<path d="M6.87891 135.459C6.88258 136.803 7.35676 138.104 8.21924 139.135C9.08172 140.167 10.2781 140.864 11.6011 141.106L6.87891 129.608V135.459Z" fill="white"/>
<path d="M6.87891 75.2954V76.2549C7.63313 74.2207 8.48946 72.2259 9.44465 70.2778C8.50558 71.9062 7.64925 73.5809 6.87891 75.2954Z" fill="white"/>
<path d="M6.87891 58.6381V59.7707C10.8696 56.5693 15.2422 53.8748 19.8965 51.7488C15.2922 53.5059 10.9205 55.8195 6.87891 58.6381Z" fill="white"/>
<path d="M23.4067 51.9062C17.4052 54.2687 11.8243 57.5829 6.87891 61.7213V71.8508C10.9128 64.1083 16.5464 57.3101 23.4067 51.9062Z" fill="white"/>
<path d="M6.87891 119.431V125.613L13.3011 141.201H18.3067L11.0187 128.318C9.40375 125.471 8.01939 122.499 6.87891 119.431Z" fill="white"/>
<path d="M63.8286 34.9185C68.4538 42.6289 71.3386 51.2553 72.2814 60.1953C71.9224 51.9798 69.8839 43.9246 66.2916 36.5261C62.6993 29.1276 57.6291 22.5424 51.3935 17.176H47.8203C54.264 21.9896 59.7024 28.0171 63.8286 34.9185Z" fill="white"/>
<path d="M60.4757 34.9185C65.1299 41.4726 68.456 48.8732 70.2665 56.7034C68.9287 48.7811 66.0235 41.2048 61.7207 34.4178C57.4179 27.6307 51.804 21.7692 45.2072 17.176H41.0674C48.7367 21.629 55.3562 27.6804 60.4757 34.9185Z" fill="white"/>
<path d="M67.197 34.9185C71.7384 43.8981 74.0236 53.8476 73.8553 63.9074C74.5214 55.3676 73.3613 46.784 70.4519 38.7268C67.5426 30.6696 62.9506 23.3233 56.9812 17.176H53.6914C59.2365 22.2194 63.8134 28.2322 67.197 34.9185Z" fill="white"/>
<path d="M57.0919 34.9185C61.7347 40.4264 65.3687 46.7095 67.8271 53.4789C65.5234 45.7375 61.6898 38.5361 56.5528 32.3007C51.4159 26.0653 45.08 20.9224 37.9197 17.176H32.5049C42.0498 20.9547 50.5006 27.053 57.0919 34.9185Z" fill="white"/>
<path d="M74.9731 67.7768C76.7722 58.9244 76.5576 49.7812 74.3453 41.0228C72.133 32.2645 67.9795 24.1148 62.1916 17.176H59.0435C65.2847 23.9031 69.9493 31.934 72.6991 40.6861C75.449 49.4382 76.215 58.6921 74.9416 67.7768H74.9731Z" fill="white"/>
<path d="M49.9294 34.9187C54.5323 38.6888 58.5621 43.1077 61.8923 48.0368C57.1751 40.0848 50.6946 33.3206 42.9499 28.2649C35.2051 23.2091 26.4027 19.9967 17.2201 18.8749L9.82197 17.9626C8.66593 18.6078 7.76596 19.6292 7.27197 20.8568H10.5618C24.9213 20.8276 38.8422 25.8001 49.9294 34.9187Z" fill="white"/>
<path d="M38.6749 34.9188C48.4597 38.9694 57.0357 45.4698 63.5767 53.7938C58.3823 44.2754 50.718 36.3309 41.3892 30.7953C32.0604 25.2597 21.4116 22.3374 10.5619 22.3354H6.91005C6.89392 22.5291 6.89392 22.7238 6.91005 22.9174V30.782C17.6781 29.3493 28.6339 30.7761 38.6749 34.9188Z" fill="white"/>
<path d="M30.3011 34.9185C37.1129 36.3736 43.6278 38.9744 49.5678 42.6101C37.1346 33.9466 21.9014 30.259 6.87891 32.276V34.3995C14.6478 33.075 22.5987 33.2512 30.3011 34.9185Z" fill="white"/>
<path d="M53.6129 34.9185C58.223 39.5276 62.0746 44.8362 65.0249 50.6477C61.5906 42.7506 56.5064 35.6784 50.113 29.9055C43.7196 24.1327 36.1649 19.7925 27.9554 17.176H16.4175L17.4091 17.2861C31.1092 18.9577 43.8547 25.1652 53.6129 34.9185Z" fill="white"/>
<path d="M45.6482 42.0913C34.7336 36.3066 22.3079 34.0011 10.0427 35.4851C9.01953 35.6109 7.98064 35.7682 6.89453 35.9412V37.9231L7.28805 37.8444C20.2012 35.1449 33.6396 36.6326 45.6482 42.0913Z" fill="white"/>
<path d="M37.9194 106.502C50.0298 113.625 64.2461 116.305 78.1213 114.084V112.039C64.4787 114.758 50.3173 112.808 37.9194 106.502Z" fill="white"/>
<path d="M78.1212 88.0834V87.061C74.668 90.1605 70.8769 92.8619 66.8193 95.1144C70.8356 93.1962 74.6261 90.8381 78.1212 88.0834Z" fill="white"/>
<path d="M78.1213 91.2293V90.1125C73.7707 93.3862 69.0075 96.0728 63.9546 98.103C68.9569 96.4397 73.7197 94.1289 78.1213 91.2293Z" fill="white"/>
<path d="M64.2383 94.7682C69.3112 92.1691 73.9863 88.8587 78.1216 84.9374V74.2573C75.2864 80.8612 71.3177 86.919 66.3948 92.1571C65.7326 93.0727 65.0123 93.9449 64.2383 94.7682Z" fill="white"/>
<path d="M78.1213 97.285V95.948C71.6984 99.3973 64.7188 101.692 57.501 102.727C64.6423 102.146 71.6239 100.303 78.1213 97.285Z" fill="white"/>
<path d="M78.1215 100.431V98.9521C70.4802 102.402 62.217 104.265 53.8335 104.426C62.1179 104.771 70.3848 103.411 78.1215 100.431Z" fill="white"/>
<path d="M78.1214 94.2022V92.9753C72.7938 96.3646 66.9822 98.9262 60.8853 100.573C66.9207 99.3349 72.7325 97.1868 78.1214 94.2022Z" fill="white"/>
<path d="M78.1214 70.0733V68.7048C77.4744 71.1137 76.686 73.4824 75.7603 75.7987C76.6417 73.9269 77.4288 72.0237 78.1214 70.0733Z" fill="white"/>
<path d="M79.1913 7.2981H5.80802C4.13813 7.2981 2.53664 7.96097 1.35586 9.14088C0.175075 10.3208 -0.488281 11.9211 -0.488281 13.5898V144.787C-0.488281 146.455 0.175075 148.056 1.35586 149.236C2.53664 150.416 4.13813 151.078 5.80802 151.078H79.1913C80.8612 151.078 82.4627 150.416 83.6435 149.236C84.8243 148.056 85.4876 146.455 85.4876 144.787V13.6212C85.4918 12.7923 85.332 11.9708 85.0174 11.2038C84.7029 10.4369 84.2398 9.73956 83.6547 9.15199C83.0696 8.56442 82.3741 8.09816 81.6081 7.78001C80.8422 7.46186 80.0208 7.29809 79.1913 7.2981ZM79.3015 28.4066V135.459C79.2997 136.419 79.0959 137.368 78.7034 138.243C78.1639 139.466 77.2828 140.506 76.1659 141.24C75.049 141.974 73.7438 142.37 72.4071 142.38H19.0617H12.5923C11.2556 142.37 9.95042 141.974 8.83351 141.24C7.7166 140.506 6.83547 139.466 6.29598 138.243C5.90883 137.366 5.7104 136.418 5.71357 135.459V22.9172C5.71357 22.7127 5.71357 22.5239 5.71357 22.3352C5.75997 21.8009 5.86556 21.2733 6.02838 20.7623C6.40759 19.5454 7.11572 18.4568 8.07468 17.6164C8.71616 17.0728 9.44535 16.642 10.2312 16.3424C10.9926 16.0929 11.7912 15.9759 12.5923 15.9963H72.4071C72.7809 15.9979 73.1543 16.0242 73.5247 16.075C75.147 16.3432 76.6213 17.1783 77.685 18.4313C78.7487 19.6843 79.3327 21.274 79.333 22.9172L79.3015 28.4066Z" fill="white"/>
<path d="M74.2017 17.4753L76.3896 21.7537C77.0193 22.9806 77.5859 24.2074 78.1211 25.45V22.9176C78.1232 21.7139 77.7457 20.5402 77.042 19.5632C76.3384 18.5862 75.3445 17.8556 74.2017 17.4753Z" fill="white"/>
<path d="M68.3777 18.8747L67.2129 17.1445H64.1592C70.2084 24.7183 74.3916 33.6068 76.3712 43.0931C78.3507 52.5793 78.0713 62.3977 75.5555 71.7562C76.717 68.2808 77.5548 64.7055 78.0583 61.0761V44.2144C76.8173 35.1382 73.5051 26.4684 68.3777 18.8747Z" fill="white"/>
<path d="M72.4075 17.176H69.0547L69.6528 18.0411C73.4865 23.7099 76.3485 29.9773 78.1213 36.5858V29.6335C77.2274 27.1724 76.1758 24.7714 74.9732 22.4453L72.4075 17.176Z" fill="white"/>
<path d="M41.9648 106.723C53.3593 111.664 66.0008 112.977 78.1686 110.482V108.531C66.1832 111.522 53.5774 110.87 41.9648 106.66V106.723Z" fill="white"/>
<path d="M11.6955 86.1016C11.3899 95.3541 13.2184 104.553 17.0397 112.986C20.861 121.42 26.5725 128.861 33.7325 134.736L41.6029 141.201H47.6316L40.4538 136.639C31.8852 131.213 24.7815 123.766 19.7671 114.954C14.7526 106.142 11.9809 96.2346 11.6955 86.1016Z" fill="white"/>
<path d="M13.4429 89.7507C14.2534 98.9689 17.175 107.877 21.9815 115.787C26.7881 123.696 33.3509 130.395 41.1623 135.365L50.3706 141.201H58.0836L48.041 136.482C38.8833 132.122 30.9383 125.58 24.9052 117.431C18.8721 109.283 14.9359 99.7768 13.4429 89.7507Z" fill="white"/>
<path d="M49.9927 105.668C59.3957 107.222 69.0328 106.538 78.1214 103.671V102.098C69.1497 105.454 59.5215 106.687 49.9927 105.7V105.668Z" fill="white"/>
<path d="M10.4201 82.2793C8.97771 91.4185 9.65848 100.767 12.4098 109.601C15.1611 118.435 19.9092 126.519 26.2868 133.226L33.8423 141.201H39.0998L32.6933 135.916C24.8706 129.48 18.7488 121.224 14.8652 111.872C10.9817 102.52 9.45535 92.3585 10.4201 82.2793Z" fill="white"/>
<path d="M9.61767 78.3313C7.06049 87.2183 6.58222 96.5739 8.21983 105.675C9.85744 114.776 13.5671 123.379 19.0621 130.82L26.7593 141.201H31.6862L25.1853 134.28C18.2043 126.941 13.1339 118.001 10.4195 108.245C7.70511 98.4901 7.42977 88.2179 9.61767 78.3313Z" fill="white"/>
<path d="M15.6147 93.1482C17.543 102.195 21.5269 110.677 27.2586 117.94C32.9902 125.203 40.3161 131.052 48.6703 135.035L61.6092 141.201H72.4073C72.8363 141.202 73.2641 141.155 73.6823 141.059L55.6435 135.271C46.0317 132.058 37.3558 126.538 30.3768 119.193C23.3978 111.849 18.3289 102.906 15.6147 93.1482Z" fill="white"/>
<path d="M46.0259 106.455C56.484 109.506 67.5725 109.68 78.1212 106.958V105.275C72.1909 107.099 66.0197 108.022 59.8148 108.012C55.1748 108.007 50.5499 107.485 46.0259 106.455Z" fill="white"/>
<path d="M18.1807 96.2625C21.2001 105.006 26.1919 112.939 32.7699 119.447C39.3479 125.954 47.3359 130.863 56.1159 133.792L75.6501 140.084V140.178C76.3127 139.724 76.8733 139.138 77.2961 138.455C77.7189 137.773 77.9946 137.01 78.1057 136.215L63.0733 133.163C53.1403 131.152 43.853 126.736 36.026 120.302C28.199 113.868 22.0713 105.614 18.1807 96.2625Z" fill="white"/>
<path d="M6.87891 106.628V114.493C8.18644 119.029 10.0251 123.395 12.3567 127.501L20.0696 141.122H24.9178L17.9132 131.685C12.4031 124.264 8.63212 115.701 6.87891 106.628Z" fill="white"/>
<path d="M21.1084 99.0938C25.1821 107.395 31.1105 114.65 38.4359 120.298C45.7612 125.946 54.2875 129.837 63.3565 131.669L78.1214 134.673V130.835L70.1408 130.206C60.0452 129.421 50.2961 126.175 41.7478 120.751C33.1994 115.327 26.1127 107.89 21.1084 99.0938Z" fill="white"/>
<path d="M25.311 98.7792C23.5353 97.4968 21.9091 96.0195 20.4629 94.375C25.0093 103.967 32.0083 112.19 40.753 118.213C49.4977 124.236 59.6784 127.847 70.2666 128.68L78.137 129.309V115.625C74.9768 116.126 71.7821 116.379 68.5823 116.38C52.4124 116.382 36.8827 110.065 25.311 98.7792Z" fill="white"/>
<path d="M43.9397 65.3197C44.7981 65.3197 45.6341 65.4149 46.4388 65.593L48.3305 58.005C47.4738 57.9514 46.6794 58.3337 45.8435 58.7453C44.1733 59.5669 42.4236 60.4265 39.793 58.9858L41.4407 65.5912C42.2454 65.4131 43.0814 65.3179 43.9398 65.3179L43.9397 65.3197ZM27.4839 78.2486L28.5224 80.1754L30.4504 81.2132C30.7741 81.3862 30.8935 81.7892 30.7204 82.1109C30.6564 82.2285 30.5612 82.3201 30.4504 82.3807L28.5224 83.4185L27.4839 85.3453C27.3109 85.6687 26.9076 85.7881 26.5857 85.6151C26.468 85.5511 26.3763 85.456 26.3157 85.3453L25.2773 83.4185L23.3493 82.3807C23.0256 82.2077 22.9062 81.8047 23.0793 81.483C23.1433 81.3654 23.2385 81.2737 23.3493 81.2132L25.2773 80.1754L26.3157 78.2486C26.4888 77.9252 26.8921 77.8058 27.214 77.9788C27.3316 78.0428 27.4234 78.1379 27.4839 78.2486ZM60.1651 59.7712L61.3852 62.0353L63.6507 63.2547C63.9744 63.4277 64.0938 63.8307 63.9207 64.1523C63.8567 64.27 63.7615 64.3616 63.6507 64.4222L61.3852 65.6416L60.1651 67.9056C59.992 68.2291 59.5888 68.3484 59.2669 68.1755C59.1492 68.1115 59.0575 68.0163 58.9969 67.9056L57.7767 65.6416L55.5112 64.4222C55.1876 64.2492 55.0682 63.8462 55.2412 63.5245C55.3053 63.4069 55.4005 63.3152 55.5112 63.2547L57.7767 62.0353L58.9969 59.7712C59.1699 59.4478 59.5732 59.3284 59.8951 59.5014C60.0128 59.5654 60.1045 59.6605 60.1651 59.7712ZM43.2751 70.4879C43.2751 70.1212 43.5728 69.8237 43.9397 69.8237C44.3066 69.8237 44.6043 70.1212 44.6043 70.4879V71.2766C45.2603 71.4098 45.847 71.7332 46.3038 72.1898C46.9113 72.7969 47.2869 73.6341 47.2869 74.556C47.2869 74.9227 46.9892 75.2202 46.6223 75.2202C46.2554 75.2202 45.9577 74.9227 45.9577 74.556C45.9577 73.9973 45.731 73.494 45.3676 73.129C45.0076 72.7693 44.5091 72.5444 43.9311 72.5392C43.3721 72.5444 42.8736 72.7693 42.5119 73.129C42.1485 73.4923 41.9217 73.9973 41.9217 74.556C41.9217 75.9864 43.0882 76.6142 44.253 77.2404C45.7691 78.0568 47.287 78.8714 47.287 81.0922C47.287 82.0124 46.9114 82.8496 46.3074 83.4549C45.8505 83.9115 45.262 84.2367 44.6044 84.3699V85.1585C44.6044 85.5252 44.3067 85.8227 43.9398 85.8227C43.5728 85.8227 43.2752 85.5252 43.2752 85.1585V84.3699C42.6192 84.2367 42.0325 83.9133 41.5756 83.4566C40.9681 82.8478 40.5926 82.0107 40.5926 81.0905C40.5926 80.7238 40.8902 80.4263 41.2571 80.4263C41.6241 80.4263 41.9217 80.7238 41.9217 81.0905C41.9217 81.6491 42.1485 82.1524 42.5119 82.5174C42.8719 82.8772 43.3721 83.102 43.9484 83.1072C44.5091 83.102 45.0076 82.8772 45.3676 82.5174C45.731 82.1542 45.9577 81.6474 45.9577 81.0905C45.9577 79.6618 44.7912 79.0322 43.6265 78.4061C42.1104 77.5915 40.5925 76.7751 40.5925 74.5542C40.5925 73.6323 40.9681 72.7969 41.5721 72.1916C42.0307 71.735 42.6174 71.4098 43.2751 71.2766V70.4879ZM51.1275 69.6248C49.2878 67.7863 46.7471 66.6499 43.9397 66.6499C41.1342 66.6499 38.592 67.7862 36.7519 69.6248C34.9122 71.4634 33.7751 74.0025 33.7751 76.8081C33.7751 77.4931 33.8426 78.159 33.9706 78.8024C34.1022 79.4631 34.2977 80.1031 34.5504 80.7067C34.6162 80.8641 34.6214 81.0457 34.5504 81.2152C33.8685 82.8549 33.5224 84.3389 33.4514 85.6705C33.3857 86.9106 33.5605 88.021 33.9239 89H53.9587C54.3222 88.021 54.497 86.9124 54.4312 85.6705C54.3602 84.3387 54.0141 82.8547 53.3322 81.2152C53.2664 81.0578 53.2612 80.8762 53.3322 80.7067C53.5831 80.1013 53.7804 79.4631 53.912 78.8024C54.0401 78.159 54.1076 77.4931 54.1076 76.8081C54.1076 74.0027 52.9705 71.4637 51.1307 69.6248H51.1275Z" fill="white"/>
</g>
<defs>
<clipPath id="clip0_294_495">
<rect width="85" height="151" fill="white"/>
</clipPath>
</defs>
</svg>
