<svg width="121" height="205" viewBox="0 0 121 205" fill="none" xmlns="http://www.w3.org/2000/svg">
<rect x="3.96973" y="6.98315" width="113.816" height="191.04" rx="20" fill="#CE9595" fill-opacity="0.1"/>
<path d="M60.1744 111.017C67.0675 111.017 72.6555 105.379 72.6555 98.4236C72.6555 91.4685 67.0675 85.8303 60.1744 85.8303C53.2813 85.8303 47.6934 91.4685 47.6934 98.4236C47.6934 105.379 53.2813 111.017 60.1744 111.017Z" fill="white"/>
<path d="M13.7129 65.7272V67.6309C23.2203 63.0308 33.5204 60.3314 44.0448 59.6816C33.64 59.6803 23.3356 61.7341 13.7129 65.7272Z" fill="white"/>
<path d="M13.7129 69.8701V71.6064C21.6301 67.0437 30.2503 63.8545 39.214 62.1719C30.3462 63.2782 21.7257 65.8805 13.7129 69.8701Z" fill="white"/>
<path d="M48.9169 57.7993C37.0435 56.3345 24.9955 57.593 13.6714 61.4811V63.573C24.8547 59.0514 36.8903 57.0799 48.9169 57.7993Z" fill="white"/>
<path d="M54.0793 56.4811C40.8022 53.1589 26.9012 53.339 13.7129 57.0041V59.2633C26.7248 54.9378 40.6054 53.981 54.0793 56.4811Z" fill="white"/>
<path d="M13.7129 107.901V110.662C14.4853 106.643 15.5454 102.686 16.885 98.822C15.6464 101.781 14.5871 104.813 13.7129 107.901Z" fill="white"/>
<path d="M59.3657 55.9371C44.8199 50.3224 28.961 49.1369 13.7539 52.5273V54.9748C28.7396 50.916 44.5613 51.2498 59.3657 55.9371Z" fill="white"/>
<path d="M13.7129 73.9487V75.5177C20.2259 71.0711 27.3417 67.5975 34.8395 65.2046C27.418 67.0815 20.3028 70.0264 13.7129 73.9487Z" fill="white"/>
<path d="M13.7129 180.154C13.7177 181.942 14.3423 183.671 15.4783 185.043C16.6143 186.415 18.1901 187.342 19.9327 187.664L13.7129 172.373V180.154Z" fill="white"/>
<path d="M13.7129 100.14V101.416C14.7063 98.7104 15.8342 96.0573 17.0923 93.4666C15.8554 95.6322 14.7275 97.8595 13.7129 100.14Z" fill="white"/>
<path d="M13.7129 77.986V79.4922C18.9692 75.2346 24.7284 71.651 30.8588 68.8235C24.7944 71.1604 19.0363 74.2374 13.7129 77.986Z" fill="white"/>
<path d="M35.4822 69.0327C27.5774 72.1746 20.2266 76.5824 13.7129 82.0862V95.5581C19.0261 85.2608 26.4462 76.2196 35.4822 69.0327Z" fill="white"/>
<path d="M13.7129 158.839V167.06L22.1718 187.791H28.7648L19.1656 170.658C17.0384 166.871 15.2151 162.919 13.7129 158.839Z" fill="white"/>
<path d="M88.723 46.4402C94.815 56.6946 98.6146 68.1674 99.8565 80.0571C99.3836 69.1308 96.6987 58.4179 91.9671 48.5782C87.2355 38.7386 80.5574 29.9805 72.3443 22.8435H67.6379C76.1251 29.2453 83.2882 37.2616 88.723 46.4402Z" fill="white"/>
<path d="M84.3075 46.4402C90.4377 55.1568 94.8185 64.9992 97.2032 75.413C95.4412 64.8767 91.6146 54.8006 85.9473 45.7742C80.28 36.7478 72.8856 28.9522 64.1968 22.8435H58.7441C68.8456 28.7658 77.5644 36.8139 84.3075 46.4402Z" fill="white"/>
<path d="M93.1602 46.4402C99.1418 58.3826 102.152 71.6149 101.93 84.994C102.807 73.6365 101.279 62.2207 97.4474 51.505C93.6154 40.7893 87.5672 31.0191 79.7047 22.8435H75.3716C82.6752 29.551 88.7036 37.5477 93.1602 46.4402Z" fill="white"/>
<path d="M79.8495 46.4402C85.9646 53.7654 90.7512 62.1216 93.9891 71.1246C90.9549 60.8288 85.9055 51.2514 79.1395 42.9586C72.3734 34.6658 64.0282 27.826 54.5971 22.8435H47.4651C60.037 27.869 71.1678 35.9794 79.8495 46.4402Z" fill="white"/>
<path d="M103.402 90.14C105.772 78.3668 105.489 66.2068 102.575 54.5586C99.6613 42.9104 94.1905 32.0717 86.5672 22.8435H82.4207C90.6412 31.7902 96.7852 42.4709 100.407 54.1107C104.029 65.7506 105.038 78.0579 103.361 90.14H103.402Z" fill="white"/>
<path d="M70.4167 46.4401C76.4794 51.4542 81.7872 57.3312 86.1735 63.8866C79.9602 53.3109 71.4246 44.3148 61.2238 37.5909C51.0229 30.867 39.4289 26.5946 27.3342 25.1027L17.5899 23.8894C16.0672 24.7474 14.8819 26.1059 14.2312 27.7385H18.5643C37.4778 27.6997 55.8134 34.3128 70.4167 46.4401Z" fill="white"/>
<path d="M55.5924 46.4405C68.4804 51.8277 79.7762 60.4729 88.3915 71.5434C81.5498 58.8844 71.4549 48.3186 59.1676 40.9565C46.8803 33.5944 32.8544 29.7079 18.5639 29.7053H13.754C13.7327 29.9629 13.7327 30.2218 13.754 30.4793V40.9388C27.937 39.0334 42.3672 40.931 55.5924 46.4405Z" fill="white"/>
<path d="M44.5631 46.4399C53.5351 48.3751 62.1161 51.8341 69.9398 56.6693C53.5636 45.1474 33.4995 40.243 13.7129 42.9255V45.7496C23.9455 43.9882 34.4179 44.2225 44.5631 46.4399Z" fill="white"/>
<path d="M60.6305 68.4895C54.5904 68.4895 48.686 70.2967 43.6639 73.6826C38.6417 77.0684 34.7274 81.8809 32.416 87.5113C30.1045 93.1418 29.4998 99.3374 30.6781 105.315C31.8565 111.292 34.7651 116.782 39.036 121.092C43.307 125.401 48.7486 128.336 54.6726 129.525C60.5966 130.714 66.737 130.104 72.3174 127.771C77.8977 125.439 82.6672 121.49 86.0229 116.422C89.3786 111.355 91.1697 105.398 91.1697 99.3032C91.1587 91.1343 87.9377 83.3032 82.2129 77.5269C76.488 71.7506 68.7266 68.5006 60.6305 68.4895ZM60.6305 70.5814C67.8892 70.5838 74.8776 73.3599 80.1897 78.351C85.5019 83.3422 88.7434 90.1781 89.2623 97.4833L87.583 95.6424C84.2487 91.8246 80.1601 88.7524 75.5798 86.6229C70.9994 84.4934 66.0283 83.3536 60.9857 83.2768C55.943 83.2 50.9401 84.1878 46.2981 86.1768C41.6561 88.1658 37.4775 91.1121 34.0305 94.8266L31.9573 97.044C32.5859 89.8159 35.8816 83.0894 41.1917 78.1965C46.5019 73.3035 53.4393 70.6007 60.6305 70.6232V70.5814ZM88.1013 98.5292L86.4634 100.391C83.2712 104.038 79.3599 106.973 74.9795 109.008C70.5992 111.043 65.8462 112.134 61.0244 112.21H60.5061C55.7695 112.207 51.0836 111.225 46.7372 109.325C42.3908 107.426 38.4757 104.649 35.233 101.165L32.7866 98.5292L35.233 95.8934C38.5345 92.3473 42.533 89.5352 46.9728 87.6368C51.4126 85.7384 56.1961 84.7955 61.0176 84.8683C65.839 84.9412 70.5924 86.0282 74.9739 88.0598C79.3554 90.0915 83.2686 93.0232 86.4634 96.6674L88.1013 98.5292ZM60.6305 128.527C53.0775 128.528 45.8289 125.523 40.4572 120.166C35.0855 114.809 32.0238 107.53 31.9365 99.9099L34.0098 102.232C37.3988 105.873 41.4905 108.776 46.0329 110.762C50.5754 112.748 55.4726 113.774 60.4232 113.779H60.9622C66.0054 113.698 70.9766 112.559 75.5597 110.434C80.1428 108.31 84.2374 105.245 87.583 101.437L89.2623 99.4915C89.2732 103.295 88.5411 107.064 87.1079 110.582C85.6746 114.1 83.5683 117.299 80.9094 119.996C78.2504 122.692 75.0908 124.833 71.6113 126.297C68.1318 127.761 64.4004 128.519 60.6305 128.527Z" fill="white"/>
<path d="M75.2676 46.4402C81.3397 52.57 86.4128 59.6302 90.2988 67.3592C85.7754 56.8564 79.0788 47.4508 70.6578 39.7732C62.2369 32.0955 52.2863 26.3233 41.4734 22.8435H26.2764L27.5825 22.9899C45.6273 25.2131 62.4148 33.4687 75.2676 46.4402Z" fill="white"/>
<path d="M64.7769 55.9789C50.401 48.2855 34.0346 45.2193 17.8797 47.1929C16.5321 47.3602 15.1637 47.5694 13.7332 47.7995V50.4353L14.2515 50.3307C31.2599 46.7404 48.9599 48.7191 64.7769 55.9789Z" fill="white"/>
<path d="M54.5974 141.643C70.5484 151.115 89.2731 154.681 107.549 151.726V149.006C89.5795 152.623 70.927 150.029 54.5974 141.643Z" fill="white"/>
<path d="M107.548 117.147V115.787C103 119.909 98.0067 123.502 92.6624 126.498C97.9523 123.947 102.945 120.81 107.548 117.147Z" fill="white"/>
<path d="M107.548 121.33V119.845C101.818 124.199 95.5443 127.772 88.8889 130.472C95.4777 128.26 101.751 125.187 107.548 121.33Z" fill="white"/>
<path d="M89.2625 126.037C95.9442 122.581 102.102 118.178 107.549 112.963V98.7588C103.814 107.542 98.587 115.598 92.1028 122.565C91.2307 123.782 90.282 124.942 89.2625 126.037Z" fill="white"/>
<path d="M107.549 129.384V127.606C99.0888 132.194 89.8957 135.245 80.3889 136.622C89.7951 135.849 98.9907 133.398 107.549 129.384Z" fill="white"/>
<path d="M107.548 133.568V131.602C97.4838 136.191 86.6001 138.667 75.5579 138.882C86.4695 139.34 97.3581 137.532 107.548 133.568Z" fill="white"/>
<path d="M107.548 125.284V123.652C100.531 128.16 92.8767 131.566 84.8462 133.756C92.7957 132.11 100.451 129.253 107.548 125.284Z" fill="white"/>
<path d="M107.548 93.1947V91.3748C106.696 94.5785 105.658 97.7287 104.438 100.809C105.6 98.3199 106.636 95.7887 107.548 93.1947Z" fill="white"/>
<path d="M108.958 9.70679H12.3026C10.1031 9.70679 7.99375 10.5884 6.4385 12.1576C4.88325 13.7268 4.00952 15.8552 4.00952 18.0744V192.56C4.00952 194.779 4.88325 196.908 6.4385 198.477C7.99375 200.046 10.1031 200.928 12.3026 200.928H108.958C111.158 200.928 113.267 200.046 114.822 198.477C116.377 196.908 117.251 194.779 117.251 192.56V18.1162C117.257 17.0139 117.046 15.9213 116.632 14.9012C116.218 13.8812 115.608 12.9538 114.837 12.1724C114.066 11.3909 113.15 10.7708 112.141 10.3477C111.133 9.92459 110.051 9.70677 108.958 9.70679ZM109.103 37.7801V180.155C109.101 181.431 108.833 182.693 108.315 183.858C107.605 185.483 106.444 186.867 104.973 187.843C103.502 188.819 101.783 189.345 100.022 189.359H29.7595H21.2383C19.4778 189.345 17.7587 188.819 16.2876 187.843C14.8164 186.867 13.6559 185.483 12.9453 183.858C12.4354 182.691 12.174 181.43 12.1782 180.155V30.4794C12.1782 30.2074 12.1782 29.9564 12.1782 29.7054C12.2393 28.9948 12.3784 28.2932 12.5928 27.6135C13.0923 25.9951 14.025 24.5473 15.2881 23.4297C16.133 22.7067 17.0934 22.1338 18.1285 21.7352C19.1314 21.4035 20.1833 21.2478 21.2383 21.275H100.022C100.515 21.2771 101.007 21.3121 101.494 21.3796C103.631 21.7364 105.573 22.8469 106.974 24.5134C108.375 26.1799 109.144 28.2941 109.145 30.4794L109.103 37.7801Z" fill="white"/>
<path d="M102.386 23.2407L105.268 28.9307C106.097 30.5624 106.843 32.1941 107.548 33.8467V30.4787C107.551 28.8779 107.054 27.3168 106.127 26.0175C105.2 24.7181 103.891 23.7465 102.386 23.2407Z" fill="white"/>
<path d="M94.715 25.1026L93.1808 22.8015H89.1587C97.1264 32.8743 102.636 44.6956 105.243 57.3118C107.851 69.9281 107.483 82.986 104.169 95.4324C105.699 90.8102 106.803 86.0554 107.466 81.2284V58.8032C105.831 46.7322 101.469 35.2018 94.715 25.1026Z" fill="white"/>
<path d="M100.023 22.8435H95.6067L96.3945 23.9941C101.444 31.5333 105.214 39.8685 107.549 48.6576V39.4114C106.371 36.1382 104.986 32.945 103.402 29.8514L100.023 22.8435Z" fill="white"/>
<path d="M59.9255 141.936C74.9335 148.508 91.5841 150.253 107.611 146.935V144.341C91.8243 148.318 75.2208 147.452 59.9255 141.852V141.936Z" fill="white"/>
<path d="M20.057 114.511C19.6545 126.817 22.0629 139.05 27.096 150.266C32.1292 161.482 39.652 171.38 49.0827 179.193L59.449 187.791H67.3896L57.9355 181.724C46.6495 174.507 37.2931 164.604 30.6884 152.884C24.0837 141.165 20.4329 127.988 20.057 114.511Z" fill="white"/>
<path d="M22.3582 119.364C23.4258 131.624 27.2738 143.472 33.6047 153.991C39.9356 164.51 48.5796 173.42 58.8683 180.029L70.9969 187.79H81.1559L67.9285 181.515C55.8666 175.716 45.402 167.016 37.4556 156.178C29.5092 145.341 24.3247 132.698 22.3582 119.364Z" fill="white"/>
<path d="M70.4993 140.535C82.8842 142.601 95.5776 141.691 107.549 137.878V135.786C95.7316 140.25 83.05 141.89 70.4993 140.576V140.535Z" fill="white"/>
<path d="M18.3775 109.427C16.4776 121.582 17.3743 134.015 20.9981 145.764C24.622 157.513 30.8758 168.264 39.276 177.184L49.2277 187.79H56.1524L47.7142 180.761C37.4107 172.203 29.3474 161.222 24.2323 148.785C19.1172 136.347 17.1068 122.832 18.3775 109.427Z" fill="white"/>
<path d="M17.3201 104.176C13.952 115.996 13.3221 128.438 15.479 140.542C17.636 152.646 22.522 164.088 29.7597 173.983L39.898 187.79H46.3873L37.8247 178.585C28.6299 168.825 21.9515 156.935 18.3763 143.961C14.8011 130.987 14.4384 117.325 17.3201 104.176Z" fill="white"/>
<path d="M25.219 123.883C27.7588 135.915 33.0061 147.196 40.5555 156.855C48.1048 166.514 57.754 174.293 68.7575 179.59L85.7998 187.791H100.022C100.587 187.792 101.151 187.729 101.702 187.602L77.9421 179.904C65.2822 175.631 53.8549 168.289 44.6626 158.522C35.4703 148.755 28.7938 136.861 25.219 123.883Z" fill="white"/>
<path d="M65.2747 141.58C79.0494 145.639 93.6544 145.87 107.549 142.25V140.011C99.7374 142.437 91.6092 143.664 83.4365 143.651C77.325 143.645 71.2334 142.95 65.2747 141.58Z" fill="white"/>
<path d="M28.5986 128.025C32.5756 139.654 39.1504 150.204 47.8146 158.859C56.4787 167.514 66.9999 174.042 78.5643 177.938L104.294 186.305V186.431C105.166 185.827 105.905 185.047 106.462 184.139C107.018 183.231 107.382 182.217 107.528 181.159L87.7281 177.101C74.6451 174.426 62.4125 168.553 52.1033 159.996C41.794 151.44 33.7232 140.462 28.5986 128.025Z" fill="white"/>
<path d="M13.7129 141.81V152.27C15.4351 158.303 17.8568 164.11 20.9279 169.57L31.0868 187.686H37.4725L28.2465 175.134C20.989 165.265 16.0221 153.877 13.7129 141.81Z" fill="white"/>
<path d="M32.4546 131.79C37.8202 142.83 45.6287 152.479 55.2771 159.991C64.9256 167.503 76.1559 172.677 88.101 175.113L107.548 179.109V174.005L97.0368 173.168C83.7395 172.124 70.8987 167.807 59.6394 160.593C48.3801 153.379 39.0459 143.489 32.4546 131.79Z" fill="white"/>
<path d="M37.9904 131.371C35.6516 129.666 33.5096 127.701 31.6047 125.514C37.5929 138.271 46.8116 149.207 58.3295 157.218C69.8475 165.228 83.2567 170.03 97.2028 171.139L107.569 171.975V153.776C103.407 154.443 99.1989 154.778 94.9844 154.78C73.6865 154.783 53.2318 146.381 37.9904 131.371Z" fill="white"/>
</svg>
