<svg width="228" height="242" viewBox="0 0 228 242" fill="none" xmlns="http://www.w3.org/2000/svg">
<g filter="url(#filter0_d_238_1401)">
<path d="M24.6754 149.864C24.6625 149.98 24.6625 150.096 24.6754 150.212C24.7037 150.415 24.7577 150.613 24.8361 150.801C24.8245 150.854 24.8245 150.909 24.8361 150.962V151.203C24.8457 151.274 24.8457 151.346 24.8361 151.418C24.8746 151.493 24.9194 151.564 24.97 151.632V151.9C24.9777 151.953 24.9777 152.007 24.97 152.06L25.2647 152.462L25.5326 152.757L25.8272 153.025L26.2826 153.346L29.7381 138.453L25.0772 144.882C24.4748 145.673 24.0541 146.588 23.845 147.56C23.9627 148.376 24.2452 149.16 24.6754 149.864Z" fill="white"/>
<path d="M164.504 27.8756L164.986 29.2149C165.334 30.2328 165.655 31.2775 165.95 32.3222C166.245 33.3937 166.513 34.492 166.727 35.5902V35.8581C166.941 36.876 167.102 37.8939 167.263 38.9118V39.3404C167.263 39.6083 167.263 39.903 167.263 40.1976C167.263 40.4923 167.263 40.4655 167.263 40.5994V40.7601V41.5905C167.276 41.6793 167.276 41.7696 167.263 41.8584C167.263 41.8584 167.263 42.0727 167.263 42.1799C167.263 43.2513 167.423 44.3228 167.45 45.4211V45.7961C167.45 46.0908 167.45 46.4122 167.45 46.7069V48.1266C167.462 48.2423 167.462 48.3591 167.45 48.4748C167.45 48.823 167.45 49.1713 167.45 49.5195V50.0017V51.5285C167.45 53.5108 167.156 55.5198 166.861 57.5556C166.486 60.2343 165.977 62.913 165.307 65.7792C164.959 67.1454 164.584 68.4579 164.155 69.9312C163.107 73.4947 161.845 76.9923 160.378 80.405C159.762 81.7979 159.146 83.0837 158.477 84.5837C159.95 81.905 161.155 79.2263 162.468 76.5476C163.78 73.8689 164.691 71.1902 165.602 68.3508C166.912 64.3577 167.932 60.2755 168.656 56.1359C168.87 54.7966 169.057 53.4572 169.218 52.1178C169.218 51.716 169.218 51.3142 169.352 50.9124C169.367 50.8148 169.367 50.7154 169.352 50.6178C169.352 50.4838 169.352 50.3231 169.352 50.1624C169.352 50.0285 169.352 49.8945 169.352 49.7874C169.338 49.5644 169.338 49.3407 169.352 49.1177C169.338 48.9662 169.338 48.8138 169.352 48.6623V47.2694C169.352 46.4479 169.352 45.6175 169.352 44.7782V44.3496C169.352 44.1621 169.352 43.9746 169.352 43.7871C169.352 43.3317 169.352 42.9031 169.352 42.4745C169.352 42.0727 169.352 41.6977 169.352 41.2959V41.0012C169.352 40.6798 169.352 40.3583 169.352 40.0369C169.365 39.9033 169.365 39.7687 169.352 39.6351C169.352 38.7243 169.352 37.8136 169.111 36.9564V36.4206C169.111 36.1528 169.111 35.8849 169.111 35.617C169.111 35.4563 169.111 35.2956 169.111 35.1349C168.95 34.1705 168.79 33.233 168.575 32.2954C168.575 32.1615 168.575 32.0543 168.575 31.9204C168.575 31.7865 168.575 31.4383 168.388 31.1704C168.2 30.9025 168.388 30.6614 168.2 30.3936L168.04 29.7239C168.04 29.4024 167.852 29.081 167.772 28.7863C167.691 28.4917 167.772 28.5185 167.772 28.3845L167.37 27.1523L163.593 26.188C163.834 26.6702 164.021 27.1791 164.236 27.6881L164.504 27.8756Z" fill="white"/>
<path d="M156.682 24.3667C157.004 24.8489 157.325 25.3846 157.62 25.8936C157.692 25.9947 157.755 26.1023 157.807 26.215C158.048 26.6436 158.316 27.0722 158.557 27.5276V27.7687C158.825 28.2508 159.066 28.7598 159.307 29.2687C159.575 29.8045 159.843 30.367 160.084 30.9295C160.7 32.376 161.236 33.8761 161.718 35.403V35.5637C162.013 36.6084 162.307 37.6799 162.548 38.7781C162.561 38.9296 162.561 39.082 162.548 39.2335C162.548 39.555 162.682 39.8496 162.763 40.1443C162.843 40.4389 162.763 40.5729 162.763 40.8139V41.1354L162.924 42.0729C162.908 42.1706 162.908 42.27 162.924 42.3676C162.924 42.6355 162.924 42.9033 162.924 43.1712V43.3855C162.937 43.5728 162.937 43.7608 162.924 43.948V44.5373C162.938 44.7871 162.938 45.0376 162.924 45.2874V46.2517C162.924 46.2517 162.924 46.5196 162.924 46.6267C162.936 46.7425 162.936 46.8592 162.924 46.975C162.924 47.2428 162.924 47.5107 162.924 47.7786C162.924 48.0464 162.924 48.0732 162.924 48.234V48.7429C162.924 49.2786 162.924 49.8144 162.924 50.3501C162.924 50.8859 162.924 51.502 162.924 52.0645C162.924 53.8592 162.923 55.6807 162.709 57.4219C162.495 59.1631 162.361 60.9042 162.093 62.7793C161.436 67.1757 160.424 71.5116 159.066 75.7442C158.664 77.0032 158.263 78.2622 157.807 79.5212C158.825 77.0747 159.718 74.6371 160.486 72.2084C160.888 70.9762 161.263 69.7707 161.611 68.5653C162.615 65.0502 163.376 61.4701 163.888 57.8505C164.219 55.5323 164.434 53.1989 164.531 50.8591C164.531 50.4573 164.531 50.0555 164.531 49.6269V48.8501C164.531 48.7161 164.531 48.5822 164.531 48.4482V47.6714V47.216C164.531 46.8678 164.531 46.5464 164.531 46.2249V46.091C164.517 45.9216 164.517 45.7514 164.531 45.582C164.531 45.2606 164.531 44.9391 164.531 44.6177C164.531 43.0641 164.29 41.564 164.102 40.0639C164.102 40.0639 164.102 39.9032 164.102 39.8228L163.941 38.7781L163.62 37.1441C163.201 34.9431 162.619 32.7763 161.879 30.6617C161.879 30.5277 161.879 30.4206 161.879 30.3134L161.584 29.5098L161.343 28.8937C161.265 28.6748 161.176 28.4602 161.075 28.2508C161.075 27.9829 160.861 27.7151 160.727 27.4472C160.667 27.2817 160.595 27.1206 160.513 26.965L159.923 25.6793L155.53 24.5542L156.682 24.3667Z" fill="white"/>
<path d="M132.761 18.6611L133.109 18.8486L133.913 19.2236L134.288 19.4111L135.038 19.7861L135.413 19.9736L136.27 20.4558H136.485L137.503 21.0719C137.628 21.1274 137.745 21.1995 137.851 21.2862L138.52 21.7148L138.922 21.9559L139.538 22.3845C139.674 22.4582 139.8 22.5482 139.913 22.6523L140.556 23.1077L140.878 23.3488L141.788 24.0185L142.083 24.2596L142.672 24.7685L143.047 25.0632L143.556 25.5186L143.931 25.84L144.44 26.3222L144.789 26.6436C145.061 26.8891 145.32 27.1484 145.565 27.4204C145.914 27.7419 146.235 28.0901 146.557 28.4383L146.69 28.5991C146.932 28.8669 147.199 29.1348 147.414 29.4027L147.708 29.7241L148.324 30.5009V30.6349L148.485 30.8492L149.101 31.626L149.342 31.9742L150.012 32.9118C150 32.9737 150 33.0374 150.012 33.0993L150.762 34.2779C150.817 34.3523 150.862 34.4333 150.896 34.519C151.11 34.8404 151.298 35.1619 151.485 35.4833C151.567 35.6024 151.638 35.7278 151.7 35.8584L152.182 36.7155C152.264 36.8437 152.335 36.978 152.396 37.1173C152.557 37.3852 152.691 37.6799 152.825 37.9477C152.959 38.2156 152.825 38.2424 153.039 38.3763L153.441 39.2603L153.628 39.6889L154.191 40.9747V41.189C154.191 41.564 154.485 41.9122 154.619 42.2872L154.78 42.7694L155.102 43.6534L155.262 44.1623C155.262 44.457 155.45 44.7517 155.53 45.0463L155.691 45.5553C155.691 45.8767 155.852 46.1982 155.959 46.5196C156.066 46.841 155.959 46.8143 155.959 46.975C155.959 47.1357 156.2 47.9125 156.307 48.3947C156.414 48.8769 156.495 49.2519 156.575 49.6805C156.843 50.9662 157.084 52.3592 157.245 53.5914C157.245 54.0468 157.378 54.4753 157.432 54.9307C157.97 60.1173 157.907 65.3486 157.245 70.5208C158.077 66.8904 158.623 63.2003 158.879 59.4845C158.956 56.8029 158.866 54.119 158.611 51.4484C158.611 50.5644 158.423 49.734 158.289 48.7697C158.289 48.3679 158.289 47.9929 158.102 47.5911V47.6982C158.117 47.6006 158.117 47.5012 158.102 47.4036C158.102 47.1625 158.102 46.9214 158.102 46.6803V46.3857C158.115 46.2789 158.115 46.171 158.102 46.0642L157.861 44.8856L157.7 44.1355C157.7 43.8945 157.7 43.6266 157.486 43.3587V43.1444L157.245 42.314V42.0997C157.003 41.2158 156.709 40.3586 156.414 39.421C156.414 39.0996 156.173 38.7514 156.039 38.4299V38.2424C155.718 37.4388 155.396 36.6352 155.021 35.8316L154.512 34.7601C154.11 33.9833 153.709 33.2064 153.253 32.4296L152.584 31.3313C151.687 29.9142 150.703 28.5544 149.637 27.2597C149.28 26.8311 148.932 26.4293 148.592 26.0543C147.896 25.2775 147.146 24.5274 146.369 23.8042L145.485 23.0006C145.137 22.6791 144.762 22.3309 144.36 22.0095L144.065 21.9827L142.806 20.8576L130.645 17.7771L131.583 18.1521L132.761 18.6611Z" fill="white"/>
<path d="M106.215 38.2154C109.824 38.4823 113.406 39.0286 116.93 39.8494L118.832 40.3316L120.653 40.8405L122.475 41.4299L124.216 42.046L125.904 42.7156H126.064L127.618 43.4121L127.913 43.546L129.198 44.1889L129.547 44.3496L130.993 45.1532L131.261 45.314L132.466 46.0104L132.815 46.2247L134.181 47.1087L134.395 47.2694L135.547 48.073L135.868 48.3141L137.127 49.2785H137.261L138.386 50.1892L138.654 50.4571L139.806 51.5018L140.851 52.5465L141.012 52.7072L141.145 52.8411C141.52 53.2162 141.895 53.618 142.244 54.0198L141.52 53.0822C141.038 52.4661 140.556 51.8768 140.047 51.3143L140.128 51.4482C139.945 51.23 139.748 51.0241 139.538 50.8321L139.297 50.5642L139.11 50.3767L138.788 50.0553L138.038 49.3052L137.583 48.7695L137.02 48.2605C136.431 47.7516 135.842 47.2426 135.225 46.7605L135.065 46.6265L134.77 46.5194L134.074 45.9836L133.806 45.7693C132.734 44.9925 131.636 44.2425 130.484 43.546L128.931 42.6621L127.297 41.7781H127.163C126.038 41.2156 124.859 40.6798 123.653 40.1976C122.502 39.7423 121.296 39.2869 120.064 38.8851C119.234 38.6172 118.376 38.3493 117.519 38.135L116.019 37.6261L114.814 37.3314L113.635 37.0636H113.34L112.242 36.8493H111.974L110.903 36.6618H110.608L109.242 36.4742L107.715 36.2867L105.519 36.0457L103.938 38.2422H104.447L106.215 38.2154Z" fill="white"/>
<path d="M120.814 148.39C118.33 147.779 115.88 147.037 113.475 146.167C110.673 145.136 107.944 143.919 105.305 142.524C103.992 141.854 102.626 141.131 101.447 140.381C96.5542 137.461 92.1066 133.853 88.2412 129.666C87.3037 128.622 86.3929 127.55 85.5625 126.452C88.9093 131.474 93.0533 135.917 97.831 139.604C98.6346 140.22 99.465 140.837 100.322 141.426C101.179 142.015 102.01 142.578 103.001 143.14C106.152 145.105 109.468 146.79 112.912 148.176C114.412 148.792 115.939 149.355 117.519 149.864C118.564 150.212 119.609 150.533 120.707 150.828C122.85 151.417 125.047 151.926 127.324 152.328L128.77 149.864C125.931 149.489 123.332 149.007 120.814 148.39Z" fill="white"/>
<path d="M131.797 126.023L130.43 126.238L127.752 126.613L126.359 126.773C124.993 126.934 123.68 127.041 122.234 127.122H124.912H126.225C127.564 127.122 128.904 126.961 130.216 126.827C131.984 126.666 133.752 126.425 135.574 126.157C138.252 125.729 140.931 125.166 143.61 124.497L144.413 123.13L141.735 123.934C138.461 124.805 135.144 125.503 131.797 126.023Z" fill="white"/>
<path d="M144.548 112.228C141.304 114.47 137.941 116.536 134.476 118.416C132.734 119.354 130.94 120.238 129.118 121.095C128.77 121.309 128.422 121.523 128.047 121.711L125.877 122.836L124.752 123.372C131.648 122.358 138.407 120.56 144.896 118.014L147.708 116.889L155.316 103.817L152.343 106.496C149.851 108.425 147.253 110.38 144.548 112.228Z" fill="white"/>
<path d="M125.341 131.407H123.519H121.725C118.183 131.23 114.658 130.818 111.171 130.175C112.805 130.577 114.465 130.952 116.153 131.247C117.841 131.541 119.555 131.809 121.377 131.809C122.528 131.809 123.68 132.05 124.832 132.104C126.6 132.104 128.368 132.291 130.189 132.291H131.957C134.341 132.291 136.752 132.077 139.163 131.809L140.127 130.175C137.663 130.577 135.199 130.872 132.761 131.059C130.323 131.247 127.752 131.407 125.341 131.407Z" fill="white"/>
<path d="M142.083 126.613C139.94 127.122 137.824 127.55 135.681 127.899C133.538 128.247 131.422 128.515 129.306 128.702C126.627 128.943 123.948 129.05 121.269 129.05C119.689 129.05 118.109 129.05 116.555 128.89C119.046 129.211 121.537 129.372 124.082 129.452H125.609C126.627 129.452 127.645 129.452 128.689 129.452C132.858 129.302 137.011 128.864 141.119 128.14L141.976 126.64L142.083 126.613Z" fill="white"/>
<path d="M183.978 50.9394C183.978 51.2877 183.817 51.6359 183.71 51.9841C183.698 52.1178 183.698 52.2523 183.71 52.3859L183.469 53.2431V53.4574C183.469 53.6181 183.469 53.8056 183.335 53.9664C183.201 54.1271 183.335 54.4217 183.148 54.636V54.9039C183.097 55.1129 183.035 55.3186 182.96 55.52V55.6539V56.0557V56.3504C182.799 56.8326 182.665 57.3147 182.505 57.8237L187.433 49.3322C187.433 48.9304 187.621 48.5286 187.728 48.1268C187.996 46.9214 188.264 45.716 188.478 44.5105C188.692 43.3051 189.041 41.3229 189.228 39.7157L189.442 38.0816V38.0549L190.112 32.6974L186.657 31.8135V33.0189C186.657 33.6618 186.657 34.3315 186.657 34.9743C186.657 34.9743 186.657 35.2154 186.657 35.3226V37.2512V38.3495V38.6174V39.6889V39.9567C186.657 40.305 186.657 40.68 186.657 41.0282V41.1889C186.657 41.7515 186.657 42.314 186.442 42.8765C186.442 43.4391 186.255 44.0016 186.174 44.5909C186.174 44.5909 186.174 44.832 186.174 44.9659L186.014 45.8499V46.3321C186.014 46.7874 185.826 47.2428 185.746 47.6982C185.746 48.1268 185.585 48.5554 185.478 48.984V49.1715C185.478 49.5733 185.317 49.9751 185.21 50.3769L183.978 50.9394Z" fill="white"/>
<path d="M116.608 143.033C115.055 142.605 113.555 142.122 112.081 141.587C109.485 140.654 106.945 139.572 104.474 138.345L101.608 136.819L98.929 135.158L96.2503 133.363L94.9645 132.425C93.2857 131.165 91.6761 129.815 90.1428 128.381C92.8714 131.379 95.916 134.073 99.2236 136.417C100.322 137.194 101.474 137.944 102.652 138.667C105.839 140.619 109.191 142.287 112.671 143.649L114.01 144.158C119.083 145.965 124.337 147.214 129.68 147.882L131.02 145.578C128.529 145.364 126.064 145.015 123.653 144.587C121.243 144.158 118.885 143.676 116.608 143.033Z" fill="white"/>
<path d="M84.9998 167.758L83.8748 166.767L83.6337 166.633C83.3658 166.365 83.0979 166.124 82.8569 165.856L82.5622 165.588L81.5979 164.597C81.5199 164.532 81.4481 164.461 81.3836 164.383L80.6068 163.552L80.4192 163.338L79.6692 162.508L79.4817 162.266L78.5174 161.007L78.3031 160.74L77.6066 159.856L77.3923 159.588L76.5619 158.597V158.463C76.3208 158.141 76.0797 157.82 75.8654 157.472L75.7047 157.257L75.0618 156.32L74.9011 156.052L74.2047 154.98L74.0439 154.713L73.16 153.561L72.5974 152.543V152.355L71.9813 151.23L71.8474 150.962C71.6867 150.587 71.4992 150.239 71.3117 149.864C71.1241 149.489 70.9634 149.087 70.7759 148.712L70.4813 147.882L69.9991 146.81V146.569L69.5169 145.391V145.203L69.0883 143.998V143.757L68.3651 142.524C68.2311 142.096 68.0972 141.694 67.9901 141.265V141.105C67.8561 140.703 67.749 140.301 67.6418 139.899V139.685L67.3204 138.399C67.3204 137.971 67.1329 137.542 67.0257 137.113V136.899L66.7846 135.64L66.5436 134.274C66.5436 133.845 66.4096 133.39 66.356 132.961V132.774C66.356 131.836 66.1418 130.899 66.0882 129.961V129.774V128.488C66.0882 128.006 66.0882 127.524 66.0882 127.068V123.238C66.0882 122.916 66.0882 122.622 66.0882 122.327V122.166C66.0882 121.845 66.0882 121.523 66.0882 121.229C66.0882 120.907 66.0882 120.559 66.0882 120.211C66.0882 118.871 66.3561 117.532 66.5703 116.139C66.5703 115.47 66.7846 114.8 66.8918 114.157V113.862C66.9989 113.219 67.1329 112.577 67.2936 111.934V111.773C67.4275 111.13 67.5883 110.487 67.749 109.844C67.9097 109.201 68.0972 108.532 68.2847 107.862C68.6865 106.496 69.1151 105.183 69.5973 103.764L70.0527 102.478C69.7848 103.067 69.5437 103.656 69.3026 104.246C69.0615 104.835 68.8472 105.398 68.6062 105.96C67.6271 108.506 66.8042 111.109 66.1418 113.755V114.023C65.981 114.612 65.8471 115.228 65.7132 115.818V116.059C65.4453 117.264 65.231 118.496 65.0435 119.702V120.104C64.8828 121.309 64.722 122.488 64.6149 123.666C64.6149 124.282 64.6149 124.925 64.481 125.541V125.863C64.481 126.291 64.481 126.747 64.481 127.175V127.524C64.4676 127.702 64.4676 127.881 64.481 128.059V130.122C64.481 130.577 64.481 131.006 64.481 131.461C64.4677 131.622 64.4677 131.783 64.481 131.944C64.4685 132.086 64.4685 132.23 64.481 132.372C64.481 132.667 64.481 132.988 64.481 133.31V133.524C64.4955 133.693 64.4955 133.864 64.481 134.033V134.167C64.481 134.569 64.481 134.97 64.481 135.372C64.481 135.506 64.481 135.64 64.481 135.774C64.481 135.908 64.481 136.096 64.481 136.256C64.481 136.578 64.481 136.872 64.6149 137.194V137.328V137.89V138.453L64.7756 139.23C64.7627 139.354 64.7627 139.48 64.7756 139.605C64.7756 139.792 64.7756 140.006 64.9095 140.221C65.0435 140.435 65.0435 140.837 65.0971 141.158C65.1095 141.319 65.1095 141.48 65.0971 141.64L65.2578 142.283C65.2578 142.524 65.2578 142.765 65.4453 143.007V143.167C65.4541 143.292 65.4541 143.417 65.4453 143.542L65.6864 144.4L65.8471 144.908C65.8471 145.042 65.8471 145.176 65.8471 145.31L66.0882 146.114L66.2757 146.676L66.4364 147.132C66.4364 147.4 66.6239 147.694 66.7311 147.989C66.8095 148.152 66.8723 148.323 66.9186 148.498L67.0525 148.766L67.5347 150.025C67.5742 150.125 67.6189 150.224 67.6686 150.319C67.7199 150.458 67.7826 150.593 67.8561 150.721L68.2579 151.659C68.3404 151.814 68.412 151.975 68.4722 152.141V152.302L69.1151 153.614L69.2758 153.936L69.4366 154.23L70.0794 155.409C70.0843 155.48 70.0843 155.552 70.0794 155.623L70.2402 155.864L70.9098 157.016L71.0974 157.311V157.525C71.3652 157.981 71.6599 158.436 71.9813 158.918L72.142 159.159L72.9992 160.365L73.16 160.606L74.2047 161.999V162.186L74.3654 162.374C74.7404 162.856 75.1154 163.338 75.5172 163.793L86.6071 177.187L100.965 182.705L101.769 182.973C102.039 183.055 102.317 183.108 102.599 183.134L85.0266 167.811L84.9998 167.758Z" fill="white"/>
<path d="M39.6227 133.711C39.6227 134.274 39.4352 134.809 39.3548 135.345V135.613C39.3548 136.149 39.1941 136.685 39.1405 137.22V137.488C39.1405 138.051 39.0066 138.586 38.953 139.149L38.3369 145.39L37.3726 158.007L40.212 159.132L43.2657 160.311L42.8907 155.516L42.1942 146.408C42.1942 145.792 42.1942 145.176 42.1942 144.587V143.783C42.1942 143.435 42.1942 143.06 42.1942 142.712V142.283C42.1803 142.087 42.1803 141.89 42.1942 141.694V140.542C42.1942 140.167 42.1942 139.819 42.1942 139.47C42.1942 139.122 42.1942 139.015 42.1942 138.801V137.702C42.1942 137.515 42.1942 137.354 42.1942 137.193L42.4353 135.104C42.4485 134.917 42.4485 134.729 42.4353 134.542C42.4353 134.167 42.4353 133.792 42.6228 133.39V132.854L43.0246 130.577C43.0372 130.479 43.0372 130.38 43.0246 130.282C43.0246 129.907 43.2121 129.506 43.2925 129.131C43.3273 128.932 43.372 128.735 43.4264 128.541C43.4264 128.166 43.5872 127.791 43.6943 127.416V127.148C43.8818 126.398 44.0961 125.648 44.3104 124.898L44.4711 124.309C44.4711 123.961 44.7122 123.586 44.8194 123.211C44.9265 122.836 44.9533 122.836 45.0069 122.648C45.2212 121.978 45.4622 121.309 45.7033 120.639C45.7033 120.452 45.7033 120.291 45.8908 120.13C46.0783 119.969 46.1587 119.407 46.3194 119.032L46.5605 118.443C46.6945 118.068 46.8284 117.719 46.9891 117.344C47.4981 116.139 48.0338 114.933 48.6231 113.728L42.2746 122.487C41.9799 123.264 41.7121 124.041 41.4442 124.818C41.0692 125.996 40.6942 127.148 40.3995 128.354C40.2388 128.916 40.1048 129.479 39.9709 130.068V130.202C39.837 130.765 39.703 131.354 39.5959 131.916C39.837 132.586 39.7298 133.149 39.6227 133.711Z" fill="white"/>
<path d="M83.3123 102.049C83.4993 103.44 83.8407 104.806 84.3302 106.121L84.5713 106.737C84.6766 106.935 84.7661 107.141 84.8392 107.353C85.2327 108.194 85.6801 109.008 86.1785 109.791L86.5535 110.38L86.9285 110.889L87.2768 111.344C87.8705 112.068 88.515 112.748 89.2054 113.38H89.3394L89.7144 113.702H89.8751L90.2501 114.023L90.4376 114.157L90.9198 114.532L91.3752 114.853L92.6342 115.63H92.8217L93.92 116.246C94.0166 116.274 94.1074 116.32 94.1878 116.38L94.6164 116.568H94.8843L95.3129 116.755L95.9826 117.023H96.2237L97.2683 118.416C97.9613 118.662 98.6679 118.868 99.3845 119.032C99.8509 119.168 100.325 119.275 100.804 119.354H101.527C102.036 119.354 102.519 119.514 103.001 119.568C103.747 119.67 104.498 119.733 105.251 119.755H106.751C107.762 119.755 108.772 119.701 109.778 119.595H110.555C111.319 119.518 112.079 119.402 112.832 119.246H113.608C115.15 118.927 116.67 118.515 118.162 118.014L118.912 117.746C120.431 117.211 121.916 116.585 123.359 115.871L124.082 115.496C131.012 111.976 136.834 106.608 140.904 99.9866C142.41 97.51 143.624 94.8672 144.521 92.1112C144.521 91.8701 144.521 91.629 144.735 91.3879C145.527 88.8628 145.96 86.2387 146.021 83.5929V82.95C146.021 82.2803 146.021 81.6374 146.021 81.0213C145.89 79.566 145.603 78.1289 145.164 76.7354C145.054 76.3435 144.919 75.9588 144.762 75.5836C144.338 74.4729 143.809 73.4055 143.181 72.3959C142.967 72.0477 142.753 71.7262 142.512 71.4048C140.017 68.0266 136.461 65.5835 132.413 64.4669L131.074 64.1187H130.806L129.895 63.9312H129.413H129.198C128.395 63.9312 127.591 63.7169 126.788 63.6633H126.439H125.288H123.627C122.716 63.6633 121.805 63.6633 120.948 63.8508H120.814L119.394 64.0384L117.948 64.2794L116.823 64.4937L116.18 64.6545L115.51 64.8152L114.894 64.9759L113.769 65.2973L113.153 65.4848L112.483 65.6991L111.867 65.9134L110.742 66.3152L110.18 66.5563L109.43 66.851L108.867 67.0921L107.876 67.5207L107.26 67.8153L106.456 68.2171L105.921 68.485C105.609 68.6296 105.305 68.7905 105.01 68.9672L104.474 69.235L103.537 69.7708L103.054 70.0654L102.17 70.6012L101.822 70.8155L100.697 71.5655L100.295 71.8334L99.4113 72.4763L99.0899 72.6906L97.9916 73.5478L97.6434 73.8156L96.7862 74.5121L96.4915 74.7532L95.42 75.6907L95.1522 75.9318L94.3218 76.7354L94.0271 77.0033C93.6789 77.3247 93.3574 77.673 93.036 78.0212L92.8217 78.2087L92.0181 79.1195L91.7502 79.4141C91.4288 79.7623 91.1073 80.1374 90.8127 80.5124C90.5448 80.8338 90.2501 81.1821 90.0091 81.5303L89.768 81.8249L88.9108 83.0036L88.2143 84.0751L88.0804 84.2358L87.4643 85.2537V85.4412L86.875 86.4591L86.366 87.477L85.8838 88.5217V88.6824L85.4553 89.7271C85.1874 90.4504 84.9463 91.1736 84.732 91.9237C84.732 92.2719 84.5177 92.6469 84.4373 92.9951C83.9266 94.2902 83.5234 95.6251 83.2319 96.9864C83.0711 98.4464 83.0711 99.9195 83.2319 101.379V102.103L83.3123 102.049ZM98.2595 116.916L97.2683 116.487H97.0273L96.679 116.327L95.9826 116.032H95.8218C95.5104 115.896 95.2064 115.744 94.9111 115.577H94.7236L93.786 115.041L93.5985 114.907C93.2846 114.717 92.9806 114.512 92.6878 114.291L91.8306 113.648L91.6431 113.487C91.372 113.278 91.1127 113.055 90.8662 112.818H90.7323L90.0626 112.148C89.8168 111.911 89.5843 111.661 89.3662 111.398L89.2322 111.237L88.8572 110.755L88.5893 110.434L88.0268 109.576L87.8929 109.416L87.4107 108.558V108.398C87.25 108.13 87.1161 107.862 86.9821 107.594V107.433C86.9821 107.139 86.7142 106.844 86.6071 106.549V106.335C86.4732 106.014 86.366 105.692 86.2589 105.371L86.0178 104.514C86.0085 104.442 86.0085 104.37 86.0178 104.299C86.0178 103.978 85.8571 103.63 85.8035 103.308C85.7499 102.987 85.8035 103.308 85.8035 103.147C85.8035 102.987 85.8035 102.826 85.8035 102.665V102.237V102.049C85.8035 101.888 85.8035 101.728 85.8035 101.567C85.8166 101.389 85.8166 101.21 85.8035 101.031V100.817C85.8035 100.469 85.8035 100.094 85.8035 99.7455C85.8035 99.3705 85.8035 99.0222 85.8035 98.674C85.8035 98.3258 85.8035 98.4329 85.8035 98.3258C85.8035 98.2186 85.8035 97.79 85.8035 97.5222C85.8167 97.4154 85.8167 97.3075 85.8035 97.2007L85.9642 96.0757C85.9642 95.7006 86.0981 95.3256 86.1785 94.9506V94.6292C86.1785 94.3613 86.1785 94.0666 86.366 93.7988C86.3544 93.683 86.3544 93.5663 86.366 93.4505L86.6875 92.3255L87.0893 91.2004C87.1499 91.0912 87.195 90.9739 87.2232 90.8522C87.2232 90.5843 87.4643 90.2897 87.5714 90.0218L87.7322 89.6736C88.0804 88.9235 88.4554 88.1467 88.884 87.3966C88.9303 87.2725 88.9934 87.1554 89.0715 87.0484L89.5537 86.218L89.2322 85.2001L89.9823 84.0483L90.4644 86.727L90.7055 87.852V88.0395C90.7842 88.4134 90.8917 88.7805 91.027 89.1378C91.4259 90.3141 91.9093 91.46 92.4735 92.5665V92.7273L93.036 93.7452L93.6789 94.7363V94.8702L94.3486 95.781V95.9149C94.5599 96.2327 94.8022 96.5288 95.0718 96.7989C95.6091 97.412 96.1815 97.9934 96.7862 98.5401H96.9201C97.2148 98.8347 97.5362 99.1026 97.8577 99.3705L98.822 100.094C101.059 101.688 103.524 102.935 106.135 103.79H106.376H106.617C109.785 104.765 113.08 105.261 116.394 105.264H118.698H120.6C121.537 105.264 122.502 105.049 123.466 104.889C128.13 104.137 132.649 102.664 136.86 100.522L139.378 99.2633C138.03 101.502 136.44 103.587 134.636 105.478C134.288 105.88 133.913 106.228 133.565 106.603C131.71 108.419 129.693 110.059 127.538 111.505C118.457 117.773 107.394 120.05 98.2595 116.916ZM96.0361 81.1553H96.1701L97.054 80.807L99.0095 80.1106L100.215 79.7088C101.42 79.3338 102.626 78.9855 103.804 78.7177C105.359 78.3437 106.933 78.0576 108.519 77.8605L110.019 77.6997H111.519H114.653H115.992H116.153H117.519L118.805 77.8872H118.966L120.198 78.1283H120.412L121.618 78.423H121.805L123.037 78.798L124.538 79.3338C127.694 80.5376 130.521 82.4707 132.788 84.9752C135.055 87.4798 136.698 90.4848 137.583 93.7452C137.794 94.4943 137.964 95.2544 138.092 96.0221L138.467 98.1383L136.056 99.3705C131.186 101.813 125.912 103.347 120.493 103.897C119.261 103.897 118.082 104.058 116.876 104.058C115.671 104.058 115.109 104.058 114.198 104.058C112.09 103.842 110.009 103.421 107.983 102.799H107.769H107.555L106.162 102.344C105.777 102.206 105.402 102.045 105.037 101.862H104.876L103.804 101.326H103.644C103.269 101.138 102.894 100.951 102.545 100.737L101.233 99.6651L100.242 98.9419C99.9203 98.7008 99.5988 98.4597 99.3042 98.1918L98.3934 97.3882C97.8041 96.7989 97.2148 96.1828 96.679 95.5399C96.4379 95.2185 96.1701 94.897 95.929 94.5488C94.936 93.1729 94.1172 91.6793 93.4914 90.1021L93.0628 88.8967C92.988 88.6862 92.9254 88.4716 92.8753 88.2538C92.8005 88.0433 92.7379 87.8287 92.6878 87.611C92.6306 87.4448 92.5859 87.2747 92.5538 87.102C92.5412 86.879 92.5412 86.6554 92.5538 86.4323L91.9913 83.5125L95.6343 81.9589L96.0361 81.1553ZM141.574 74.2978L142.083 75.2353C142.407 75.8788 142.694 76.5406 142.94 77.2176C143.817 79.7366 144.19 82.4033 144.039 85.0662C143.998 86.2904 143.855 87.5091 143.61 88.7092C143.464 89.5596 143.268 90.4005 143.021 91.2272C142.518 92.9858 141.863 94.6977 141.065 96.3435L140.422 97.6561L140.128 95.5399C139.817 93.6974 139.286 91.8988 138.547 90.1825C138.333 89.7003 138.119 89.2182 137.877 88.7628C137.654 88.3021 137.403 87.8549 137.127 87.4234C136.742 86.7612 136.313 86.1257 135.842 85.5216C135.543 85.1105 135.221 84.717 134.877 84.3429C134.556 83.9679 134.208 83.5929 133.833 83.2179C131.183 80.6114 127.951 78.6738 124.404 77.5658L123.225 77.2176H122.984L121.778 76.9229H121.377C120.98 76.8169 120.578 76.7363 120.171 76.6818L118.832 76.4943H118.698H117.439H117.278C116.314 76.4943 115.35 76.4943 114.358 76.4943C112.9 76.4868 111.443 76.5584 109.992 76.7086H109.831C108.84 76.7086 107.822 76.9497 106.805 77.1104L105.331 77.3783C103.657 77.7279 102.003 78.166 100.376 78.6909L98.6345 79.2802L96.9201 79.9231C96.3576 80.1374 95.7683 80.3785 95.2057 80.6463L92.152 81.9589C92.4467 81.6106 92.7413 81.2892 93.0092 80.941L93.3306 80.5927C93.5182 80.3785 93.7057 80.1374 93.92 79.9231L94.295 79.5213L94.8575 78.9319L95.2593 78.5301L95.8486 77.9676L96.2237 77.5926L97.0273 76.8693L97.6434 76.3336L98.2059 75.8514L98.7684 75.3961L99.2238 75.021L99.8399 74.5389L100.268 74.2442L100.938 73.7621L101.26 73.521C102.135 72.9138 103.028 72.3245 103.938 71.753L104.849 71.2441L105.037 71.1101L105.947 70.628H106.135L107.099 70.1458L108.519 69.4761L108.787 69.3422L109.965 68.86L110.26 68.7261L111.492 68.2707H111.733L112.403 68.0296H112.805L113.823 67.7082L114.278 67.5742L115.109 67.3599L115.751 67.1724L116.314 67.0385H116.019L116.769 66.8778H117.278H117.975H118.537L119.368 66.7438H119.796H120.787H124.993H126.064H126.252H126.948H127.431H128.02H128.502H128.716L129.761 66.9581H129.949L131.02 67.226C135.278 68.1944 139.022 70.7159 141.521 74.2978H141.574Z" fill="white"/>
<path d="M56.418 156.909L56.2841 156.587L56.043 155.918C55.9864 155.788 55.9416 155.653 55.9091 155.516C55.9091 155.328 55.7751 155.141 55.7216 154.953L55.5609 154.525C55.5039 154.377 55.4591 154.224 55.4269 154.069L55.2662 153.587V153.239C55.2662 153.239 55.2662 152.971 55.1323 152.837C54.9983 152.703 55.1323 152.516 55.1323 152.355V152.194C55.1441 152.069 55.1441 151.944 55.1323 151.819C55.0969 151.647 55.0522 151.477 54.9983 151.31V151.123V150.801C54.9983 150.64 54.9983 150.453 54.9983 150.292V150.051V149.837C54.9983 149.649 54.9983 149.462 54.9983 149.248V148.98C54.9669 148.763 54.9221 148.548 54.8644 148.337V148.015C54.8644 147.801 54.8644 147.56 54.7305 147.319V147.024C54.7305 146.783 54.7305 146.542 54.7305 146.274V146.006C54.7175 145.756 54.7175 145.506 54.7305 145.256V144.988C54.7434 144.739 54.7434 144.488 54.7305 144.238V143.971V143.22V142.953V142.176C54.7305 141.961 54.7305 141.72 54.7305 141.506C54.7305 141.292 54.7305 141.292 54.7305 141.185C54.7305 141.078 54.7305 140.676 54.7305 140.408V140.167C54.7305 139.872 54.7305 139.604 54.7305 139.336V139.042C54.7305 138.747 54.7305 138.452 54.7305 138.158C54.7305 137.006 54.7305 135.854 54.7305 134.702C54.7305 133.541 54.8108 132.39 54.9715 131.247C54.9715 130.095 55.2126 128.97 55.4001 127.818C55.5787 126.675 55.793 125.523 56.043 124.362C57.1394 119.175 58.8105 114.126 61.0254 109.308L61.5076 108.263V108.103C61.6683 107.781 61.829 107.46 61.963 107.138V106.924C62.1237 106.629 62.2844 106.335 62.4183 106.04L62.5523 105.772C62.713 105.504 62.8469 105.21 63.0076 104.915L63.1684 104.62C63.3023 104.352 63.4362 104.085 63.597 103.817C63.6494 103.704 63.7122 103.596 63.7845 103.495L64.2131 102.718L64.4006 102.37C64.5592 102.13 64.7023 101.879 64.8292 101.62L65.0702 101.272C65.2042 101.031 65.3381 100.79 65.4988 100.549L65.7399 100.147L66.1685 99.4505L66.4096 99.0487C66.5703 98.8344 66.7043 98.5933 66.8382 98.379L67.1061 97.9772L67.5614 97.3075L67.8293 96.8789L68.2847 96.236L68.5794 95.8074L69.0347 95.1645L69.3294 94.7359L69.7848 94.093L70.1062 93.6645L70.5884 93.0484L70.9098 92.6198L71.392 91.9769L71.7134 91.5751L72.2224 90.9054L72.5438 90.5304L73.1064 89.8339L73.3742 89.4857C73.6689 89.1375 73.9368 88.7892 74.2314 88.4678L73.1867 89.5928L72.9189 89.8875L72.0617 90.8518L71.8742 91.0661L70.9098 92.1912L70.6687 92.4858C70.4009 92.7805 70.133 93.1019 69.8919 93.4234L69.6508 93.6912L68.7133 94.8699V95.0306L67.9097 96.0753L67.6686 96.37L66.7846 97.5486L65.9007 98.7808L65.7131 99.0487C65.4453 99.3969 65.2042 99.7451 64.9631 100.12L64.8292 100.281L63.9988 101.54V101.727L63.2755 102.852L63.1416 103.067C62.6058 103.924 62.0969 104.781 61.5879 105.745V105.96C61.0701 106.835 60.5879 107.728 60.1414 108.638V108.772C59.9271 109.201 59.6861 109.63 59.4985 110.058L58.8289 111.451L58.2128 112.79C57.7842 113.701 57.4092 114.612 57.0073 115.469C56.6323 116.407 56.2573 117.344 55.9359 118.148C55.4001 119.594 54.9447 121.041 54.5429 122.487C54.2751 123.452 54.034 124.416 53.7929 125.38C53.211 127.807 52.7816 130.267 52.5071 132.747C52.3732 133.684 52.2928 134.649 52.2393 135.586C52.2393 137.006 52.2393 138.265 52.2393 139.792V139.979C52.2393 141.399 52.2393 142.819 52.4536 144.238C52.4536 144.613 52.4536 144.988 52.4536 145.39V145.551C52.4536 145.551 52.4536 145.765 52.4536 145.846C52.4536 146.14 52.4536 146.462 52.4536 146.756V146.997V147.212C52.4536 147.667 52.5875 148.123 52.6679 148.578V148.739C52.6679 149.087 52.8018 149.408 52.8554 149.757V150.56V150.748C52.8554 151.176 53.0161 151.605 53.1232 152.033L56.1502 164.623L62.4987 167.088L56.8198 157.927L56.418 156.909Z" fill="white"/>
<path d="M20.4164 182.999L110.421 218.76C112.68 219.521 115.135 219.469 117.36 218.613C119.585 217.757 121.442 216.151 122.609 214.072L214.274 52.6536C214.781 51.7741 215.159 50.8271 215.399 49.841C215.634 49.2005 215.733 48.518 215.69 47.8371C215.646 47.1562 215.461 46.492 215.145 45.8868C214.83 45.2817 214.392 44.749 213.859 44.3229C213.326 43.8967 212.711 43.5865 212.051 43.4121H211.783L211.274 44.43L119.609 205.876C118.442 207.956 116.587 209.564 114.362 210.424C112.138 211.285 109.684 211.343 107.421 210.59L17.4162 174.829L16.9073 174.669C16.3437 175.695 16.094 176.864 16.1892 178.031C16.2845 179.197 16.7205 180.31 17.443 181.231C17.443 181.071 17.443 180.91 17.443 180.749C18.2032 181.764 19.2337 182.543 20.4164 182.999Z" fill="white"/>
<path d="M118.698 203.706L210.283 42.287C211.36 40.6022 211.806 38.5904 211.542 36.6082C211.434 35.6931 211.043 34.8345 210.424 34.1525C209.804 33.4705 208.987 32.9991 208.086 32.8044L207.658 32.6973C207.48 33.1474 207.275 33.5858 207.042 34.0098L115.376 195.455C114.213 197.538 112.357 199.147 110.13 200.004C107.904 200.86 105.447 200.909 103.188 200.143L31.1043 171.508L21.7825 167.811L13.1838 164.382H12.8892C12.5193 165.158 12.3195 166.003 12.3031 166.862C12.2867 167.721 12.454 168.573 12.7939 169.362C13.1338 170.151 13.6384 170.858 14.2739 171.436C14.9094 172.014 15.6611 172.449 16.4786 172.713L17.818 173.249L106.483 208.474C108.755 209.235 111.222 209.175 113.455 208.303C115.687 207.432 117.542 205.805 118.698 203.706Z" fill="white"/>
<path d="M216.363 54.1268L215.747 53.9661C215.616 54.3231 215.445 54.6644 215.238 54.984L123.6 216.242C122.428 218.324 120.568 219.933 118.339 220.794C116.111 221.654 113.652 221.711 111.385 220.956L21.4074 185.196H21.1931C20.7784 185.977 20.5398 186.839 20.4942 187.722C20.4485 188.605 20.5968 189.488 20.9288 190.307C21.2607 191.127 21.7681 191.864 22.4154 192.466C23.0627 193.069 23.8341 193.522 24.6754 193.794L114.68 229.475C116.943 230.228 119.397 230.169 121.622 229.309C123.846 228.449 125.701 226.84 126.868 224.76L218.533 63.3683C220.971 59.0556 220.007 54.8768 216.363 54.1268Z" fill="white"/>
<path d="M109.054 34.4118C110.394 34.5725 111.733 34.7868 113.019 35.0011C115.142 35.3665 117.244 35.8494 119.314 36.4476C120.948 36.903 122.501 37.4388 124.028 38.0281H124.243L125.555 38.5638L125.823 38.6977L126.921 39.1799L127.296 39.3406L128.287 39.8228L128.582 39.9567C129.011 40.171 129.439 40.3853 129.841 40.6264H130.029L131.422 41.43C133.72 42.7923 135.89 44.3614 137.904 46.1178C138.253 46.3905 138.584 46.6858 138.895 47.0017L140.797 48.8232L141.681 49.7876C143.458 51.7656 145.054 53.8993 146.449 56.1629C145.967 55.1718 145.431 54.2074 144.869 53.2699C143.929 51.7144 142.891 50.2202 141.761 48.7965C141.092 47.9661 140.395 47.1357 139.672 46.3321L138.922 45.5552C137.931 44.5373 136.859 43.5462 135.761 42.6087L134.77 41.9926L134.556 41.8318C134.207 41.564 133.859 41.2961 133.484 41.055L132.975 40.7336L132.279 40.2782L132.091 39.93L131.395 39.4746L130.913 39.1799L130.672 39.0192L130.002 38.6442L129.707 38.4567L129.011 38.0549L128.261 37.6531L127.993 37.5191L127.645 37.3316C125.432 36.2091 123.14 35.2511 120.787 34.4654C119.662 34.0904 118.483 33.7421 117.278 33.4207H117.144L116.019 33.1528H115.537L113.903 32.6974L113.019 32.5099L112.242 32.376C111.733 32.376 111.251 32.1885 110.742 32.1349L108.519 31.8135L106.831 34.1707L109.054 34.385V34.4118Z" fill="white"/>
<path d="M116.019 31.1971C118.129 31.6693 120.212 32.2505 122.261 32.9383L122.77 33.1258C123.225 33.2865 123.654 33.4204 124.082 33.6079L124.538 33.7687L126.172 34.4383L126.574 34.6259L127.833 35.1884L128.315 35.4295C128.824 35.6705 129.333 35.9116 129.815 36.1795L131.181 36.9563L131.636 37.1974L132.842 37.9474L133.056 38.0814L133.297 38.2421L134.449 39.0189L134.904 39.3404L135.949 40.1172L136.27 40.3583L137.529 41.3762L137.851 41.6708L138.842 42.528L139.137 42.8227L140.369 43.9745C148.091 52.0989 152.742 62.6601 153.521 73.8421C154.396 66.3382 153.823 58.7362 151.834 51.4481C151.369 49.8906 150.814 48.3611 150.173 46.8675C150.012 46.4389 149.825 46.0103 149.637 45.5818C149.628 45.4927 149.628 45.4029 149.637 45.3139L149.476 44.9924L149.075 44.1353V43.921C148.993 43.7837 148.921 43.6404 148.86 43.4924C148.72 43.2691 148.594 43.0364 148.485 42.7959C148.485 42.5816 148.244 42.3673 148.137 42.153L147.923 41.8316C147.937 41.7698 147.937 41.7058 147.923 41.6441L147.2 40.4654C146.905 40.0368 146.637 39.6082 146.342 39.2064L146.182 38.9654L145.164 37.5992L145.003 37.4117C145.003 37.251 144.762 37.0903 144.628 36.9563L144.119 36.3402C143.69 35.8581 143.289 35.3759 142.86 34.9205C141.635 33.616 140.329 32.3903 138.949 31.2507C138.038 30.5006 137.074 29.8042 136.083 29.1077H135.895C134.904 28.438 133.886 27.8219 132.842 27.2326H132.654L131.02 26.3487C129.476 25.5808 127.893 24.8923 126.279 24.2861L125.127 23.8575H124.859L123.841 23.536L123.306 23.3753L122.529 23.1342L121.189 22.7592L118.698 21.4734L116.528 20.9109C116.353 21.1042 116.192 21.3101 116.046 21.527L109.778 30.1524L112.028 30.4471C113.341 30.6614 114.68 30.9025 116.019 31.1971Z" fill="white"/>
<path d="M103.51 41.8584C107.248 41.9825 110.972 42.3764 114.653 43.0371L116.019 43.4121L116.662 43.546L117.519 43.7335L118.162 43.8675L119.448 44.2157H119.984L120.895 44.4836L121.484 44.6443L122.636 45.0193L123.145 45.18L124.163 45.5283L124.618 45.689L126.386 46.3587L126.681 46.4926C127.163 46.7069 127.672 46.8944 128.154 47.1355L128.502 47.2694L130.002 47.9927H130.19L131.85 48.8498C132.35 49.1177 132.859 49.4124 133.377 49.7338L133.806 49.9749L134.904 50.6981L135.413 51.0196C135.761 51.2339 136.11 51.5018 136.458 51.7428L136.886 52.0375L138.306 53.0822C137.931 52.7608 137.556 52.4393 137.208 52.0911L136.994 51.9304L136.833 51.7964L136.244 51.4482L135.815 51.1H135.681L134.127 49.9481L133.886 49.7874C133.083 49.2249 132.225 48.6623 131.368 48.1534L130.35 47.5641L129.788 47.2426L126.734 45.4479H126.6H126.413C125.502 45.0193 124.564 44.6175 123.734 44.2157C121.124 43.1711 118.437 42.3293 115.698 41.6977C112.176 40.8714 108.592 40.3338 104.983 40.0905L102.787 39.9565L101.313 41.9924L103.51 41.8584Z" fill="white"/>
<path d="M189.898 44.3498L191.719 41.2425L192.014 40.6531L192.255 40.1442C192.446 39.7054 192.59 39.2474 192.684 38.778C192.684 38.778 192.684 38.778 192.684 38.6441C192.684 38.5102 192.684 38.403 192.684 38.2959C192.684 38.1887 192.684 38.2959 192.684 38.1352C192.697 38.0284 192.697 37.9205 192.684 37.8137C192.699 37.7521 192.699 37.6878 192.684 37.6262V36.8762C192.697 36.8053 192.697 36.7327 192.684 36.6619C192.697 36.582 192.697 36.5006 192.684 36.4208C192.697 36.2782 192.697 36.1348 192.684 35.9922C192.668 35.9307 192.668 35.8662 192.684 35.8047V35.5636C192.672 35.5107 192.672 35.4558 192.684 35.4029C192.694 35.3228 192.694 35.2418 192.684 35.1618V35.0011C192.698 34.9304 192.698 34.8575 192.684 34.7868V34.6261L192.523 34.4118V34.2778L192.336 34.0635L192.041 33.7957L191.291 39.5817C191.291 40.4121 191.077 41.2425 190.943 42.0729C190.943 42.4747 190.943 42.9032 190.755 43.3051L190.514 44.564L189.898 44.3498Z" fill="white"/>
<path d="M170.424 29.3489C170.433 29.5005 170.433 29.6526 170.424 29.8043C170.424 30.2329 170.638 30.6347 170.718 31.0365C170.706 31.197 170.706 31.3582 170.718 31.5186L170.959 32.8312C170.972 32.9559 170.972 33.0816 170.959 33.2062C170.959 33.7688 171.147 34.3313 171.227 34.8938C171.242 35.1168 171.242 35.3405 171.227 35.5635V35.751C171.214 35.9114 171.214 36.0727 171.227 36.2332V36.9028C171.214 37.1616 171.214 37.4209 171.227 37.6797C171.24 37.9027 171.24 38.1263 171.227 38.3493C171.254 38.7418 171.254 39.1355 171.227 39.528C171.227 39.7155 171.227 39.9298 171.227 40.1173C171.227 40.3048 171.227 40.653 171.227 40.9209C171.214 41.126 171.214 41.3318 171.227 41.537V43.4121C171.227 44.1086 171.227 44.8318 171.227 45.5283V45.7426C171.227 46.0372 171.227 46.3587 171.227 46.6533C171.227 46.948 171.227 47.0016 171.227 47.1891C171.227 47.3766 171.227 47.7248 171.227 47.9927C171.227 48.2605 171.227 48.8231 171.227 49.2517C171.227 49.6803 171.227 49.5999 171.227 49.7874V50.6714C171.227 50.8321 171.227 50.9928 171.227 51.1535C171.227 51.3143 171.227 51.3411 171.227 51.4214L171.067 52.6C169.488 64.0165 165.81 75.0421 160.218 85.1195C159.361 86.6464 158.503 88.1732 157.539 89.7001C159.039 87.5036 160.432 85.2534 161.718 83.0033C163.435 80.045 164.991 76.9957 166.379 73.869C166.727 73.1189 167.075 72.3421 167.397 71.5653C169.395 67.0982 171.026 62.4755 172.272 57.7432C172.647 56.2163 172.968 54.6626 173.236 53.1358C173.37 52.5197 173.477 51.9036 173.584 51.2607C173.571 51.1181 173.571 50.9747 173.584 50.8321C173.597 50.6359 173.597 50.439 173.584 50.2428C173.584 49.7606 173.718 49.3052 173.772 48.8499C173.826 48.3945 173.772 48.5284 173.772 48.3945C173.772 47.698 173.933 46.9748 174.013 46.2515C174.013 46.0104 174.013 45.7694 174.013 45.5015C174.013 45.3675 174.013 45.2336 174.013 45.0729C174 44.8945 174 44.7155 174.013 44.5371C174.013 43.6532 174.013 42.7424 174.013 41.8584C174.013 41.5102 174.013 41.162 174.013 40.8405V40.4119C174.013 39.7155 174.013 39.0726 174.013 38.4029C174 38.1977 174 37.992 174.013 37.7868C174.013 36.7153 174.013 35.6438 173.799 34.5992C173.773 34.1054 173.72 33.6135 173.638 33.1259V32.6973C173.638 32.2687 173.638 31.8133 173.451 31.3847C173.463 31.1259 173.463 30.8667 173.451 30.6079C173.463 30.3848 173.463 30.1612 173.451 29.9382C173.451 29.456 173.29 28.9739 173.183 28.4917L169.727 27.6345C170.156 28.2774 170.29 28.8132 170.424 29.3489Z" fill="white"/>
<path d="M80.1782 73.2797C86.4249 69.3656 92.9622 65.9357 99.7328 63.0202L102.144 62.0291L102.626 61.8952C103.456 61.5469 104.26 61.2255 105.09 60.9308L105.733 60.6898L107.796 59.9397L108.278 59.779H108.546L111.224 58.895L109.135 59.0825H108.76L106.778 59.3236C99.4934 60.3048 92.3182 61.973 85.3481 64.306L77.312 75.4494C78.3835 74.7262 79.4818 74.0297 80.58 73.3332L80.1782 73.2797Z" fill="white"/>
<path d="M91.3485 58.2524C94.1879 57.6095 97.0006 57.047 99.8132 56.6184L101.42 56.3773H101.635L103.028 56.1898H103.349L104.635 56.0291H105.305L107.126 55.8415H108.037H109.59H110.394H112.671H111.6C105.094 55.7418 98.5959 56.3073 92.2057 57.5291L89.8752 57.9577L88.9109 59.2703L91.3485 58.681V58.2524Z" fill="white"/>
<path d="M89.0714 61.306L89.634 61.1721C90.2054 60.9756 90.768 60.8149 91.3216 60.6899L92.2055 60.4488L93.786 60.047L95.045 59.7256L96.4647 59.4845L97.6165 59.2166L98.6344 59.0023L100.804 58.5737L101.608 58.413L102.947 58.1987H103.269L105.197 57.8772L107.287 57.6094L104.983 57.7969H104.206L102.679 57.9844H101.715L100.349 58.1719L99.3309 58.3326L98.0183 58.5469L96.9468 58.7344L95.6878 58.9755L94.5628 59.1898L93.3306 59.4309L92.2055 59.672L90.893 59.9666L89.8483 60.2345L87.4374 60.8238L86.5535 62.1632L89.0447 61.3863L89.0714 61.306Z" fill="white"/>
<path d="M107.18 53.6717H115.082H116.046H116.609H118.109L116.743 53.4842H116.207H115.43H114.734H114.171H113.983H113.207H112.537H111.653H111.117H110.099H109.698H108.573H107.18C102.979 53.3256 98.7731 53.4509 94.5897 53.8592L92.286 54.1539L91.2681 55.6004L93.6253 55.1718C98.1057 54.3756 102.634 53.8745 107.18 53.6717Z" fill="white"/>
<path d="M22.8005 166.418L43.4265 174.669L102.197 197.973C102.735 198.178 103.291 198.331 103.858 198.429H104.287C104.715 198.455 105.144 198.455 105.572 198.429H106.001C107.732 198.284 109.403 197.721 110.868 196.788C112.333 195.855 113.55 194.579 114.412 193.071L196.381 49.1445L198.309 45.7693L206.185 31.8669C208.649 27.5541 207.658 23.3754 204.015 22.4914L127.377 4.06191C125.123 3.83964 122.849 4.21825 120.789 5.15924C118.728 6.10023 116.953 7.57006 115.644 9.41932L9.56766 152.221C8.8852 152.987 8.4039 153.911 8.16709 154.909C7.93029 155.907 7.9454 156.949 8.21106 157.94C8.47673 158.931 8.98462 159.84 9.68902 160.586C10.3934 161.332 11.2722 161.891 12.2464 162.213L20.8718 165.641L22.8005 166.418ZM23.0951 148.283C23.35 147.073 23.8615 145.931 24.5952 144.935L31.5598 135.372L34.7743 130.952L40.1317 123.505L45.0873 116.675L64.1329 90.5305L69.2224 83.5926L70.5618 81.7711L73.6423 77.5388L82.8838 64.8417L84.491 62.6452L85.4554 61.3058L86.9554 59.2432L88.0001 57.8235L89.4198 55.868L90.5449 54.3412L91.911 52.4393L93.1164 50.8053L94.4558 48.957L95.7416 47.189L97.0541 45.3943L98.4471 43.4657L99.7328 41.7245L101.26 39.6351L102.626 38.0547L104.233 35.8046L105.492 34.0902L107.206 31.7061L108.465 30.0186L114.868 21.2324C115.013 21.0156 115.174 20.8096 115.35 20.6163C115.819 20.0356 116.339 19.4978 116.903 19.0091C118.218 17.7961 119.731 16.8176 121.377 16.1161C122.429 15.6801 123.539 15.4004 124.672 15.2857C125.01 15.2596 125.351 15.2596 125.689 15.2857H126.948L127.511 15.4196L139.217 18.3662L145.03 19.8127L151.619 21.4735L155.236 22.3842L159.977 23.5897L160.566 23.7236L162.87 24.3129L165.147 24.9022L166.861 25.3308L167.959 25.5987L169.379 25.9469L172.995 26.8577L175.272 27.447L178.674 28.3042L180.79 28.8399L184.192 29.6971L186.148 30.1793L187.969 30.6347L189.791 31.09H190.086H190.487L191.05 31.2508L191.586 31.4918C191.764 31.574 191.934 31.6727 192.095 31.7865L192.416 32.0008L192.577 32.1347C192.652 32.237 192.742 32.3273 192.845 32.4026L193.112 32.7776L193.407 33.2598V33.4205C193.468 33.5298 193.513 33.647 193.541 33.7687V33.983C193.553 34.0899 193.553 34.1976 193.541 34.3045V34.5456C193.541 34.6795 193.541 34.7866 193.541 34.9206C193.541 35.0545 193.541 35.0813 193.541 35.1349C193.541 35.1885 193.541 35.5367 193.541 35.7242C193.541 35.9117 193.541 35.9117 193.541 35.9921C193.554 36.1167 193.554 36.2424 193.541 36.3671V36.6617C193.541 36.6617 193.541 36.9028 193.541 37.01C193.541 37.1171 193.541 37.2243 193.541 37.3314V37.6796C193.541 37.6796 193.541 37.8939 193.541 38.0279C193.541 38.1618 193.541 38.4297 193.354 38.644C193.365 38.7419 193.365 38.8407 193.354 38.9386C193.365 39.0723 193.365 39.2068 193.354 39.3404C193.358 39.4386 193.358 39.5369 193.354 39.6351V39.903V40.0905V40.3316C193.354 40.5727 193.112 40.8137 192.979 41.0548L189.55 47.0015L189.094 47.7516L185.666 54.2876L179.531 64.8417L164.236 90.9591L162.763 93.6378L162.12 94.736L158.879 100.629L150.012 115.951L148.512 118.63L147.708 120.05L146.316 122.434L145.432 123.961L144.119 126.211L143.664 127.014L143.181 127.818L141.949 129.988L140.931 131.729L139.726 133.792L138.628 135.693L137.476 137.702L136.297 139.738L135.145 141.694L133.86 143.917L132.761 145.846L132.065 147.024L131.368 148.23L130.27 150.132L128.797 152.676L127.699 154.552L117.841 171.615L116.743 173.463L113.341 178.928C112.641 180.123 111.734 181.185 110.662 182.062C110.291 182.369 109.897 182.646 109.483 182.892C108.647 183.416 107.747 183.83 106.805 184.124C104.596 184.916 102.182 184.916 99.9739 184.124L88.7234 179.731L85.6161 178.526L75.5977 174.669L72.1422 173.302L64.3204 170.168L61.4006 169.017L54.6503 166.338L53.3645 165.829L52.0787 165.347L45.8105 162.909L43.4801 161.998L35.31 158.864L29.9526 156.802L27.6221 155.918C27.426 155.859 27.2373 155.778 27.0596 155.677H26.8721L26.5239 155.489H26.3364L25.9881 155.275H25.8274L25.4256 154.953L25.2649 154.819L24.9434 154.203L24.7559 153.989L24.5952 153.828L24.3809 153.587V153.453C24.1505 153.139 23.9446 152.808 23.7648 152.462L23.6041 152.087C23.3887 151.547 23.2534 150.979 23.2023 150.4C23.0341 149.707 22.9978 148.989 23.0951 148.283Z" fill="white"/>
<path d="M52.3198 111.719C52.0251 112.282 51.7304 112.844 51.4626 113.407L50.659 115.121C49.8286 116.889 49.1053 118.684 48.4356 120.478C46.4316 125.849 45.1437 131.46 44.6051 137.167C44.4801 138.613 44.3997 140.06 44.364 141.506C44.364 141.855 44.364 142.203 44.364 142.551C44.364 142.872 44.364 143.194 44.364 143.515V143.703C44.364 143.997 44.364 144.292 44.364 144.614V144.801V145.926L45.6498 161.275L51.6233 163.606L48.9446 152.676L48.7035 151.551C48.6936 151.382 48.6936 151.212 48.7035 151.042C48.7035 150.828 48.7035 150.641 48.7035 150.426C48.7035 150.212 48.7035 149.998 48.5696 149.757C48.4356 149.516 48.5696 149.489 48.5696 149.355C48.5696 149.221 48.5696 148.846 48.4356 148.605V147.882V147.426V146.649C48.4356 146.649 48.4356 146.382 48.4356 146.221V145.364C48.4356 145.364 48.4356 145.149 48.4356 145.042V143.864V142.605C48.4356 142.23 48.4356 141.828 48.4356 141.426V141.185C48.4356 140.863 48.4356 140.542 48.4356 140.221V139.845C48.4356 139.551 48.4356 139.229 48.4356 138.908V138.506C48.4356 138.185 48.4356 137.863 48.4356 137.542V137.167C48.4356 136.819 48.4356 136.47 48.4356 136.122V135.935C48.4356 135.345 48.4356 134.729 48.4356 134.113C48.4356 133.497 48.5696 132.908 48.6499 132.292C48.6499 131.783 48.6499 131.274 48.8642 130.791V130.604C49.025 129.586 49.2125 128.568 49.4268 127.55V127.363C49.6411 126.318 49.8821 125.3 50.15 124.282L50.5518 122.836L51.034 121.282L51.5162 119.836V119.648C51.8644 118.63 52.2394 117.639 52.6144 116.648V116.434C52.9894 115.442 53.418 114.451 53.8466 113.46V113.246C54.0609 112.817 54.2484 112.362 54.4627 111.933V111.773C54.677 111.264 54.9181 110.782 55.1592 110.299V110.139C55.3735 109.71 55.5878 109.281 55.8289 108.853L55.9628 108.612C56.2039 108.103 56.4718 107.621 56.7396 107.139L57.5165 105.746L57.6772 105.478C57.945 105.022 58.2129 104.54 58.5076 104.085C58.7754 103.603 59.0701 103.147 59.3648 102.665L59.5523 102.397C59.7934 101.995 60.0612 101.594 60.3291 101.192L60.463 101.004C60.7577 100.549 61.0523 100.094 61.3738 99.6381L61.5345 99.3971L62.3381 98.2452L62.5524 97.9506L63.5167 96.6112V96.4773L64.4275 95.2986L64.6686 94.9772L65.6865 93.6914L66.7312 92.4056L66.9991 92.0842L67.9366 90.9859L68.1241 90.7716C68.4724 90.343 68.8474 89.9412 69.2224 89.5126L69.4903 89.218L70.4814 87.8786L70.776 87.5572L71.9279 86.3518L72.1422 86.1375L73.1333 85.1196L73.4815 84.7713L74.6869 83.5659L72.5976 85.4678L72.4368 85.6285C71.7672 86.2446 71.0975 86.8607 70.4546 87.5036C69.0885 88.843 67.7759 90.1823 66.4633 91.6288C60.8881 97.6332 56.1241 104.342 52.293 111.585L52.3198 111.719Z" fill="white"/>
<path d="M98.4201 48.7696H100.268H100.938H102.251H107.313H108.813H109.805H110.206C111.867 48.9035 113.474 49.0642 115.055 49.2518C115.832 49.2518 116.582 49.466 117.332 49.5732H117.466C118.885 49.8143 120.305 50.1089 121.698 50.4304L122.395 50.5911L123.787 50.9661L124.457 51.1268L125.823 51.5287H126.198H126.52L127.029 51.6894L128.475 52.1983L126.6 51.3947L126.279 51.4483H126.064L124.698 50.9125L124.296 50.7786H124.029L122.85 50.3768H122.609H122.368H122.046L121.377 49.8143C113.544 47.5934 105.397 46.6882 97.2683 47.1356L96.0093 48.8499L98.313 48.6624L98.4201 48.7696Z" fill="white"/>
<path d="M98.9022 51.6894H99.1433H100.402H100.858H102.09H102.465H106.724H108.304C110.233 51.6894 112.162 51.6894 114.037 51.9304H114.305L115.885 52.0644H116.287L117.653 52.2251H118.162L119.448 52.4126H119.769L121.43 52.7073H121.644L123.466 53.0555C121.135 52.4126 118.725 51.8769 116.26 51.4483L114.573 51.2072L112.59 50.9661C109.754 50.6415 106.901 50.4805 104.045 50.4839H101.635H99.7058H99.438L95.0181 50.8054L93.8931 52.3858L96.2235 52.0644L98.9022 51.6894Z" fill="white"/>
<path d="M72.9189 83.0571L75.2226 81.0213C75.9994 80.3516 76.7763 79.682 77.5799 79.0391L76.3745 79.9766L75.5441 80.5927L73.535 82.1732C72.1153 83.2982 70.8563 84.4768 69.4098 85.6555L67.749 87.9592C69.383 86.2984 71.0974 84.6643 72.8653 83.0571H72.9189Z" fill="white"/>
<path d="M77.1244 77.4048L81.0354 74.7261L77.4727 77.0298L74.1243 79.3334L73.3743 80.3781C74.5797 79.4138 75.8387 78.4495 77.1244 77.5119V77.4048Z" fill="white"/>
<path d="M94.0272 167.704L93.7325 167.49C93.2504 167.168 92.795 166.847 92.3664 166.499H92.2325L91.0003 165.561H90.8395L89.5538 164.516L89.2323 163.954L87.9733 162.856L86.7947 161.784L86.5536 161.516L85.375 160.391L85.1875 160.177L83.8749 159.052L82.7766 157.847L82.5623 157.605L81.5176 156.373L80.5533 155.168V154.98L79.589 153.695L79.2943 153.239C78.6514 152.364 78.0353 151.471 77.446 150.56L76.6156 149.168C76.321 148.685 76.0531 148.203 75.812 147.748L75.062 146.301C74.553 145.31 74.0976 144.319 73.669 143.301L73.0262 141.748C72.5976 140.703 72.2225 139.631 71.8743 138.56C71.5261 137.488 71.2314 136.39 70.9368 135.292L70.535 133.631C70.2939 132.506 70.0796 131.381 69.9189 130.229C69.651 128.443 69.4635 126.657 69.3563 124.872C69.3563 123.693 69.3563 122.514 69.3563 121.336C69.3563 120.157 69.3563 119.059 69.3563 117.907C69.3563 117.345 69.3563 116.755 69.4903 116.193L69.651 114.532C69.651 113.996 69.7849 113.46 69.8653 112.925V112.684L70.1064 111.157C70.1064 110.648 70.2939 110.112 70.401 109.603C70.3882 109.487 70.3882 109.371 70.401 109.255C70.401 108.719 70.6153 108.21 70.7493 107.701C70.535 108.344 70.3474 109.014 70.1867 109.657L69.9456 110.567L69.7046 111.612C69.7046 112.014 69.5171 112.416 69.4367 112.844L69.276 113.541C69.276 114.023 69.0885 114.505 69.0081 114.96V115.443L68.767 117.023C68.767 117.023 68.767 117.237 68.767 117.345C68.767 117.907 68.6331 118.47 68.5527 119.059V118.416C68.5527 119.005 68.4188 119.621 68.3652 120.211C68.3652 120.854 68.3652 121.47 68.3652 122.086C68.2578 124.147 68.2578 126.212 68.3652 128.274C68.3336 130.348 68.4141 132.423 68.6063 134.488C68.8206 135.694 69.0617 136.899 69.3563 138.078C69.5171 138.747 69.7046 139.417 69.8921 140.087C69.8833 140.212 69.8833 140.337 69.8921 140.462C69.8921 140.837 70.1064 141.212 70.2403 141.587V141.855C70.6421 143.114 71.0975 144.346 71.6064 145.578C71.6064 145.578 71.6064 145.873 71.794 146.033C71.9815 146.194 72.0886 146.757 72.2493 147.105V147.319C72.4636 147.775 72.6511 148.23 72.8922 148.685C73.7556 150.486 74.7308 152.23 75.812 153.909C75.9212 154.115 76.0466 154.312 76.187 154.498C76.9103 155.623 77.6603 156.695 78.4639 157.766L78.9193 158.355C79.1277 158.644 79.3512 158.921 79.589 159.186L80.1515 159.909C80.2844 160.054 80.4096 160.206 80.5265 160.365L81.7587 161.757L82.0266 162.052L83.0713 163.15L83.5267 163.606L84.5178 164.57L84.9196 164.999L86.3393 166.311L96.1702 174.669L105.706 182.973C108.02 182.466 110.079 181.157 111.519 179.276L95.4469 168.561L94.0272 167.704Z" fill="white"/>
<path d="M179.853 50.1625C179.84 50.3855 179.84 50.6091 179.853 50.8321C179.853 51.0196 179.853 51.2071 179.853 51.3947C179.853 51.5822 179.853 52.0375 179.665 52.359C179.65 52.5104 179.65 52.663 179.665 52.8144L179.424 53.7787C179.424 54.1805 179.237 54.5823 179.13 54.9841C174.719 71.7011 166.318 87.0979 154.646 99.8524C158.399 96.0633 161.872 92.0079 165.04 87.7179L176.987 67.1722C177.71 65.5382 178.406 63.8774 179.022 62.2166C179.183 61.788 179.344 61.3862 179.478 60.9576C179.933 59.6986 180.362 58.4664 180.737 57.2074L181.139 55.8949C181.123 55.7435 181.123 55.5909 181.139 55.4395L181.38 54.5823V54.4484L181.54 53.9394C181.54 53.6716 181.54 53.4305 181.728 53.1894V53.0555C181.76 52.8651 181.805 52.6772 181.862 52.4929C181.912 52.2487 181.974 52.0073 182.049 51.7697C182.049 51.475 182.049 51.1804 182.237 50.9125C182.25 50.761 182.25 50.6086 182.237 50.4571C182.237 50.2696 182.237 50.0821 182.371 49.8946C182.532 49.2517 182.665 48.582 182.799 47.9123C182.799 47.7248 182.799 47.5105 182.799 47.2962C182.933 46.573 183.067 45.8497 183.174 45.1265V44.5907C183.252 44.2106 183.306 43.8259 183.335 43.4389V42.8764C183.335 42.0192 183.549 41.162 183.657 40.1977C183.657 39.6619 183.657 39.1262 183.791 38.6172C183.791 38.1351 183.791 37.6529 183.791 37.1707V36.9564C183.791 36.5011 183.791 36.0725 183.791 35.6171V35.376C183.791 34.8671 183.791 34.3313 183.791 33.8224V31.4115L180.549 30.6079C180.549 31.0633 180.549 31.5455 180.549 32.0008V33.1795V33.3938C180.549 34.3313 180.549 35.2689 180.549 36.2064V37.4922C180.549 37.8136 180.549 38.1351 180.549 38.4565V38.6708C180.549 39.6887 180.549 40.7066 180.362 41.7513C180.362 41.7513 180.362 42.0192 180.362 42.1799V43.0371V43.4121C180.362 43.7871 180.362 44.1622 180.362 44.5104C180.362 44.8586 180.362 45.0729 180.362 45.3676C180.362 45.6622 180.362 45.9837 180.228 46.3051V46.5998L180.067 47.6445V47.9123L179.853 50.1625Z" fill="white"/>
<path d="M102.171 95.3253C102.294 95.9796 102.492 96.6177 102.76 97.2271L103.001 97.6825C104.03 99.5434 105.754 100.921 107.796 101.513C108.936 101.89 110.13 102.08 111.332 102.076C111.947 102.116 112.565 102.116 113.18 102.076H113.796L115.055 101.808C117.621 101.126 120.007 99.892 122.047 98.1915C124.129 96.426 125.74 94.1709 126.734 91.6286C126.734 91.4143 126.895 91.2268 126.949 91.0393C127.089 90.6723 127.205 90.2964 127.297 89.9143C127.712 88.5843 127.799 87.1737 127.552 85.8026C127.305 84.4314 126.73 83.1403 125.877 82.0389C125.553 81.6581 125.194 81.3083 124.806 80.9942C124.408 80.6715 123.977 80.3931 123.52 80.1638C123.203 79.9851 122.871 79.8328 122.529 79.7084L121.993 79.5209C121.431 79.3549 120.858 79.2296 120.279 79.1459H119.1C118.085 79.1206 117.071 79.2014 116.073 79.387C115.657 79.4478 115.245 79.5373 114.841 79.6548L113.609 80.0298C109.762 81.3355 106.444 83.8548 104.153 87.2088C103.5 88.2345 102.987 89.3425 102.626 90.5036C102.626 90.8786 102.412 91.2536 102.331 91.6019C102.133 92.48 102.061 93.382 102.117 94.2806C102.106 94.6297 102.124 94.9791 102.171 95.3253Z" fill="white"/>
<path d="M170.075 70.6276C169.191 72.7974 168.227 74.9671 167.182 77.1101L165.897 79.7888C165.441 80.646 164.986 81.5032 164.504 82.4675C163.78 83.7533 163.057 85.1462 162.28 86.2981C160.486 89.2446 158.503 92.1644 156.387 95.0038C157.673 93.4502 158.905 91.843 160.084 90.2358C162.433 87.0439 164.606 83.7263 166.593 80.2978C171.357 72.1358 174.895 63.3179 177.094 54.1268L177.415 52.7071C177.415 52.5732 177.415 52.4125 177.415 52.2785V51.8231C177.478 51.6933 177.549 51.568 177.629 51.4481V50.966V50.6445C177.629 50.2963 177.763 49.9213 177.817 49.573V49.2516L178.058 47.6979V47.4301V47.2693C178.058 47.1354 178.058 47.0015 178.058 46.8407V46.2782C178.071 46.0194 178.071 45.7602 178.058 45.5014V44.8853V44.1085C178.058 43.1441 178.245 42.2066 178.326 41.2423V40.9744C178.326 40.4119 178.326 39.8761 178.326 39.3136V39.1261C178.326 38.7511 178.326 38.4028 178.326 38.0546V37.8135C178.326 37.5456 178.326 37.2778 178.326 37.0367V36.4474V35.6438C178.326 34.6794 178.326 33.7419 178.326 32.8043V32.6972V31.4382C178.326 31.0096 178.326 30.581 178.326 30.1524L175.031 29.322L175.272 30.7685C175.272 31.1971 175.272 31.6525 175.46 32.1347C175.46 33.099 175.674 34.0633 175.727 35.0544C175.742 35.2059 175.742 35.3584 175.727 35.5098C175.727 35.8045 175.727 36.0724 175.727 36.3938C175.741 36.5811 175.741 36.7691 175.727 36.9563C175.727 37.2242 175.727 37.4921 175.727 37.7599C175.727 38.0278 175.727 38.135 175.727 38.3225V41.0012C175.714 41.1884 175.714 41.3764 175.727 41.5637C175.74 41.7421 175.74 41.9211 175.727 42.0994V42.4477C175.727 42.6084 175.727 42.7691 175.727 42.9566V44.2692C175.742 44.3579 175.742 44.4484 175.727 44.5371C175.727 45.2335 175.727 45.93 175.54 46.6265C175.553 46.7332 175.553 46.8412 175.54 46.9479C175.54 47.2693 175.54 47.5908 175.54 47.8854V48.5283V49.1176C175.54 49.4659 175.54 49.8409 175.379 50.2159C175.219 50.5909 175.379 50.8588 175.379 51.1802C175.366 51.3049 175.366 51.4306 175.379 51.5553L175.218 52.4125L174.977 53.6447C173.906 59.4531 172.264 65.1417 170.075 70.6276Z" fill="white"/>
<path d="M119.903 19.7859L121.591 20.2145L123.145 20.643L123.627 20.8038L124.672 21.0984L125.234 21.2859L126.145 21.6074L126.734 21.8217L127.618 22.1431L128.181 22.3842L129.038 22.7324L129.6 22.9735L130.458 23.3485L130.966 23.5896L131.904 24.045L132.279 24.2325L133.592 24.929L135.118 25.8397L135.386 26.0005L136.672 26.8309H136.833L138.226 27.822L138.52 28.0363L139.645 28.9202L139.94 29.1613L141.226 30.2596L141.44 30.4471L142.485 31.4114C142.569 31.5227 142.668 31.6218 142.78 31.7061L143.931 32.9115L144.976 34.0901L145.244 34.4116C145.592 34.7866 145.887 35.1884 146.208 35.5902V35.7241L147.199 37.0635L148.164 38.0546L148.592 38.6975C148.76 38.9377 148.912 39.1883 149.048 39.4476C149.206 39.6698 149.349 39.9025 149.476 40.144L149.905 40.8405L150.467 41.8852V42.0727C150.476 42.1528 150.476 42.2336 150.467 42.3138L150.628 42.6084C150.816 42.9834 151.003 43.3585 151.164 43.7335C151.264 43.9156 151.353 44.1035 151.432 44.296L151.914 45.3675C151.965 45.5325 152.027 45.6937 152.101 45.8497C152.316 46.3586 152.53 46.8944 152.718 47.4301C153.253 48.8766 153.735 50.3767 154.137 51.9035C154.325 52.6 154.486 53.2965 154.646 53.9929L154.968 55.6001C155.345 57.558 155.623 59.5339 155.798 61.5201C155.798 62.7791 155.986 64.0381 156.012 65.3238V66.6364V65.3774C156.147 62.9506 156.147 60.5182 156.012 58.0913C156.012 56.5109 155.718 54.9572 155.477 53.4304C155.477 53.0554 155.477 52.6804 155.289 52.3053C155.021 50.7695 154.7 49.2963 154.325 47.8855C154.325 47.4569 154.084 47.0283 153.977 46.6265V46.4122C153.988 46.2875 153.988 46.1619 153.977 46.0372C153.977 45.8229 153.977 45.6086 153.789 45.3943V45.2603V44.9925V44.7246C153.789 44.5371 153.789 44.3764 153.602 44.2156C153.602 44.2156 153.602 43.9746 153.602 43.8674L153.36 43.2245V43.0906L152.878 41.8584L152.718 41.5369C152.584 41.2155 152.45 40.8941 152.289 40.5726V40.4119C152.279 40.3408 152.279 40.2687 152.289 40.1976C152.075 39.7154 151.834 39.26 151.619 38.8315L150.95 37.5725V37.4385C150.709 37.0099 150.441 36.5813 150.173 36.1527C149.61 35.2688 149.048 34.4116 148.405 33.474C148.164 33.1526 147.949 32.8312 147.708 32.5365C147.467 32.2418 147.226 31.9204 146.958 31.6257L145.485 30.6346C145.244 30.34 144.976 30.0453 144.708 29.7774L143.985 29.0006L143.262 28.2774C141.749 26.8258 140.128 25.4915 138.413 24.2861H138.253L137.449 23.67L137.128 23.4557L136.538 23.0807L136.136 22.8396L135.574 22.4914L135.092 22.2235L134.556 21.9288L134.047 21.6342L133.538 21.3663L132.922 21.0449L132.467 20.8306L131.743 20.4823L131.368 20.2948L130.243 19.8126L123.145 16.8125C121.31 17.2723 119.599 18.1322 118.135 19.3305L119.93 19.7859H119.903Z" fill="white"/>
<path d="M35.3099 157.177L35.9796 148.685L36.7028 139.497C36.7028 139.042 36.7028 138.587 36.8368 138.131C36.825 137.962 36.825 137.792 36.8368 137.622C36.8368 137.354 36.8368 137.06 36.8368 136.792V136.149C36.8368 135.908 36.8368 135.694 36.8368 135.452C36.8368 135.211 36.8368 134.97 36.8368 134.729C36.8368 134.488 36.8368 134.354 36.8368 134.167C36.8368 133.979 36.8368 133.631 36.9707 133.363V132.935C37.2118 131.809 37.4529 130.684 37.7475 129.559C37.8815 128.97 38.0422 128.407 38.2029 127.845L33.2473 134.649L29.2292 154.82L35.3099 157.177Z" fill="white"/>
<path d="M100.911 45.3677H103.804H105.546H106.429H108.063H108.947H110.099L111.198 45.5017H112.269L113.582 45.6892H113.769L115.028 45.8767H115.457C116.314 46.0374 117.144 46.1714 117.948 46.3589H118.189L119.18 46.5732L119.823 46.7339L120.493 46.8946L121.136 47.0553L122.207 47.35L122.743 47.5107C123.68 47.7786 124.618 48.0732 125.421 48.3947H125.582L126.68 48.7965L127.163 48.984L128.207 49.3858L129.145 49.7876L129.761 50.0555L130.243 50.2698L131.127 50.6984L131.475 50.8591L131.931 51.1002L133.565 51.9306L132.386 51.1805L132.118 51.0198L131.716 51.4484L131.288 51.1805L131.047 51.0466C130.887 50.9725 130.734 50.8828 130.591 50.7787L130.297 50.6448L129.975 50.4573L128.984 49.9215H128.77L127.859 49.493L127.511 49.3322L126.734 48.7697L125.85 48.3679L125.395 48.1804L125.073 48.0465L123.895 47.5911L123.037 47.2696C118.457 45.6454 113.7 44.5664 108.867 44.0552H108.358L106.456 43.8677H105.438H104.447H103.269H99.947L98.6077 45.716H100.858L100.911 45.3677Z" fill="white"/>
<path d="M151.566 104.835L153.307 103.335C155.021 101.862 156.682 100.308 158.289 98.7275L159.254 97.0667C156.843 99.665 154.271 102.344 151.566 104.835Z" fill="white"/>
<path d="M146.262 119.434L143.958 120.291C141.628 121.148 139.297 121.925 136.94 122.595C133.826 123.476 130.67 124.2 127.484 124.764L129.761 124.47L132.011 124.095C133.538 123.827 135.038 123.532 136.538 123.184C139.562 122.499 142.548 121.659 145.485 120.666L146.208 119.434H146.262Z" fill="white"/>
<path d="M147.628 21.9824L148.834 23.1878L149.101 23.4557L150.173 24.6611L150.414 24.929L151.244 25.9737C151.357 26.0867 151.456 26.2126 151.539 26.3487L152.45 27.5541L152.771 28.0095L153.414 28.9738C153.519 29.1064 153.609 29.2502 153.682 29.4024C153.87 29.6703 154.03 29.9382 154.191 30.206L154.459 30.6614L154.807 31.2507L155.102 31.7865C155.163 31.9258 155.234 32.0601 155.316 32.1883L155.611 32.724L156.28 34.0902L156.521 34.6527C156.682 35.0009 156.843 35.3492 156.977 35.6974L157.218 36.2331V36.4742L157.7 37.7064C157.7 37.8671 157.7 38.0279 157.888 38.2154L158.289 39.394L158.45 39.903L158.825 41.1619C158.825 41.4298 158.825 41.6977 159.039 41.9656C159.254 42.2334 159.2 42.662 159.307 43.037V43.2513V43.5192V43.8674L159.548 45.0729C159.559 45.2513 159.559 45.4302 159.548 45.6086V46.1175C159.548 46.4658 159.548 46.814 159.736 47.189V47.6176L159.977 49.4124L160.138 50.9124C160.843 59.0028 160.173 67.1542 158.155 75.0208L158.638 73.3868C158.798 72.851 158.932 72.3153 159.066 71.7795C159.352 70.7081 159.62 69.6366 159.87 68.5651L160.191 66.9579C160.736 64.3037 161.13 61.6207 161.37 58.9218C161.37 57.9574 161.531 57.0199 161.584 56.0555C161.638 55.0912 161.584 53.9662 161.584 52.9482C161.584 51.9303 161.584 50.9392 161.584 49.9481C161.584 49.5195 161.584 49.0909 161.584 48.6623C161.584 48.2337 161.584 48.3944 161.584 48.2605C161.584 48.1266 161.584 47.9926 161.584 47.8587C161.571 47.7072 161.571 47.5548 161.584 47.4033C161.57 47.2072 161.57 47.0102 161.584 46.814C161.571 46.6357 161.571 46.4566 161.584 46.2783V46.0908C161.571 45.9124 161.571 45.7334 161.584 45.555V44.9657C161.584 44.8318 161.584 44.6978 161.584 44.5371C161.584 44.3764 161.584 44.2692 161.584 44.1353C161.584 44.0014 161.584 43.8942 161.584 43.7603C161.584 43.6264 161.584 43.3049 161.584 43.0638C161.584 42.8227 161.584 42.8763 161.584 42.796V42.287V41.8584C161.584 41.6977 161.584 41.5102 161.584 41.3227V41.1352C161.584 40.8137 161.584 40.5191 161.37 40.1976V39.7958C161.37 39.394 161.182 38.9922 161.075 38.5904L160.379 38.0546C160.218 37.4653 160.031 36.876 159.87 36.2867L159.468 35.1081C159.468 35.1081 159.468 34.8938 159.468 34.7866C159.281 34.2509 159.093 33.7151 158.879 33.2062C158.664 32.6705 158.45 32.1615 158.209 31.6525C157.754 30.6346 157.245 29.6167 156.736 28.6524C156.736 28.6524 156.602 28.4113 156.521 28.2774C156.441 28.1434 156.254 27.7952 156.093 27.5541C155.957 27.2861 155.805 27.0267 155.638 26.7773L155.236 26.1344L154.593 25.1701L154.218 24.6611L153.334 23.4557L152.182 23.1611L147.628 21.9824Z" fill="white"/>
<path d="M65.5256 162.293L64.722 160.9L64.5077 160.525C64.3202 160.177 64.1327 159.856 63.972 159.507L63.6773 158.972L63.2219 158.034L62.9273 157.472C62.9273 157.123 62.6326 156.802 62.4987 156.48L62.1772 155.918L61.6951 154.766L61.5343 154.418L60.9718 152.971V152.757V152.57L60.5432 151.364L60.3825 150.828L60.0611 149.81L59.7664 149.141C59.7664 148.793 59.5521 148.444 59.4717 148.123L59.311 147.56C59.311 147.185 59.1503 146.81 59.0431 146.462C59.0556 146.302 59.0556 146.14 59.0431 145.98L58.7217 144.453V144.292C58.7217 143.81 58.5342 143.301 58.4538 142.819V142.337L58.2931 141.212V140.649C58.2931 140.301 58.2931 139.953 58.2931 139.605V138.988V137.944C58.3063 137.757 58.3063 137.569 58.2931 137.381C58.2931 136.979 58.2931 136.578 58.2931 136.176C58.2931 135.774 58.2931 135.881 58.2931 135.72C58.2931 135.292 58.2931 134.863 58.2931 134.408C58.2931 133.444 58.2931 132.479 58.2931 131.515V130.122C58.2931 128.675 58.5074 127.202 58.7217 125.729C58.7217 124.979 58.936 124.256 59.0699 123.506C59.0699 123.131 59.0699 122.756 59.2574 122.407C59.2574 122.032 59.3914 121.657 59.4717 121.282C59.7932 119.782 60.1414 118.309 60.5432 116.809C60.9718 115.336 61.4272 113.835 61.9629 112.362C62.3112 111.398 62.6862 110.407 63.0612 109.416C63.2487 108.933 63.4362 108.478 63.6505 107.996C64.0523 107.032 64.4809 106.094 64.9095 105.13C65.097 104.701 65.3113 104.299 65.4988 103.897V103.656C65.9631 102.746 66.4453 101.853 66.9453 100.978L67.0793 100.71L67.6954 99.6383C67.7478 99.5256 67.8106 99.418 67.8829 99.3169C68.365 98.4329 68.9008 97.5757 69.4365 96.6382L69.6776 96.2899C69.8651 95.9685 70.0794 95.647 70.2937 95.3256L70.5348 94.9506L71.3652 93.6648C71.017 94.147 70.6419 94.6291 70.2937 95.1381L70.1062 95.3792L69.1151 96.7721L68.9276 97.04C68.5793 97.5221 68.2579 98.0311 67.9364 98.5133L66.9989 99.9865V100.12L66.0881 101.621V101.862C65.7667 102.362 65.472 102.871 65.2042 103.388C64.5881 104.46 64.0255 105.531 63.463 106.603L62.6594 108.183C61.8558 109.844 61.1325 111.532 60.4629 113.219C59.7932 114.934 59.2039 116.648 58.6681 118.389C58.3735 119.327 58.1056 120.318 57.8645 121.282C57.5163 122.648 57.2216 123.961 56.9538 125.354C56.7127 126.693 56.4984 128.033 56.3377 129.399C56.3377 129.774 56.3377 130.149 56.2037 130.551C56.2037 130.952 56.2037 131.354 56.2037 131.756C56.2037 132.319 56.2037 132.881 56.2037 133.444C56.2037 134.408 56.2037 135.372 56.2037 136.337V137.247V137.408C56.2037 137.756 56.2037 138.078 56.2037 138.399V138.613C56.1896 138.756 56.1896 138.9 56.2037 139.042C56.1904 139.185 56.1904 139.328 56.2037 139.471V139.631C56.2037 139.631 56.2037 139.899 56.2037 140.006V140.971V141.185C56.2037 141.399 56.2037 141.587 56.2037 141.774V142.524C56.2037 142.953 56.2037 143.355 56.3377 143.757V143.971C56.3377 144.185 56.3377 144.399 56.3377 144.641V145.069V145.605V145.846L56.4984 146.73C56.4874 146.846 56.4874 146.962 56.4984 147.078L56.6591 147.882V148.257L56.9002 149.301V149.462C56.9002 149.73 57.0341 149.971 57.0877 150.239V150.4V150.721L57.2484 151.311V151.498V151.793C57.2484 151.98 57.2484 152.168 57.4359 152.382V152.623V152.864C57.4359 153.052 57.5699 153.239 57.6234 153.427V153.721V153.909L57.8109 154.498C57.8225 154.605 57.8225 154.713 57.8109 154.82L58.052 155.489C58.0631 155.587 58.0631 155.686 58.052 155.784L58.4538 156.802L63.0344 167.892L70.3473 170.731L65.5256 162.293Z" fill="white"/>
<path d="M114.198 151.016C111.872 150.172 109.592 149.206 107.367 148.123C104.666 146.809 102.061 145.305 99.572 143.622C98.5809 142.953 97.6434 142.283 96.7058 141.56C95.3129 140.515 94.0271 139.39 92.6878 138.238C91.8306 137.461 91.0002 136.658 90.1966 135.854C87.8141 133.376 85.6623 130.686 83.7677 127.818C80.6077 123.086 78.229 117.876 76.7227 112.389L76.3745 111.639L76.053 110.889C75.8646 110.48 75.7036 110.059 75.5708 109.63L75.169 108.371L74.8476 107.112C74.8476 107.112 74.8476 106.951 74.8476 106.871C74.8476 106.79 74.6601 106.04 74.5797 105.612L74.3386 107.299C74.3386 107.299 74.3386 107.54 74.3386 107.647C74.3386 108.21 74.2047 108.746 74.1511 109.308V109.469C74.1511 110.005 74.1511 110.54 74.1511 111.076V111.264C74.1511 111.853 74.1511 112.415 74.1511 113.005V113.058C74.1511 114.237 74.1511 115.416 74.1511 116.594C74.1511 117.8 74.1511 119.005 74.3386 120.184C74.3386 120.827 74.3386 121.496 74.5261 122.139C74.8412 124.763 75.3515 127.36 76.053 129.907C76.5569 131.812 77.1833 133.682 77.9281 135.506C78.1692 136.122 78.4371 136.765 78.7049 137.354C79.4868 139.193 80.3814 140.983 81.3836 142.712C82.0533 143.89 82.8033 145.042 83.5802 146.167L84.6784 147.694C85.9099 149.332 87.2241 150.905 88.6161 152.409C89.9717 153.866 91.4022 155.252 92.9021 156.561C94.5292 157.977 96.228 159.309 97.9916 160.552H98.1523L99.7863 161.65C100.938 162.427 102.144 163.15 103.403 163.847H103.59L105.679 164.972C106.296 165.293 106.912 165.615 107.555 165.909L116.528 170.195L126.225 153.534L123.171 152.917C120.145 152.465 117.148 151.83 114.198 151.016Z" fill="white"/>
<path d="M104.233 167.436H104.046L102.304 166.499L102.037 166.338C101.474 166.043 100.911 165.722 100.376 165.374H100.161L98.5542 164.382L98.2328 163.954L96.6256 162.882L94.9648 161.704L93.3843 160.498L91.911 159.293L90.5449 158.061L90.3306 157.9L88.9913 156.614H88.8573L87.518 155.275C86.6072 154.337 85.7232 153.346 84.8393 152.355L83.6606 150.909V150.748C83.2856 150.266 82.9106 149.784 82.5624 149.275V149.141L81.5177 147.614C80.7141 146.382 79.964 145.149 79.2676 143.89C79.0265 143.489 78.8122 143.087 78.5979 142.658C78.3032 142.096 78.0086 141.533 77.7407 140.971C77.4728 140.408 77.205 139.819 76.9639 139.256L76.2406 137.488C74.9146 134.801 73.8213 132.005 72.9726 129.131C72.8119 128.488 72.6779 127.845 72.544 127.202C71.9038 123.944 71.5453 120.637 71.4725 117.318C71.4725 116.353 71.4725 115.362 71.4725 114.371V114.21C71.4725 113.809 71.4725 113.407 71.4725 112.978C71.4594 112.871 71.4594 112.763 71.4725 112.657V111.291C71.4725 111.96 71.285 112.63 71.2047 113.3C71.1243 113.969 71.2047 114.023 71.2047 114.371C71.2047 114.719 71.2047 114.987 71.2047 115.282V116.755C71.2047 116.916 71.2047 117.077 71.2047 117.237C71.2047 117.827 71.2047 118.389 71.2047 118.978V119.193C71.2047 119.836 71.2047 120.452 71.2047 121.068C71.222 122.993 71.3472 124.916 71.5797 126.827C71.5797 127.39 71.7136 127.925 71.794 128.488V128.675L72.0351 130.149V130.39C72.0351 130.899 72.2226 131.408 72.3297 131.917C72.3297 131.917 72.3297 132.158 72.3297 132.292C72.4084 132.762 72.5157 133.227 72.6512 133.684V134.033C72.7851 134.488 72.8922 134.97 73.0262 135.426V135.667C73.8075 138.286 74.7743 140.846 75.9192 143.328L76.1603 143.864C76.321 144.212 76.5085 144.56 76.696 144.908L76.8835 145.31L77.8211 147.024V147.185C78.33 148.069 78.839 148.926 79.4015 149.864L79.8301 150.507L80.4194 151.391L80.9284 152.114L81.5177 152.918L81.8659 153.373C82.3213 153.989 82.8034 154.578 83.2856 155.168C83.4675 155.412 83.6643 155.644 83.8749 155.864L84.4375 156.507L85.1607 157.337L85.7768 157.98L86.5269 158.784L87.1697 159.4C87.4376 159.668 87.6787 159.936 87.9466 160.177L88.6162 160.793L88.9645 161.114L90.1163 162.132L91.0003 162.882L92.0986 163.766L92.6343 164.195C93.4111 164.784 94.1612 165.374 94.9648 165.936L96.7059 167.115L112.537 177.347L115.216 172.66L106.081 168.293L104.233 167.436Z" fill="white"/>
<path d="M79.2941 170.758L74.9814 165.588C74.6063 165.159 74.2581 164.704 73.8831 164.248L73.642 163.954L72.6777 162.695V162.507L71.633 161.275L71.4187 160.927L70.4811 159.561V159.373C70.2133 158.971 69.9722 158.543 69.7043 158.114L69.5436 157.846L68.74 156.453L68.606 156.185L67.8024 154.739C67.7527 154.643 67.708 154.545 67.6685 154.444C67.4274 153.962 67.1863 153.48 66.972 152.998L66.8113 152.676L66.2488 151.39V151.123C66.0345 150.614 65.847 150.131 65.6595 149.623C65.6035 149.52 65.5586 149.413 65.5255 149.301L65.0434 147.962V147.828V147.667L64.5612 146.194C64.5693 146.078 64.5693 145.961 64.5612 145.846L64.1594 144.426C64.0254 143.917 63.8915 143.408 63.7844 142.899C63.6772 142.39 63.7844 142.658 63.7844 142.524L63.4629 140.944C63.4629 140.408 63.2486 139.872 63.1683 139.336V138.988C63.1683 138.479 63.0075 137.943 62.954 137.434V137.167C62.954 136.658 62.954 136.149 62.7665 135.64C62.579 135.131 62.7665 135.399 62.7665 135.291C62.7665 134.756 62.7665 134.22 62.6325 133.657V132.104V131.809C62.6325 130.631 62.6325 129.452 62.6325 128.246C62.6325 127.63 62.6325 127.014 62.6325 126.425C62.6325 124.603 62.9004 122.755 63.1951 120.907C63.4629 119.032 63.8112 117.183 64.2665 115.308C64.6951 113.433 65.2309 111.558 65.8202 109.71C66.4095 107.862 66.8381 106.79 67.4006 105.344L67.9364 104.058V103.897C68.3382 102.986 68.74 102.076 69.1686 101.218L69.3293 100.897L69.8115 99.879C69.8846 99.7596 69.9473 99.6341 69.999 99.504L70.6686 98.1914L69.5972 100.013L68.606 101.834L67.6685 103.629C67.3738 104.218 67.0792 104.835 66.8113 105.451C66.5166 106.067 66.2488 106.683 65.9809 107.299C65.713 107.915 65.4452 108.558 65.2041 109.174L64.4808 111.076C64.2397 111.719 64.0255 112.389 63.8112 113.031C63.4629 114.076 63.1683 115.121 62.8736 116.166C62.7397 116.701 62.5789 117.264 62.445 117.826C62.1771 118.898 61.9628 119.969 61.7486 121.041C61.561 122.032 61.4003 123.05 61.2396 124.041V124.255C61.1057 125.246 60.9717 126.237 60.8914 127.229V127.443C60.8914 128.488 60.7306 129.505 60.7039 130.55C60.7039 131.166 60.7039 131.782 60.7039 132.372V132.693C60.7039 133.015 60.7039 133.336 60.7039 133.657C60.7039 134.14 60.7039 134.595 60.7039 135.077C60.7039 135.452 60.7039 135.8 60.7039 136.175V136.443C60.7039 136.952 60.7039 137.461 60.7039 137.97V138.345L60.8646 139.765C60.8646 140.22 60.9985 140.676 61.0789 141.104V141.345L61.32 142.738V142.926C61.32 143.06 61.32 143.167 61.32 143.301L61.4807 144.078C61.4807 144.345 61.4807 144.64 61.6682 144.908V145.069L61.8289 145.685V145.899C61.8289 146.167 61.9628 146.435 62.0164 146.703V146.917V147.078V147.238C62.1504 147.64 62.2575 148.042 62.3914 148.444V148.605V148.872C62.5254 149.328 62.6861 149.783 62.82 150.212C63.0075 150.667 63.1683 151.149 63.3558 151.632V151.765C63.5165 152.221 63.704 152.676 63.8915 153.132V153.373V153.56L64.2665 154.364V154.525L64.588 155.194L64.8023 155.676V155.81L65.2041 156.641V156.882V157.043L65.7934 158.141V158.302L65.9273 158.516L66.6774 159.855L73.4277 170.945L82.8032 174.588L79.2941 170.758Z" fill="white"/>
<path d="M124.484 140.863L122.555 140.542L120.171 140.113C117.206 139.532 114.28 138.763 111.412 137.81L110.046 137.328C108.01 136.595 106.028 135.792 104.099 134.917C100.928 133.443 97.8821 131.714 94.9915 129.747C98.1483 132.26 101.549 134.449 105.144 136.283L106.242 136.845L108.465 137.89L109.617 138.372L111.921 139.31L114.305 140.14L116.716 140.917C119.192 141.644 121.705 142.243 124.243 142.712C126.922 143.167 129.44 143.515 132.118 143.73L133.377 141.587H130.19C128.261 141.319 126.359 141.105 124.484 140.863Z" fill="white"/>
<path d="M122.85 137.167C121.644 137.006 120.466 136.845 119.287 136.631C118.109 136.417 116.957 136.203 115.805 135.961C112.965 135.325 110.165 134.52 107.421 133.551L105.572 132.881L103.751 132.131C102.536 131.613 101.358 131.077 100.215 130.524C102.072 131.607 103.986 132.59 105.947 133.47L107.956 134.354C115.632 137.488 123.784 139.3 132.065 139.712H134.422L135.574 137.729C131.324 137.864 127.071 137.676 122.85 137.167Z" fill="white"/>
<path d="M123.252 134.059L121.377 133.872C120.011 133.738 118.698 133.551 117.359 133.363C113.425 132.793 109.545 131.897 105.76 130.684C109.94 132.368 114.273 133.642 118.698 134.488C119.984 134.729 121.377 134.943 122.609 135.131L124.591 135.372C125.931 135.533 127.27 135.64 128.636 135.72C130.002 135.801 131.315 135.72 132.708 135.72H136.86L137.904 133.926C135.065 134.193 132.279 134.327 129.493 134.327C127.404 134.309 125.323 134.22 123.252 134.059Z" fill="white"/>
<path d="M20.3627 183.241C19.2247 182.809 18.2185 182.089 17.4429 181.151C17.7339 182.046 18.2218 182.865 18.8709 183.546C19.5199 184.227 20.3134 184.755 21.1931 185.089C21.4135 184.661 21.6641 184.249 21.9431 183.857L20.3627 183.241Z" fill="white"/>
<path d="M213.926 53.4035L215.748 53.8321C216.354 52.7825 216.655 51.5844 216.617 50.3728C216.579 49.1613 216.204 47.9843 215.533 46.9746C215.686 47.929 215.641 48.9048 215.399 49.8408C215.18 50.9174 214.781 51.9497 214.221 52.8945L213.926 53.4035Z" fill="white"/>
<path d="M210.337 42.2604L209.908 43.0105L211.783 43.4658C212.365 42.4249 212.656 41.2472 212.628 40.0553C212.6 38.8634 212.253 37.7009 211.623 36.6887C211.821 38.637 211.369 40.5961 210.337 42.2604Z" fill="white"/>
<path d="M17.7914 173.169L16.452 172.633C15.2202 172.172 14.1432 171.374 13.3447 170.329C13.5564 171.281 13.9891 172.17 14.6081 172.924C15.227 173.678 16.0147 174.276 16.9074 174.669C17.1354 174.199 17.4043 173.751 17.711 173.329L17.7914 173.169Z" fill="white"/>
</g>
<defs>
<filter id="filter0_d_238_1401" x="0" y="0" width="227.878" height="242" filterUnits="userSpaceOnUse" color-interpolation-filters="sRGB">
<feFlood flood-opacity="0" result="BackgroundImageFix"/>
<feColorMatrix in="SourceAlpha" type="matrix" values="0 0 0 0 0 0 0 0 0 0 0 0 0 0 0 0 0 0 127 0" result="hardAlpha"/>
<feOffset dy="4"/>
<feGaussianBlur stdDeviation="4"/>
<feComposite in2="hardAlpha" operator="out"/>
<feColorMatrix type="matrix" values="0 0 0 0 0.384314 0 0 0 0 0.462745 0 0 0 0 0.462745 0 0 0 0.4 0"/>
<feBlend mode="normal" in2="BackgroundImageFix" result="effect1_dropShadow_238_1401"/>
<feBlend mode="normal" in="SourceGraphic" in2="effect1_dropShadow_238_1401" result="shape"/>
</filter>
</defs>
</svg>
