<svg width="206" height="178" viewBox="0 0 206 178" fill="none" xmlns="http://www.w3.org/2000/svg">
<path d="M140.86 175.176C141.604 175.508 141.938 176.381 141.606 177.125C141.274 177.87 140.401 178.204 139.657 177.871C128.088 172.69 115.257 166.9 102.666 160.981C102.563 160.933 102.455 160.933 102.351 160.981C89.7605 166.9 76.9302 172.69 65.3611 177.871C64.6168 178.204 63.744 177.87 63.4118 177.125C63.0796 176.381 63.4137 175.508 64.158 175.176C74.859 170.383 86.6449 165.067 98.3317 159.604C98.4647 159.542 98.5447 159.417 98.5452 159.27C98.5456 159.123 98.4663 158.997 98.3337 158.934C93.1745 156.485 88.0853 154.022 83.1711 151.581C75.1568 147.598 67.5965 143.665 60.9362 139.922C60.8452 139.871 60.7481 139.861 60.6482 139.891C52.5847 142.317 45.0661 144.457 38.6943 146.122C37.9053 146.326 37.0998 145.853 36.8954 145.064C36.691 144.274 37.1649 143.469 37.9539 143.265C43.3959 141.842 49.6853 140.07 56.4414 138.066C56.586 138.023 56.6855 137.905 56.7036 137.756C56.7218 137.606 56.6534 137.468 56.5233 137.392C49.9483 133.538 44.49 129.933 40.6755 126.74C36.0375 122.859 30.9538 114.661 25.8563 106.44C22.3657 100.811 18.8683 95.1713 15.5596 91.0071C15.4086 90.817 15.2627 90.6344 15.122 90.4581C12.1992 86.7976 11.2875 85.6559 10.9098 78.1061C10.9071 78.0496 10.9078 77.9937 10.9114 77.9385L10.9098 77.9384L11.0082 76.4817C11.0121 76.4242 11.0043 76.3742 10.9831 76.3206C10.0931 74.0699 8.53646 70.8377 6.88475 67.4081C4.06028 61.5435 0.963719 55.1141 0.236334 51.5547C-0.0250941 50.2755 -0.174133 46.0896 0.361865 42.4166C0.618628 40.6571 1.03383 38.9736 1.67026 37.6897C2.4738 36.069 3.63168 35.0201 5.26292 34.9875C5.77444 34.9774 6.30474 35.0753 6.8534 35.2965C11.0587 36.9917 11.0494 40.2197 11.0379 44.2248C11.037 44.5647 11.036 44.9112 11.0381 45.2636C11.0482 46.9266 11.4603 48.9694 12.0843 51.0725C12.3928 52.1121 12.7524 53.1609 13.1409 54.183C13.1877 54.306 13.2867 54.3894 13.4159 54.4147C13.5451 54.44 13.6682 54.4 13.7579 54.3037L14.202 53.8266C14.2589 53.7656 14.2903 53.6968 14.2992 53.6138L16.7493 30.7553C16.757 30.6828 16.7698 30.6121 16.7874 30.5436C16.7887 30.5385 16.7897 30.534 16.7908 30.5288C17.2278 28.4701 17.9938 26.7865 18.9485 25.6038C19.5728 24.8305 20.2885 24.253 21.063 23.8997C21.9127 23.512 22.8121 23.3963 23.7245 23.5849C24.4577 23.7364 25.1764 24.0788 25.8575 24.6286C28.5511 26.8031 27.8234 33.683 26.9364 39.1541C26.9099 39.3176 26.9902 39.4729 27.139 39.5458C27.2878 39.6186 27.4598 39.5868 27.5727 39.4655L28.2178 38.7727C29.6727 37.21 31.2265 36.1476 32.6849 35.6223C33.6251 35.2836 34.5348 35.1601 35.3718 35.2592C36.2973 35.3689 37.1268 35.7385 37.8126 36.377C38.355 36.8821 38.7901 37.5491 39.0898 38.3812C40.0012 40.9114 38.3452 43.956 36.2034 46.7505C36.4966 46.6359 36.7931 46.5233 37.0931 46.4122C37.1015 46.4091 37.1085 46.4062 37.1166 46.4026C37.9482 46.0278 38.9424 45.7041 39.9148 45.6154C40.6517 45.5482 41.3793 45.6185 42.0377 45.8958C42.79 46.2129 43.4062 46.7602 43.7951 47.6147C43.9861 48.0346 44.1159 48.5357 44.17 49.1293C44.3758 51.385 44.194 52.9544 43.4069 54.3023C42.6281 55.6361 41.3529 56.5866 39.3586 57.6255C36.742 58.9887 34.922 60.7946 32.9029 62.798C32.3267 63.3698 31.7352 63.9567 31.126 64.5362C30.535 65.0984 29.6001 65.0751 29.0379 64.4841C28.4757 63.8932 28.499 62.9582 29.0899 62.396C29.7077 61.8083 30.2715 61.249 30.8206 60.7042C33.0166 58.5252 34.9961 56.561 37.9935 54.9995C39.4869 54.2215 40.4005 53.5803 40.8503 52.81C41.2918 52.0539 41.3786 51.0066 41.2316 49.3954C41.2109 49.1682 41.1653 48.9853 41.0996 48.841C41.0443 48.7194 40.9727 48.6483 40.8924 48.6144C40.7181 48.541 40.4679 48.5277 40.1809 48.5538C39.5879 48.6079 38.9066 48.8414 38.3071 49.1142L38.3063 49.1123C38.2727 49.1276 38.2383 49.1417 38.203 49.1547C36.8185 49.6651 35.5179 50.2048 34.2632 50.8579C33.0265 51.5016 31.8414 52.2514 30.6738 53.1875C30.3505 53.4466 29.7883 54.1394 29.3116 54.727C29.0292 55.075 28.7712 55.3929 28.5987 55.5845L22.4027 62.4624C22.1373 62.7569 21.9367 63.0564 21.8183 63.3606C21.7095 63.6401 21.6619 63.9461 21.6884 64.2831L23.1204 82.4695C23.1843 83.2841 22.5757 83.9963 21.7611 84.0602C20.9465 84.124 20.2343 83.5155 20.1704 82.7009L18.7384 64.5145C18.6763 63.725 18.7957 62.9879 19.065 62.2963C19.3247 61.6293 19.7137 61.0291 20.2046 60.4842L26.4007 53.6063C26.5868 53.3996 26.7941 53.1442 27.021 52.8645C27.5361 52.2296 28.1346 51.492 28.6589 51.0244C28.6753 51.0098 28.6882 50.9962 28.7019 50.979C29.2011 50.353 29.8789 49.5963 30.6344 48.7527C33.3124 45.7629 37.0934 41.5415 36.3134 39.3761C36.1819 39.0112 36.0074 38.7337 35.7997 38.5404C35.592 38.347 35.3283 38.2336 35.0247 38.1976C34.6326 38.1512 34.1771 38.2196 33.6798 38.3987C32.6565 38.7673 31.5126 39.5703 30.3811 40.7856L25.6019 45.9189C25.5985 45.9225 25.5956 45.9257 25.5924 45.9295C25.5679 45.958 25.5423 45.9854 25.5158 46.0117C25.5123 46.0152 25.5094 46.0182 25.5061 46.0218L16.7924 55.381L16.7785 55.3959L15.8255 56.4194C15.6348 56.6242 15.4939 56.8318 15.4015 57.0454C15.3087 57.2595 15.2537 57.5047 15.2348 57.7843L13.8662 78.0402C13.8651 78.0556 13.865 78.0688 13.8658 78.0842C14.1985 84.5637 14.9759 85.5382 17.4357 88.6188C17.5764 88.795 17.7222 88.9776 17.8732 89.1677C21.2608 93.4312 24.8171 99.1662 28.3666 104.89C33.3324 112.898 38.2847 120.885 42.5727 124.473C46.8326 128.038 53.2411 132.156 61.0135 136.576C61.105 136.628 61.203 136.639 61.3038 136.608C73.4804 132.92 86.8144 128.606 99.2698 124.3C99.4236 124.247 99.5215 124.107 99.519 123.944C99.5164 123.782 99.4142 123.645 99.2588 123.597C89.4698 120.549 80.4524 117.555 73.2752 114.857C65.8483 112.066 60.3033 109.554 57.7627 107.567C56.1801 106.329 55.0199 104.112 53.5553 101.314C50.4795 95.4375 45.936 86.7571 33.8424 81.1754C29.2914 79.075 29.1238 74.8482 28.9543 70.5729C28.9254 69.843 28.8963 69.1111 28.8292 68.2832C28.7654 67.4686 29.3739 66.7564 30.1885 66.6926C31.0031 66.6287 31.7153 67.2373 31.7792 68.0519C31.8373 68.7691 31.8708 69.6141 31.9042 70.4571C32.0377 73.8217 32.1696 77.1481 35.0803 78.4915C35.7529 78.8019 36.4024 79.1214 37.0318 79.4482C37.0759 79.4711 37.1174 79.4834 37.1667 79.4882C39.9332 79.7565 40.9224 76.311 41.4396 73.4469C41.529 72.9516 41.6378 72.2284 41.7358 71.5766C41.8656 70.7138 41.9751 69.9858 42.134 69.4118C43.8369 63.2628 44.8254 61.5749 47.756 56.5705C48.414 55.4468 46.3986 58.8885 48.4245 55.4177L48.4279 55.4197C48.4549 55.3736 48.4845 55.3285 48.517 55.2846C49.4047 54.089 50.4117 53.3725 51.4311 53.0635C52.0913 52.8634 52.7438 52.8323 53.3672 52.9523C53.9827 53.0707 54.5634 53.3338 55.0888 53.7238C56.0249 54.4188 56.7771 55.5273 57.2018 56.9284L57.3235 57.3286C58.4171 60.9208 59.7034 65.146 57.4911 68.1166C54.6144 71.9795 54.7844 72.433 56.5159 77.0483L57.0891 78.5757L57.3892 79.3888C61.6037 90.8032 63.4475 95.7983 58.2504 103.25C58.162 103.377 58.1596 103.536 58.2443 103.665C58.6952 104.353 59.1325 104.892 59.5789 105.241C61.8616 107.027 67.1449 109.397 74.3164 112.093C82.6366 115.219 93.383 118.731 104.909 122.253C104.988 122.277 105.063 122.275 105.141 122.248C105.341 122.177 105.541 122.106 105.74 122.036C124.931 115.234 140.922 108.774 145.439 105.241C145.885 104.892 146.323 104.353 146.774 103.665C146.858 103.536 146.856 103.377 146.768 103.25C141.57 95.7983 143.414 90.8032 147.629 79.3888L147.929 78.5757L148.502 77.0483C150.234 72.433 150.404 71.9795 147.527 68.1166C145.315 65.146 146.601 60.9208 147.694 57.3286L147.816 56.9284C148.241 55.5273 148.993 54.4188 149.929 53.7238C150.455 53.3338 151.035 53.0707 151.651 52.9523C152.274 52.8323 152.927 52.8634 153.587 53.0635C154.606 53.3725 155.613 54.089 156.501 55.2846C156.533 55.3285 156.563 55.3736 156.59 55.4197L156.593 55.4177C158.619 58.8886 156.604 55.4468 157.262 56.5705C160.193 61.5749 161.181 63.2628 162.884 69.4118C163.043 69.9858 163.152 70.7138 163.282 71.5766C163.38 72.2284 163.489 72.9516 163.578 73.4469C164.096 76.311 165.085 79.7565 167.851 79.4882C167.901 79.4834 167.942 79.4711 167.986 79.4483C168.616 79.1215 169.265 78.8019 169.938 78.4915C172.848 77.1481 172.98 73.8217 173.114 70.4571C173.147 69.6141 173.181 68.7691 173.239 68.0519C173.303 67.2373 174.015 66.6287 174.829 66.6926C175.644 66.7564 176.253 67.4686 176.189 68.2832C176.122 69.1111 176.093 69.843 176.064 70.5729C175.894 74.8482 175.726 79.075 171.175 81.1754C159.082 86.7571 154.538 95.4375 151.463 101.314C149.998 104.112 148.838 106.329 147.255 107.567C142.804 111.048 128.44 117 110.845 123.35C110.692 123.405 110.595 123.546 110.6 123.708C110.605 123.871 110.708 124.006 110.864 124.053C118.494 126.336 126.407 128.617 134.122 130.786C138.684 132.069 143.147 133.304 147.419 134.471C147.519 134.498 147.615 134.485 147.705 134.432C153.815 130.824 158.882 127.455 162.445 124.473C166.733 120.885 171.686 112.898 176.651 104.89C180.201 99.1662 183.757 93.4312 187.145 89.1677C187.296 88.9776 187.442 88.795 187.582 88.6188C190.042 85.5382 190.819 84.5637 191.152 78.0842C191.153 78.0688 191.153 78.0556 191.152 78.0402L189.783 57.7843C189.764 57.5047 189.709 57.2595 189.616 57.0454C189.524 56.8318 189.383 56.6243 189.192 56.4194L188.239 55.3959L188.226 55.381L179.512 46.0217C179.508 46.0182 179.506 46.0152 179.502 46.0118C179.476 45.9854 179.45 45.958 179.426 45.9295C179.422 45.9257 179.419 45.9225 179.416 45.9189L174.637 40.7856C173.505 39.5703 172.361 38.7673 171.338 38.3987C170.841 38.2196 170.385 38.1512 169.993 38.1976C169.69 38.2336 169.426 38.347 169.218 38.5404C169.011 38.7337 168.836 39.0112 168.705 39.3761C167.925 41.5415 171.706 45.7629 174.383 48.7527C175.139 49.5963 175.817 50.353 176.316 50.979C176.33 50.9962 176.343 51.0098 176.359 51.0244C176.883 51.492 177.482 52.2296 177.997 52.8645C178.224 53.1442 178.431 53.3996 178.617 53.6063L184.813 60.4842C185.304 61.0291 185.693 61.6293 185.953 62.2963C186.222 62.9879 186.342 63.725 186.279 64.5145L184.847 82.7009C184.784 83.5155 184.071 84.124 183.257 84.0602C182.442 83.9963 181.834 83.2841 181.898 82.4695L183.33 64.2831C183.356 63.9461 183.308 63.6401 183.2 63.3606C183.081 63.0564 182.881 62.7569 182.615 62.4624L176.419 55.5845C176.247 55.3929 175.989 55.075 175.706 54.727C175.23 54.1394 174.667 53.4466 174.344 53.1875C173.177 52.2514 171.991 51.5016 170.755 50.8579C169.5 50.2048 168.199 49.6651 166.815 49.1547C166.78 49.1417 166.745 49.1276 166.712 49.1123L166.711 49.1142C166.111 48.8414 165.43 48.6079 164.837 48.5538C164.55 48.5277 164.3 48.541 164.126 48.6144C164.045 48.6483 163.974 48.7194 163.918 48.841C163.853 48.9853 163.807 49.1682 163.786 49.3954C163.639 51.0066 163.726 52.0539 164.168 52.81C164.617 53.5803 165.531 54.2215 167.024 54.9995C170.022 56.561 172.001 58.5252 174.197 60.7042C174.746 61.249 175.31 61.8083 175.928 62.396C176.519 62.9582 176.542 63.8932 175.98 64.4841C175.418 65.0751 174.483 65.0984 173.892 64.5362C173.283 63.9567 172.691 63.3698 172.115 62.798C170.096 60.7946 168.276 58.9887 165.659 57.6255C163.665 56.5866 162.39 55.6361 161.611 54.3023C160.824 52.9544 160.642 51.385 160.848 49.1293C160.902 48.5357 161.032 48.0346 161.223 47.6147C161.612 46.7602 162.228 46.2129 162.98 45.8958C163.639 45.6185 164.366 45.5482 165.103 45.6154C166.076 45.7041 167.07 46.0278 167.901 46.4025C167.909 46.4062 167.916 46.409 167.925 46.4121C168.225 46.5233 168.521 46.6359 168.815 46.7505C166.673 43.9561 165.017 40.9114 165.928 38.3812C166.228 37.5491 166.663 36.8821 167.205 36.377C167.891 35.7385 168.721 35.3689 169.646 35.2592C170.483 35.1601 171.393 35.2836 172.333 35.6223C173.791 36.1476 175.345 37.21 176.8 38.7727L177.445 39.4655C177.558 39.5868 177.73 39.6186 177.879 39.5458C178.028 39.4729 178.108 39.3176 178.082 39.1541C177.195 33.683 176.467 26.8031 179.16 24.6286C179.842 24.0788 180.56 23.7364 181.293 23.5849C182.206 23.3963 183.105 23.512 183.955 23.8997C184.729 24.253 185.445 24.8305 186.069 25.6038C187.024 26.7865 187.79 28.4701 188.227 30.5288C188.228 30.534 188.229 30.5384 188.231 30.5436C188.248 30.6122 188.261 30.6828 188.269 30.7553L190.719 53.6138C190.728 53.6968 190.759 53.7656 190.816 53.8266L191.26 54.3037C191.35 54.4 191.473 54.44 191.602 54.4147C191.731 54.3894 191.83 54.306 191.877 54.183C192.266 53.1609 192.625 52.1121 192.934 51.0725C193.558 48.9694 193.97 46.9266 193.98 45.2636C193.982 44.9112 193.981 44.5647 193.98 44.2248C193.969 40.2197 193.959 36.9917 198.165 35.2965C198.713 35.0753 199.243 34.9774 199.755 34.9875C201.386 35.0201 202.544 36.069 203.348 37.6897C203.984 38.9736 204.399 40.6571 204.656 42.4166C205.192 46.0896 205.043 50.2755 204.782 51.5547C204.054 55.1141 200.958 61.5435 198.133 67.4081C196.481 70.8377 194.925 74.0699 194.035 76.3206C194.014 76.3742 194.006 76.4242 194.01 76.4817L194.108 77.9384L194.107 77.9385C194.11 77.9937 194.111 78.0496 194.108 78.1061C193.73 85.6559 192.819 86.7976 189.896 90.4581C189.755 90.6344 189.609 90.817 189.458 91.0071C186.15 95.1713 182.652 100.811 179.162 106.44C174.064 114.661 168.98 122.859 164.342 126.74C161.282 129.302 157.162 132.13 152.257 135.138C152.128 135.217 152.063 135.357 152.084 135.506C152.106 135.656 152.208 135.772 152.354 135.811C157.145 137.105 161.627 138.295 165.654 139.347C166.443 139.551 166.917 140.357 166.712 141.146C166.508 141.935 165.702 142.409 164.913 142.204C159.887 140.891 154.199 139.377 148.138 137.728C148.039 137.701 147.943 137.714 147.854 137.766C140.339 142.141 131.416 146.826 121.847 151.581C116.933 154.022 111.843 156.485 106.684 158.934C106.552 158.997 106.472 159.123 106.473 159.27C106.473 159.417 106.553 159.542 106.686 159.604C118.373 165.067 130.159 170.383 140.86 175.176ZM99.3913 9.2102L102.049 11.8681C102.457 12.2763 102.997 12.4804 103.538 12.4804C104.079 12.4804 104.619 12.2763 105.028 11.8681L107.686 9.2102C108.094 8.802 108.298 8.26204 108.298 7.72097C108.298 7.17994 108.094 6.63998 107.686 6.23177L105.028 3.57385C104.619 3.16564 104.079 2.96152 103.538 2.96152C102.997 2.96152 102.457 3.16564 102.049 3.57385L99.3913 6.23177C98.9831 6.63998 98.779 7.17994 98.779 7.72097C98.779 8.26204 98.9831 8.802 99.3913 9.2102ZM99.9554 13.962L97.2975 11.3041C96.3108 10.3174 95.8175 9.0186 95.8175 7.72097C95.8175 6.42331 96.3108 5.12454 97.2975 4.13791L99.9554 1.47998C100.942 0.493352 102.241 0 103.538 0C104.836 0 106.135 0.493352 107.122 1.47998L109.779 4.13791C110.766 5.12454 111.259 6.42331 111.259 7.72097C111.259 9.0186 110.766 10.3174 109.779 11.3041L107.122 13.962C106.135 14.9486 104.836 15.4419 103.538 15.4419C102.241 15.4419 100.942 14.9486 99.9554 13.962ZM123.494 30.9788L126.152 28.3209C126.56 27.9127 126.764 27.3727 126.764 26.8317C126.764 26.2907 126.56 25.7507 126.152 25.3425L123.494 22.6846C123.086 22.2764 122.546 22.0723 122.005 22.0723C121.464 22.0723 120.924 22.2764 120.516 22.6846L117.858 25.3425C117.45 25.7507 117.246 26.2906 117.246 26.8317C117.246 27.3727 117.45 27.9127 117.858 28.3209L120.516 30.9788C120.924 31.387 121.464 31.5912 122.005 31.5912V31.5969C122.542 31.5969 123.082 31.3909 123.494 30.9788ZM128.246 30.4148L125.588 33.0727C124.605 34.0554 123.306 34.5469 122.005 34.5469V34.5527C120.707 34.5527 119.409 34.0593 118.422 33.0727L115.764 30.4148C114.777 29.4281 114.284 28.1293 114.284 26.8317C114.284 25.5341 114.777 24.2352 115.764 23.2486L118.422 20.5907C119.409 19.6041 120.707 19.1107 122.005 19.1107C123.303 19.1107 124.601 19.6041 125.588 20.5907L128.246 23.2486C129.233 24.2353 129.726 25.534 129.726 26.8317C129.726 28.1293 129.233 29.4281 128.246 30.4148ZM80.0895 28.512L82.7475 31.1699C83.1557 31.5781 83.6956 31.7822 84.2367 31.7822C84.7777 31.7822 85.3177 31.5781 85.7259 31.1699L88.3838 28.512C88.792 28.1038 88.9961 27.5638 88.9961 27.0228C88.9961 26.4817 88.792 25.9417 88.3838 25.5335L85.7259 22.8756C85.3177 22.4674 84.7777 22.2633 84.2367 22.2633C83.6956 22.2633 83.1557 22.4674 82.7475 22.8756L80.0895 25.5335C79.6813 25.9417 79.4772 26.4817 79.4772 27.0228C79.4772 27.5638 79.6813 28.1038 80.0895 28.512ZM80.6536 33.2638L77.9957 30.6058C77.009 29.6192 76.5157 28.3204 76.5157 27.0228C76.5157 25.7251 77.009 24.4263 77.9957 23.4397L80.6536 20.7818C81.6402 19.7951 82.9391 19.3018 84.2367 19.3018C85.5343 19.3018 86.8331 19.7951 87.8197 20.7818L90.4777 23.4397C91.4643 24.4263 91.9576 25.7251 91.9576 27.0228C91.9576 28.3204 91.4643 29.6192 90.4777 30.6058L87.8197 33.2638C86.8331 34.2504 85.5343 34.7437 84.2367 34.7437C82.9391 34.7437 81.6402 34.2504 80.6536 33.2638ZM104.192 50.2806L106.85 47.6227C107.258 47.2145 107.463 46.6745 107.463 46.1335C107.463 45.5925 107.259 45.0525 106.85 44.6443L104.192 41.9864C103.784 41.5782 103.244 41.3741 102.703 41.3741C102.162 41.3741 101.622 41.5782 101.214 41.9864L98.5561 44.6443C98.1479 45.0525 97.9437 45.5924 97.9437 46.1335C97.9437 46.6745 98.1479 47.2145 98.5561 47.6227L101.214 50.2806C101.622 50.6888 102.162 50.893 102.703 50.893C103.244 50.893 103.784 50.6888 104.192 50.2806ZM108.944 49.7165L106.286 52.3745C105.3 53.3611 104.001 53.8545 102.703 53.8545C101.406 53.8545 100.107 53.3611 99.1201 52.3745L96.4622 49.7166C95.4756 48.7299 94.9822 47.4311 94.9822 46.1335C94.9822 44.8359 95.4756 43.537 96.4622 42.5504L99.1201 39.8925C100.107 38.9059 101.406 38.4125 102.703 38.4125C104.001 38.4125 105.3 38.9059 106.286 39.8925L108.944 42.5504C109.931 43.5371 110.424 44.8359 110.424 46.1335C110.424 47.4311 109.931 48.7299 108.944 49.7165ZM148.854 99.9383C151.553 94.7811 155.319 87.595 163.878 81.8715C163.978 81.8047 164.035 81.7045 164.042 81.5846C164.049 81.4648 164.003 81.3587 163.912 81.2812C161.988 79.6534 161.157 76.6403 160.675 73.9675C160.52 73.1113 160.433 72.5349 160.355 72.0162C160.235 71.2185 160.134 70.5455 160.038 70.1984C158.436 64.4137 157.498 62.8119 154.717 58.0628C153.641 56.2253 155.556 59.5118 154.077 56.9781C154.068 56.9631 154.06 56.9509 154.049 56.9372C153.591 56.348 153.142 56.0107 152.731 55.8862C152.552 55.832 152.375 55.8235 152.206 55.856C152.029 55.89 151.854 55.9717 151.688 56.0953C151.247 56.422 150.875 57.0046 150.639 57.7845L150.517 58.1847C149.623 61.1218 148.571 64.5763 149.898 66.3582C153.732 71.5063 153.512 72.0942 151.267 78.0778C151.195 78.2684 151.12 78.4682 150.705 79.5937L150.405 80.4068C146.919 89.8488 145.215 94.4649 148.2 99.9437C148.267 100.067 148.388 100.138 148.529 100.137C148.669 100.136 148.789 100.063 148.854 99.9383ZM65.4933 139.075C71.3085 142.263 77.7283 145.577 84.4784 148.931C90.2565 151.802 96.2703 154.699 102.351 157.568C102.455 157.617 102.563 157.617 102.667 157.568C108.748 154.699 114.761 151.802 120.54 148.931C128.744 144.855 136.461 140.836 143.197 137.033C143.33 136.958 143.401 136.818 143.382 136.666C143.363 136.514 143.26 136.395 143.113 136.354C139.914 135.474 136.638 134.564 133.324 133.632C124.116 131.043 114.49 128.252 105.22 125.431C105.141 125.407 105.067 125.409 104.989 125.436C92.3299 129.892 78.4308 134.448 65.5626 138.397C65.4173 138.441 65.3184 138.562 65.303 138.713C65.2876 138.864 65.36 139.002 65.4933 139.075ZM192.861 59.4809L193.482 68.6696C193.493 68.8398 193.614 68.9762 193.782 69.0082C193.949 69.0402 194.112 68.9581 194.185 68.8041C194.601 67.933 195.033 67.0354 195.472 66.124C198.223 60.4134 201.238 54.1529 201.889 50.9647C202.112 49.8777 202.219 46.1908 201.729 42.8331C201.513 41.3523 201.183 39.9743 200.699 38.9969C200.381 38.3565 200.042 37.9443 199.697 37.9375C199.583 37.9352 199.44 37.9672 199.264 38.0382C196.915 38.985 196.922 41.3234 196.93 44.2248C196.931 44.5686 196.932 44.9191 196.93 45.2751C196.918 47.2524 196.46 49.572 195.768 51.9054C195.003 54.4819 193.948 57.1035 192.897 59.2958C192.868 59.356 192.857 59.4142 192.861 59.4809ZM182.032 44.3921L186.616 49.3155C186.726 49.4342 186.893 49.4674 187.041 49.4C187.188 49.3326 187.272 49.185 187.255 49.0238L185.339 31.1453C185.337 31.1318 185.335 31.1204 185.332 31.1071C184.996 29.5356 184.442 28.2901 183.767 27.4548C183.432 27.0392 183.08 26.7439 182.729 26.5835C182.452 26.4575 182.167 26.4185 181.883 26.477C181.613 26.5329 181.32 26.6813 181.011 26.9307C179.181 28.4085 180.614 36.5498 181.488 41.5179C181.671 42.5545 181.831 43.463 181.937 44.193C181.948 44.2708 181.978 44.3346 182.032 44.3921ZM56.8175 99.9437C59.8025 94.4649 58.099 89.8488 54.6128 80.4068L54.3127 79.5937C53.8976 78.4682 53.8226 78.2684 53.7511 78.0778C51.5062 72.0942 51.2857 71.5063 55.1196 66.3582C56.4466 64.5763 55.3949 61.1218 54.5008 58.1847L54.3791 57.7845C54.1427 57.0046 53.7705 56.422 53.3304 56.0953C53.1639 55.9717 52.9888 55.89 52.812 55.856C52.6431 55.8235 52.4662 55.832 52.2872 55.8862C51.8763 56.0107 51.4273 56.348 50.969 56.9372C50.9583 56.9509 50.95 56.9631 50.9413 56.9781C49.4625 59.5116 51.377 56.2253 50.301 58.0628C47.5199 62.8119 46.5819 64.4137 44.9799 70.1984C44.8838 70.5455 44.7825 71.2185 44.6626 72.0162C44.5846 72.5349 44.4979 73.1113 44.3433 73.9675C43.8606 76.6403 43.0294 79.6534 41.1062 81.2812C41.0146 81.3587 40.969 81.4648 40.9758 81.5846C40.9825 81.7045 41.0398 81.8047 41.1396 81.8715C49.6988 87.5951 53.4649 94.7811 56.1643 99.9383C56.2293 100.063 56.3491 100.136 56.4894 100.137C56.6296 100.138 56.7505 100.067 56.8175 99.9437ZM11.5361 68.6695L12.1569 59.4809C12.1614 59.4142 12.1502 59.356 12.1213 59.2958C11.0695 57.1035 10.0145 54.4819 9.25004 51.9054C8.55768 49.572 8.10016 47.2524 8.08813 45.2751C8.08598 44.9191 8.08698 44.5686 8.08794 44.2248C8.09631 41.3234 8.10301 38.985 5.75438 38.0382C5.57821 37.9672 5.43476 37.9352 5.32074 37.9375C4.97606 37.9443 4.63692 38.3565 4.31941 38.9969C3.83491 39.9743 3.50474 41.3523 3.28866 42.8331C2.79867 46.1908 2.90633 49.8777 3.12848 50.9647C3.78001 54.1529 6.79524 60.4134 9.54553 66.124C9.98446 67.0354 10.4168 67.933 10.8326 68.8041C10.9062 68.9581 11.0687 69.0402 11.2363 69.0082C11.4038 68.9761 11.5246 68.8398 11.5361 68.6695ZM18.4021 49.3155L22.986 44.3921C23.0395 44.3346 23.0701 44.2708 23.0814 44.193C23.1872 43.463 23.3472 42.5545 23.5297 41.5179C24.4041 36.5498 25.837 28.4085 24.0065 26.9307C23.6976 26.6813 23.4051 26.5329 23.1345 26.477C22.8514 26.4185 22.5655 26.4575 22.2893 26.5835C21.9378 26.7439 21.5861 27.0392 21.2507 27.4548C20.5763 28.2901 20.0222 29.5356 19.6855 31.1071C19.6826 31.1204 19.6808 31.1318 19.6794 31.1453L17.7631 49.0238C17.7458 49.185 17.8299 49.3326 17.9774 49.4C18.1249 49.4674 18.2916 49.4342 18.4021 49.3155Z" fill="white"/>
</svg>
