<svg width="228" height="168" viewBox="0 0 228 168" fill="none" xmlns="http://www.w3.org/2000/svg">
<path d="M156.481 164.929C157.306 165.291 157.676 166.24 157.308 167.049C156.94 167.858 155.973 168.221 155.149 167.86C142.334 162.226 128.122 155.931 114.175 149.494C114.06 149.442 113.94 149.442 113.826 149.494C99.8788 155.931 85.6668 162.226 72.8517 167.86C72.0273 168.221 71.0605 167.858 70.6925 167.049C70.3245 166.24 70.6946 165.291 71.519 164.929C83.3725 159.718 96.4277 153.938 109.373 147.997C109.52 147.93 109.609 147.793 109.61 147.634C109.61 147.474 109.522 147.337 109.375 147.269C103.661 144.605 98.0232 141.928 92.5798 139.273C83.7024 134.943 75.3279 130.666 67.9503 126.596C67.8495 126.541 67.742 126.529 67.6313 126.562C58.6994 129.2 50.3711 131.527 43.3131 133.337C42.4391 133.56 41.5469 133.044 41.3205 132.186C41.094 131.328 41.619 130.453 42.493 130.23C48.521 128.684 55.4877 126.757 62.9715 124.578C63.1316 124.531 63.2418 124.403 63.2619 124.24C63.2821 124.078 63.2062 123.927 63.0622 123.845C55.7791 119.655 49.7329 115.734 45.5077 112.263C40.3702 108.042 34.739 99.1281 29.0925 90.1896C25.226 84.0688 21.3519 77.9361 17.6869 73.408C17.5196 73.2014 17.3581 73.0028 17.2022 72.8112C13.9646 68.8309 12.9547 67.5894 12.5364 59.3802C12.5334 59.3187 12.5342 59.2579 12.5382 59.1979L12.5364 59.1978L12.6454 57.6138C12.6497 57.5513 12.6411 57.497 12.6176 57.4387C11.6318 54.9914 9.90745 51.4768 8.07786 47.7476C4.94921 41.3708 1.51917 34.3798 0.713446 30.5094C0.423864 29.1185 0.258774 24.5669 0.852495 20.5731C1.13691 18.66 1.59683 16.8293 2.3018 15.4333C3.19187 13.671 4.47444 12.5305 6.28136 12.4951C6.84798 12.484 7.43538 12.5906 8.04313 12.8311C12.7013 14.6743 12.691 18.1843 12.6783 22.5392C12.6773 22.9088 12.6762 23.2857 12.6785 23.6688C12.6897 25.4771 13.1462 27.6984 13.8374 29.9851C14.1791 31.1156 14.5774 32.256 15.0078 33.3673C15.0596 33.5011 15.1692 33.5918 15.3123 33.6193C15.4555 33.6468 15.5918 33.6033 15.6912 33.4985L16.1832 32.9798C16.2461 32.9134 16.2809 32.8387 16.2908 32.7484L19.0048 7.89314C19.0133 7.81436 19.0275 7.73748 19.0469 7.66301C19.0484 7.65738 19.0495 7.65254 19.0508 7.64683C19.5348 5.40838 20.3832 3.57769 21.4408 2.2917C22.1323 1.45078 22.9251 0.822882 23.783 0.438671C24.7243 0.0171455 25.7205 -0.108644 26.7311 0.0964025C27.5433 0.261157 28.3394 0.633412 29.0938 1.23124C32.0775 3.59572 31.2714 11.0766 30.2889 17.0256C30.2595 17.2034 30.3486 17.3723 30.5134 17.4515C30.6782 17.5307 30.8687 17.4961 30.9938 17.3643L31.7084 16.6109C33.3199 14.9117 35.0411 13.7565 36.6565 13.1853C37.698 12.817 38.7057 12.6828 39.6328 12.7905C40.6579 12.9097 41.5768 13.3117 42.3365 14.006C42.9373 14.5551 43.4192 15.2805 43.7512 16.1852C44.7608 18.9364 42.9264 22.247 40.5539 25.2856C40.8787 25.1609 41.2072 25.0385 41.5395 24.9177C41.5487 24.9143 41.5565 24.9112 41.5655 24.9072C42.4866 24.4997 43.5879 24.1478 44.665 24.0514C45.4813 23.9783 46.2873 24.0547 47.0166 24.3563C47.8499 24.701 48.5325 25.2962 48.9632 26.2253C49.1748 26.6819 49.3186 27.2268 49.3785 27.8722C49.6065 30.3249 49.4051 32.0314 48.5332 33.4971C47.6705 34.9474 46.258 35.9809 44.049 37.1105C41.1505 38.5928 39.1345 40.5565 36.898 42.7349C36.2597 43.3566 35.6045 43.9948 34.9297 44.6249C34.2751 45.2362 33.2395 45.2109 32.6168 44.5683C31.994 43.9257 32.0198 42.9091 32.6744 42.2978C33.3588 41.6587 33.9832 41.0506 34.5914 40.4581C37.0239 38.0888 39.2166 35.9531 42.5369 34.2551C44.191 33.4092 45.2031 32.7119 45.7013 31.8744C46.1904 31.0522 46.2864 29.9135 46.1237 28.1615C46.1007 27.9145 46.0502 27.7156 45.9775 27.5587C45.9162 27.4265 45.8369 27.3491 45.7479 27.3123C45.5549 27.2325 45.2777 27.218 44.9598 27.2464C44.3029 27.3053 43.5483 27.5591 42.8843 27.8557L42.8834 27.8537C42.8461 27.8703 42.8079 27.8857 42.7689 27.8997C41.2353 28.4548 39.7946 29.0417 38.4048 29.7518C37.0349 30.4517 35.7222 31.267 34.4288 32.2849C34.0707 32.5666 33.448 33.32 32.9199 33.9589C32.6071 34.3373 32.3214 34.683 32.1303 34.8912L25.2669 42.3699C24.973 42.6902 24.7508 43.0158 24.6197 43.3466C24.4991 43.6505 24.4464 43.9833 24.4758 44.3497L26.062 64.1247C26.1327 65.0105 25.4586 65.7849 24.5563 65.8543C23.654 65.9238 22.8651 65.262 22.7943 64.3763L21.2081 44.6013C21.1393 43.7428 21.2715 42.9414 21.5698 42.1893C21.8575 41.4641 22.2884 40.8115 22.8322 40.2189L29.6955 32.7402C29.9017 32.5155 30.1313 32.2378 30.3826 31.9337C30.9532 31.2433 31.6162 30.4413 32.197 29.9328C32.2151 29.9169 32.2295 29.9021 32.2446 29.8834C32.7976 29.2027 33.5483 28.38 34.3853 27.4627C37.3516 24.2117 41.5398 19.6216 40.6758 17.2671C40.5302 16.8703 40.3368 16.5685 40.1067 16.3583C39.8767 16.1481 39.5846 16.0247 39.2483 15.9856C38.8139 15.9351 38.3094 16.0095 37.7585 16.2042C36.6251 16.605 35.358 17.4782 34.1046 18.7997L28.8107 24.3813C28.807 24.3853 28.8038 24.3887 28.8002 24.3929C28.7731 24.4238 28.7447 24.4536 28.7154 24.4823C28.7115 24.486 28.7083 24.4893 28.7046 24.4932L19.0525 34.67L19.0371 34.6861L17.9815 35.7991C17.7702 36.0218 17.6142 36.2475 17.5118 36.4797C17.4091 36.7126 17.348 36.9792 17.3271 37.2832L15.8111 59.3085C15.81 59.3253 15.8098 59.3396 15.8107 59.3564C16.1793 66.4018 17.0404 67.4614 19.765 70.8111C19.9209 71.0027 20.0825 71.2013 20.2497 71.408C24.0021 76.044 27.9415 82.2799 31.8732 88.504C37.3737 97.2115 42.8594 105.895 47.6092 109.797C52.3278 113.674 59.4265 118.151 68.0359 122.957C68.1373 123.014 68.2458 123.026 68.3575 122.993C81.8455 118.982 96.6154 114.291 110.412 109.609C110.583 109.551 110.691 109.399 110.688 109.223C110.685 109.046 110.572 108.897 110.4 108.845C99.5568 105.531 89.5683 102.275 81.6182 99.3419C73.3914 96.3069 67.2492 93.5747 64.435 91.414C62.682 90.0681 61.3969 87.6579 59.7746 84.6154C56.3675 78.2255 51.3347 68.7868 37.9387 62.7175C32.8976 60.4337 32.7119 55.8377 32.5241 51.1889C32.4921 50.3953 32.4599 49.5995 32.3856 48.6992C32.3149 47.8135 32.989 47.0391 33.8913 46.9696C34.7936 46.9002 35.5825 47.5619 35.6533 48.4477C35.7176 49.2276 35.7548 50.1464 35.7918 51.063C35.9396 54.7215 36.0857 58.3385 39.3099 59.7992C40.0549 60.1367 40.7743 60.4841 41.4716 60.8395C41.5204 60.8644 41.5663 60.8778 41.621 60.883C44.6855 61.1747 45.7811 57.4283 46.354 54.314C46.4531 53.7754 46.5736 52.989 46.6822 52.2803C46.8259 51.3421 46.9472 50.5505 47.1232 49.9264C49.0096 43.2403 50.1045 41.4049 53.3507 35.9633C54.0795 34.7415 51.8471 38.4839 54.0912 34.7099L54.095 34.712C54.1248 34.6619 54.1577 34.6129 54.1937 34.5652C55.177 33.2651 56.2924 32.486 57.4216 32.15C58.1528 31.9324 58.8756 31.8986 59.5662 32.0291C60.248 32.1579 60.8912 32.4439 61.4732 32.868C62.5101 33.6237 63.3433 34.829 63.8138 36.3525L63.9486 36.7877C65.1599 40.6937 66.5847 45.2879 64.1343 48.5181C60.9477 52.7184 61.136 53.2115 63.054 58.2299L63.6889 59.8908L64.0214 60.7749C68.6897 73.1863 70.7321 78.6178 64.9752 86.7204C64.8774 86.8581 64.8747 87.031 64.9685 87.1714C65.468 87.9192 65.9524 88.5061 66.4468 88.8857C68.9753 90.827 74.8277 93.4049 82.7715 96.3355C91.9877 99.7354 103.891 103.553 116.659 107.383C116.747 107.409 116.829 107.407 116.916 107.378C117.137 107.301 117.359 107.224 117.58 107.147C138.836 99.7507 156.55 92.727 161.554 88.8857C162.048 88.506 162.532 87.9192 163.032 87.1714C163.126 87.031 163.123 86.8581 163.025 86.7204C157.268 78.6178 159.311 73.1863 163.979 60.7749L164.312 59.8908L164.946 58.2299C166.864 53.2115 167.053 52.7184 163.866 48.5181C161.416 45.2879 162.841 40.6937 164.052 36.7877L164.187 36.3525C164.657 34.829 165.49 33.6237 166.527 32.868C167.109 32.4439 167.752 32.1579 168.434 32.0291C169.125 31.8986 169.848 31.9324 170.579 32.15C171.708 32.486 172.823 33.2651 173.807 34.5652C173.843 34.6129 173.876 34.6619 173.905 34.712L173.909 34.7099C176.153 38.4839 173.921 34.7415 174.65 35.9633C177.896 41.4049 178.991 43.2403 180.877 49.9264C181.053 50.5506 181.175 51.3421 181.318 52.2803C181.427 52.989 181.547 53.7754 181.646 54.314C182.219 57.4283 183.315 61.1747 186.379 60.883C186.434 60.8778 186.48 60.8644 186.529 60.8396C187.226 60.4842 187.946 60.1367 188.691 59.7992C191.915 58.3385 192.061 54.7215 192.209 51.063C192.246 50.1464 192.283 49.2276 192.347 48.4477C192.418 47.5619 193.207 46.9002 194.109 46.9696C195.011 47.0391 195.686 47.8135 195.615 48.6992C195.541 49.5995 195.508 50.3953 195.476 51.1889C195.289 55.8377 195.103 60.4337 190.062 62.7175C176.666 68.7868 171.633 78.2255 168.226 84.6154C166.604 87.6579 165.318 90.0681 163.565 91.414C158.634 95.2 142.723 101.671 123.234 108.576C123.064 108.636 122.958 108.789 122.963 108.966C122.968 109.142 123.082 109.29 123.255 109.34C131.707 111.823 140.472 114.303 149.018 116.662C154.071 118.057 159.014 119.4 163.747 120.668C163.858 120.698 163.964 120.684 164.063 120.627C170.831 116.703 176.444 113.04 180.391 109.797C185.141 105.895 190.627 97.2115 196.127 88.504C200.059 82.2799 203.998 76.044 207.751 71.408C207.918 71.2013 208.08 71.0027 208.235 70.8111C210.96 67.4614 211.821 66.4018 212.19 59.3564C212.191 59.3396 212.19 59.3253 212.189 59.3085L210.673 37.2832C210.652 36.9792 210.591 36.7126 210.489 36.4797C210.386 36.2475 210.23 36.0218 210.019 35.7991L208.963 34.6861L208.948 34.67L199.296 24.4931C199.292 24.4893 199.289 24.4861 199.285 24.4824C199.256 24.4536 199.227 24.4238 199.2 24.3929C199.197 24.3887 199.193 24.3853 199.19 24.3813L193.896 18.7997C192.642 17.4782 191.375 16.605 190.242 16.2042C189.691 16.0095 189.186 15.9351 188.752 15.9856C188.416 16.0247 188.124 16.1481 187.894 16.3583C187.664 16.5685 187.47 16.8703 187.325 17.2671C186.461 19.6216 190.649 24.2117 193.615 27.4627C194.452 28.38 195.203 29.2027 195.756 29.8834C195.771 29.9021 195.785 29.9169 195.803 29.9328C196.384 30.4413 197.047 31.2433 197.618 31.9337C197.869 32.2378 198.099 32.5155 198.305 32.7402L205.168 40.2189C205.712 40.8115 206.143 41.4641 206.431 42.1893C206.729 42.9414 206.861 43.7428 206.792 44.6013L205.206 64.3763C205.135 65.262 204.346 65.9238 203.444 65.8543C202.542 65.7849 201.868 65.0105 201.938 64.1247L203.525 44.3497C203.554 43.9833 203.501 43.6505 203.381 43.3466C203.25 43.0158 203.027 42.6902 202.733 42.3699L195.87 34.8912C195.679 34.683 195.393 34.3373 195.081 33.9589C194.552 33.32 193.93 32.5666 193.572 32.2849C192.278 31.267 190.966 30.4517 189.596 29.7518C188.206 29.0417 186.765 28.4548 185.232 27.8997C185.192 27.8857 185.154 27.8703 185.117 27.8537L185.116 27.8557C184.452 27.5591 183.698 27.3053 183.041 27.2464C182.723 27.218 182.446 27.2325 182.253 27.3123C182.164 27.3491 182.084 27.4265 182.023 27.5587C181.95 27.7156 181.9 27.9145 181.877 28.1615C181.714 29.9135 181.81 31.0523 182.299 31.8744C182.797 32.7119 183.809 33.4092 185.464 34.2551C188.784 35.9531 190.977 38.0888 193.409 40.4581C194.017 41.0506 194.642 41.6587 195.326 42.2978C195.981 42.9091 196.006 43.9257 195.384 44.5683C194.761 45.2109 193.725 45.2362 193.071 44.6249C192.396 43.9948 191.741 43.3566 191.102 42.7349C188.866 40.5565 186.85 38.5928 183.951 37.1106C181.742 35.9809 180.33 34.9474 179.467 33.4971C178.595 32.0314 178.394 30.3249 178.622 27.8722C178.682 27.2268 178.826 26.6819 179.037 26.2253C179.468 25.2962 180.151 24.701 180.984 24.3563C181.713 24.0547 182.519 23.9783 183.335 24.0514C184.413 24.1478 185.514 24.4997 186.435 24.9072C186.444 24.9112 186.452 24.9143 186.461 24.9177C186.793 25.0385 187.122 25.161 187.447 25.2856C185.074 22.2471 183.24 18.9364 184.249 16.1852C184.581 15.2805 185.063 14.5551 185.664 14.006C186.424 13.3117 187.343 12.9097 188.368 12.7905C189.295 12.6828 190.303 12.817 191.344 13.1853C192.959 13.7565 194.681 14.9117 196.292 16.6109L197.007 17.3643C197.132 17.4961 197.322 17.5307 197.487 17.4515C197.652 17.3723 197.741 17.2034 197.712 17.0256C196.729 11.0766 195.923 3.59568 198.907 1.23124C199.661 0.633412 200.457 0.261157 201.269 0.0964027C202.28 -0.108685 203.276 0.0171456 204.217 0.438671C205.075 0.822883 205.868 1.45078 206.56 2.2917C207.617 3.57769 208.466 5.40838 208.95 7.64683C208.951 7.6525 208.952 7.65729 208.953 7.66293C208.973 7.73752 208.987 7.81436 208.996 7.89314L211.71 32.7484C211.72 32.8387 211.754 32.9134 211.817 32.9798L212.309 33.4985C212.409 33.6033 212.545 33.6468 212.688 33.6193C212.831 33.5918 212.941 33.5011 212.993 33.3673C213.423 32.256 213.821 31.1156 214.163 29.9851C214.854 27.6984 215.311 25.4771 215.322 23.6688C215.324 23.2857 215.323 22.9088 215.322 22.5392C215.309 18.1843 215.299 14.6743 219.957 12.8311C220.565 12.5906 221.152 12.484 221.719 12.4951C223.526 12.5305 224.809 13.671 225.699 15.4333C226.404 16.8293 226.864 18.66 227.148 20.5731C227.742 24.5669 227.577 29.1185 227.287 30.5094C226.481 34.3798 223.051 41.3708 219.923 47.7476C218.093 51.4768 216.369 54.9914 215.383 57.4387C215.359 57.497 215.351 57.5513 215.355 57.6138L215.464 59.1978L215.462 59.1979C215.466 59.2579 215.467 59.3187 215.464 59.3802C215.046 67.5894 214.036 68.8309 210.798 72.8112C210.642 73.0028 210.481 73.2014 210.314 73.408C206.649 77.9361 202.774 84.0688 198.908 90.1896C193.261 99.1281 187.63 108.042 182.493 112.263C179.102 115.048 174.54 118.123 169.106 121.394C168.963 121.48 168.891 121.632 168.915 121.795C168.939 121.957 169.052 122.083 169.214 122.126C174.521 123.533 179.485 124.826 183.945 125.97C184.819 126.193 185.344 127.068 185.118 127.926C184.891 128.784 183.999 129.3 183.125 129.077C177.557 127.649 171.257 126.003 164.543 124.211C164.433 124.181 164.328 124.195 164.229 124.251C155.904 129.008 146.021 134.102 135.421 139.273C129.977 141.928 124.34 144.605 118.625 147.269C118.478 147.337 118.39 147.474 118.391 147.634C118.391 147.793 118.48 147.93 118.627 147.997C131.573 153.938 144.628 159.718 156.481 164.929ZM165.336 83.1195C168.326 77.5118 172.497 69.6979 181.979 63.4744C182.089 63.4019 182.153 63.2929 182.16 63.1625C182.168 63.0322 182.117 62.9169 182.016 62.8326C179.885 61.0626 178.965 57.7863 178.43 54.88C178.259 53.949 178.163 53.3223 178.076 52.7583C177.943 51.8909 177.831 51.1591 177.725 50.7818C175.95 44.4917 174.911 42.75 171.831 37.586C170.639 35.588 172.76 39.1616 171.121 36.4066C171.112 36.3903 171.103 36.377 171.091 36.3621C170.583 35.7214 170.086 35.3547 169.631 35.2193C169.432 35.1603 169.236 35.1511 169.049 35.1864C168.853 35.2234 168.659 35.3123 168.475 35.4467C167.988 35.8019 167.575 36.4354 167.313 37.2834L167.179 37.7186C166.188 40.9122 165.023 44.6685 166.493 46.6061C170.74 52.2039 170.496 52.8431 168.009 59.3494C167.93 59.5566 167.847 59.7739 167.387 60.9977L167.055 61.8819C163.193 72.1486 161.306 77.1679 164.612 83.1253C164.687 83.2592 164.82 83.3364 164.976 83.3353C165.131 83.3341 165.264 83.2546 165.336 83.1195ZM72.9982 125.675C79.4397 129.141 86.5508 132.745 94.0278 136.392C100.428 139.514 107.09 142.664 113.825 145.783C113.94 145.837 114.061 145.837 114.175 145.783C120.911 142.664 127.572 139.514 133.973 136.392C143.061 131.959 151.608 127.59 159.07 123.455C159.217 123.373 159.296 123.22 159.275 123.055C159.254 122.89 159.14 122.76 158.977 122.716C155.434 121.76 151.805 120.77 148.133 119.757C137.934 116.941 127.271 113.906 117.003 110.839C116.916 110.813 116.834 110.815 116.748 110.844C102.725 115.689 87.329 120.643 73.075 124.937C72.914 124.986 72.8045 125.117 72.7874 125.281C72.7703 125.446 72.8506 125.596 72.9982 125.675ZM214.083 39.128L214.77 49.1193C214.783 49.3044 214.917 49.4527 215.102 49.4875C215.288 49.5224 215.468 49.433 215.55 49.2656C216.01 48.3185 216.489 47.3424 216.975 46.3514C220.022 40.142 223.362 33.3346 224.083 29.8679C224.329 28.686 224.449 24.677 223.906 21.026C223.667 19.4159 223.301 17.9175 222.764 16.8547C222.412 16.1584 222.037 15.7102 221.655 15.7027C221.529 15.7003 221.37 15.7351 221.175 15.8123C218.573 16.8417 218.581 19.3845 218.59 22.5392C218.591 22.913 218.592 23.2942 218.59 23.6813C218.576 25.8314 218.07 28.3535 217.303 30.8908C216.456 33.6923 215.287 36.543 214.122 38.9268C214.09 38.9922 214.078 39.0555 214.083 39.128ZM202.087 22.7212L207.165 28.0746C207.287 28.2037 207.472 28.2398 207.635 28.1665C207.799 28.0933 207.892 27.9327 207.873 27.7574L205.75 8.3172C205.748 8.30255 205.746 8.29015 205.743 8.27574C205.37 6.56689 204.757 5.21267 204.01 4.30433C203.638 3.85246 203.248 3.53136 202.859 3.35699C202.553 3.21997 202.236 3.17758 201.923 3.24118C201.623 3.30196 201.299 3.46333 200.957 3.73448C198.929 5.34132 200.517 14.1938 201.485 19.5959C201.687 20.7231 201.864 21.7109 201.982 22.5047C201.994 22.5893 202.028 22.6586 202.087 22.7212ZM63.3881 83.1253C66.6945 77.1679 64.8076 72.1486 60.9459 61.8819L60.6135 60.9977C60.1537 59.7739 60.0706 59.5566 59.9914 59.3494C57.5047 52.8431 57.2605 52.2039 61.5073 46.6061C62.9772 44.6685 61.8123 40.9122 60.8219 37.7186L60.6871 37.2834C60.4252 36.4354 60.0129 35.8019 59.5255 35.4467C59.341 35.3122 59.1471 35.2234 58.9511 35.1864C58.7641 35.1511 58.5681 35.1603 58.3699 35.2193C57.9147 35.3547 57.4174 35.7214 56.9097 36.3621C56.8979 36.377 56.8887 36.3903 56.879 36.4066C55.2409 39.1614 57.3616 35.588 56.1698 37.586C53.0892 42.75 52.0502 44.4917 50.2756 50.7818C50.1692 51.1591 50.057 51.8909 49.9241 52.7583C49.8378 53.3223 49.7417 53.949 49.5704 54.88C49.0358 57.7863 48.1151 61.0626 45.9848 62.8326C45.8833 62.9169 45.8328 63.0322 45.8403 63.1625C45.8478 63.2929 45.9113 63.4018 46.0218 63.4744C55.5027 69.698 59.6744 77.5117 62.6645 83.1194C62.7366 83.2546 62.8692 83.3341 63.0246 83.3353C63.1799 83.3364 63.3139 83.2592 63.3881 83.1253ZM13.2301 49.1193L13.9178 39.128C13.9228 39.0555 13.9104 38.9922 13.8784 38.9268C12.7133 36.543 11.5447 33.6923 10.6979 30.8908C9.93095 28.3535 9.42416 25.8314 9.41083 23.6813C9.40845 23.2942 9.40956 22.913 9.41063 22.5392C9.41989 19.3845 9.42731 16.8417 6.82575 15.8123C6.6306 15.7351 6.47171 15.7003 6.34541 15.7027C5.96361 15.7102 5.58795 16.1584 5.23625 16.8547C4.69957 17.9175 4.33384 19.4159 4.09449 21.026C3.55174 24.677 3.67098 28.686 3.91705 29.8679C4.63875 33.3346 7.97871 40.142 11.0252 46.3514C11.5114 47.3424 11.9903 48.3185 12.4509 49.2656C12.5323 49.433 12.7124 49.5224 12.898 49.4875C13.0836 49.4527 13.2174 49.3044 13.2301 49.1193ZM20.8355 28.0746L25.9131 22.7212C25.9724 22.6586 26.0062 22.5893 26.0187 22.5047C26.136 21.7109 26.3132 20.7231 26.5153 19.5959C27.4839 14.1938 29.0712 5.34132 27.0436 3.73447C26.7014 3.46333 26.3773 3.30196 26.0776 3.24118C25.764 3.17758 25.4474 3.21997 25.1413 3.35699C24.752 3.53136 24.3625 3.85245 23.9909 4.30433C23.2439 5.21267 22.6302 6.56689 22.2572 8.27574C22.254 8.29015 22.252 8.30255 22.2504 8.3172L20.1277 27.7574C20.1086 27.9328 20.2017 28.0933 20.3651 28.1665C20.5285 28.2398 20.7131 28.2037 20.8355 28.0746Z" fill="white"/>
</svg>
