<svg width="86" height="144" viewBox="0 0 86 144" fill="none" xmlns="http://www.w3.org/2000/svg">
<rect x="4" y="9" width="77" height="133" rx="6" fill="#4A303E"/>
<path d="M7.36719 42.1229V43.5542C14.5854 40.0954 22.4056 38.0657 30.3959 37.5771C22.4963 37.5761 14.673 39.1204 7.36719 42.1229Z" fill="white"/>
<path d="M7.36719 45.2371V46.5426C13.3781 43.1119 19.9228 40.7139 26.7283 39.4487C19.9956 40.2805 13.4507 42.2373 7.36719 45.2371Z" fill="white"/>
<path d="M34.0947 36.1615C25.0801 35.0601 15.933 36.0064 7.33545 38.9299V40.5028C15.8261 37.103 24.9638 35.6206 34.0947 36.1615Z" fill="white"/>
<path d="M38.0144 35.1706C27.934 32.6726 17.3801 32.8081 7.36719 35.5639V37.2626C17.2461 34.0102 27.7846 33.2908 38.0144 35.1706Z" fill="white"/>
<path d="M7.36719 73.8328V75.9091C7.95361 72.8872 8.7585 69.9119 9.77552 67.0063C8.83515 69.231 8.03089 71.5107 7.36719 73.8328Z" fill="white"/>
<path d="M42.0281 34.7615C30.9845 30.5398 18.9441 29.6484 7.39844 32.1977V34.038C18.7759 30.9861 30.7882 31.2371 42.0281 34.7615Z" fill="white"/>
<path d="M7.36719 48.3043V49.484C12.3121 46.1405 17.7145 43.5287 23.407 41.7295C17.7724 43.1408 12.3704 45.3551 7.36719 48.3043Z" fill="white"/>
<path d="M7.36719 128.161C7.37086 129.505 7.84504 130.806 8.70752 131.837C9.57 132.868 10.7664 133.566 12.0894 133.808L7.36719 122.31V128.161Z" fill="white"/>
<path d="M7.36719 67.9971V68.9566C8.12141 66.9224 8.97774 64.9275 9.93293 62.9795C8.99386 64.6079 8.13753 66.2825 7.36719 67.9971Z" fill="white"/>
<path d="M7.36719 51.3401V52.4726C11.3579 49.2712 15.7305 46.5767 20.3848 44.4507C15.7805 46.2078 11.4088 48.5215 7.36719 51.3401Z" fill="white"/>
<path d="M23.895 44.6079C17.8935 46.9704 12.3125 50.2846 7.36719 54.4229V64.5525C11.4011 56.8099 17.0347 50.0117 23.895 44.6079Z" fill="white"/>
<path d="M7.36719 112.133V118.315L13.7894 133.902H18.795L11.507 121.02C9.89203 118.173 8.50768 115.201 7.36719 112.133Z" fill="white"/>
<path d="M64.3169 27.6204C68.9421 35.3308 71.8268 43.9573 72.7697 52.8972C72.4107 44.6817 70.3722 36.6265 66.7799 29.228C63.1875 21.8295 58.1174 15.2443 51.8817 9.87793H48.3086C54.7523 14.6915 60.1907 20.719 64.3169 27.6204Z" fill="white"/>
<path d="M60.964 27.6204C65.6182 34.1745 68.9442 41.5751 70.7547 49.4053C69.417 41.483 66.5118 33.9067 62.209 27.1197C57.9062 20.3326 52.2922 14.4711 45.6955 9.87793H41.5557C49.225 14.331 55.8445 20.3823 60.964 27.6204Z" fill="white"/>
<path d="M67.6852 27.6204C72.2267 36.6 74.5119 46.5495 74.3436 56.6093C75.0097 48.0695 73.8496 39.4859 70.9402 31.4287C68.0309 23.3715 63.4389 16.0252 57.4695 9.87793H54.1797C59.7247 14.9214 64.3017 20.9341 67.6852 27.6204Z" fill="white"/>
<path d="M57.5802 27.6204C62.223 33.1283 65.857 39.4114 68.3154 46.1808C66.0117 38.4394 62.1781 31.238 57.0411 25.0026C51.9042 18.7672 45.5683 13.6243 38.408 9.87793H32.9932C42.538 13.6566 50.9888 19.7549 57.5802 27.6204Z" fill="white"/>
<path d="M75.4614 60.4787C77.2605 51.6263 77.0459 42.4831 74.8336 33.7247C72.6213 24.9664 68.4677 16.8167 62.6799 9.87793H59.5317C65.773 16.605 70.4376 24.6359 73.1874 33.388C75.9372 42.1401 76.7032 51.394 75.4299 60.4787H75.4614Z" fill="white"/>
<path d="M50.4181 27.6201C55.0211 31.3902 59.0509 35.8092 62.3811 40.7382C57.6639 32.7863 51.1834 26.022 43.4387 20.9663C35.6939 15.9105 26.8914 12.6981 17.7089 11.5764L10.3107 10.6641C9.1547 11.3092 8.25473 12.3306 7.76074 13.5582H11.0506C25.4101 13.529 39.3309 18.5015 50.4181 27.6201Z" fill="white"/>
<path d="M39.1631 27.6204C48.948 31.6711 57.524 38.1715 64.065 46.4954C58.8706 36.977 51.2063 29.0326 41.8775 23.497C32.5486 17.9614 21.8998 15.039 11.0502 15.0371H7.39833C7.3822 15.2308 7.3822 15.4254 7.39833 15.6191V23.4837C18.1664 22.051 29.1222 23.4778 39.1631 27.6204Z" fill="white"/>
<path d="M30.7894 27.6204C37.6012 29.0755 44.1161 31.6763 50.0561 35.312C37.6229 26.6486 22.3897 22.9609 7.36719 24.9779V27.1014C15.136 25.777 23.087 25.9532 30.7894 27.6204Z" fill="white"/>
<path d="M54.1011 27.6204C58.7112 32.2295 62.5628 37.5381 65.5132 43.3496C62.0789 35.4525 56.9946 28.3803 50.6013 22.6074C44.2079 16.8346 36.6532 12.4944 28.4437 9.87793H16.9058L17.8974 9.98803C31.5975 11.6596 44.3429 17.8671 54.1011 27.6204Z" fill="white"/>
<path d="M46.1365 34.793C35.2219 29.0083 22.7962 26.7028 10.531 28.1867C9.50781 28.3125 8.46892 28.4698 7.38281 28.6429V30.6247L7.77633 30.5461C20.6895 27.8465 34.1279 29.3343 46.1365 34.793Z" fill="white"/>
<path d="M38.4077 99.2036C50.5181 106.326 64.7344 109.007 78.6096 106.785V104.74C64.967 107.459 50.8055 105.509 38.4077 99.2036Z" fill="white"/>
<path d="M78.6095 80.7851V79.7627C75.1563 82.8621 71.3652 85.5636 67.3076 87.816C71.3239 85.8979 75.1144 83.5398 78.6095 80.7851Z" fill="white"/>
<path d="M78.6095 83.9307V82.814C74.259 86.0876 69.4958 88.7742 64.4429 90.8044C69.4452 89.1412 74.2079 86.8303 78.6095 83.9307Z" fill="white"/>
<path d="M64.7266 87.4698C69.7995 84.8708 74.4746 81.5604 78.6099 77.6391V66.959C75.7746 73.5628 71.806 79.6206 66.883 84.8588C66.2209 85.7744 65.5006 86.6465 64.7266 87.4698Z" fill="white"/>
<path d="M78.6096 89.9864V88.6494C72.1867 92.0988 65.2071 94.3934 57.9893 95.4287C65.1306 94.8469 72.1122 93.0043 78.6096 89.9864Z" fill="white"/>
<path d="M78.6092 93.1323V91.6538C70.968 95.104 62.7048 96.9663 54.3213 97.1276C62.6057 97.4724 70.8726 96.1125 78.6092 93.1323Z" fill="white"/>
<path d="M78.6096 86.9036V85.6768C73.282 89.066 67.4705 91.6276 61.3735 93.2739C67.409 92.0363 73.2208 89.8883 78.6096 86.9036Z" fill="white"/>
<path d="M78.6096 62.7752V61.4067C77.9626 63.8156 77.1742 66.1843 76.2485 68.5006C77.13 66.6288 77.9171 64.7256 78.6096 62.7752Z" fill="white"/>
<path d="M79.6796 4.91587e-10H6.2963C4.62642 4.9159e-10 3.02493 0.662871 1.84414 1.84279C0.663356 3.0227 0 4.62301 0 6.29167V137.489C0 139.157 0.663356 140.758 1.84414 141.938C3.02493 143.117 4.62642 143.78 6.2963 143.78H79.6796C81.3495 143.78 82.951 143.117 84.1318 141.938C85.3126 140.758 85.9759 139.157 85.9759 137.489V6.32312C85.9801 5.49425 85.8203 4.67272 85.5057 3.90575C85.1912 3.13877 84.728 2.44147 84.143 1.85389C83.5579 1.26632 82.8624 0.800068 82.0964 0.481917C81.3305 0.163765 80.5091 -1.03607e-05 79.6796 4.91587e-10ZM79.7898 21.1085V128.161C79.788 129.121 79.5842 130.069 79.1917 130.945C78.6522 132.167 77.7711 133.208 76.6541 133.942C75.5372 134.676 74.232 135.072 72.8954 135.082H19.55H13.0806C11.7439 135.072 10.4387 134.676 9.32179 133.942C8.20488 133.208 7.32375 132.167 6.78426 130.945C6.39711 130.068 6.19869 129.12 6.20185 128.161V15.6191C6.20185 15.4146 6.20185 15.2258 6.20185 15.0371C6.24825 14.5028 6.35384 13.9752 6.51667 13.4642C6.89588 12.2473 7.604 11.1587 8.56296 10.3183C9.20444 9.77473 9.93363 9.34392 10.7194 9.04427C11.4809 8.79482 12.2795 8.67777 13.0806 8.69823H72.8954C73.2692 8.69981 73.6426 8.72608 74.013 8.77688C75.6353 9.04514 77.1096 9.88017 78.1733 11.1332C79.237 12.3862 79.821 13.9759 79.8213 15.6191L79.7898 21.1085Z" fill="white"/>
<path d="M74.6899 10.1768L76.8779 14.4551C77.5075 15.682 78.0742 16.9088 78.6094 18.1514V15.619C78.6115 14.4154 78.2339 13.2416 77.5303 12.2646C76.8267 11.2876 75.8328 10.557 74.6899 10.1768Z" fill="white"/>
<path d="M68.866 11.5764L67.7012 9.84619H64.6475C70.6967 17.42 74.8799 26.3085 76.8594 35.7947C78.839 45.281 78.5596 55.0994 76.0438 64.4579C77.2053 60.9824 78.0431 57.4072 78.5465 53.7778V36.9161C77.3055 27.8398 73.9934 19.1701 68.866 11.5764Z" fill="white"/>
<path d="M72.8957 9.87793H69.543L70.1411 10.743C73.9748 16.4119 76.8368 22.6792 78.6096 29.2877V22.3354C77.7157 19.8743 76.6641 17.4733 75.4615 15.1472L72.8957 9.87793Z" fill="white"/>
<path d="M42.4531 99.4242C53.8476 104.366 66.4891 105.678 78.6568 103.184V101.233C66.6714 104.223 54.0657 103.572 42.4531 99.3613V99.4242Z" fill="white"/>
<path d="M12.1838 78.8032C11.8781 88.0557 13.7067 97.2545 17.528 105.688C21.3493 114.121 27.0608 121.563 34.2208 127.438L42.0912 133.902H48.1199L40.9421 129.341C32.3735 123.915 25.2698 116.468 20.2554 107.656C15.2409 98.8441 12.4692 88.9362 12.1838 78.8032Z" fill="white"/>
<path d="M13.9312 82.4526C14.7417 91.6708 17.6632 100.579 22.4698 108.489C27.2764 116.398 33.8391 123.097 41.6506 128.067L50.8589 133.903H58.5719L48.5293 129.184C39.3716 124.824 31.4266 118.282 25.3935 110.133C19.3604 101.984 15.4242 92.4787 13.9312 82.4526Z" fill="white"/>
<path d="M50.481 98.3698C59.8839 99.9235 69.5211 99.2391 78.6097 96.3722V94.7993C69.6379 98.1559 60.0098 99.3888 50.481 98.4013V98.3698Z" fill="white"/>
<path d="M10.9084 74.981C9.46599 84.1202 10.1468 93.4684 12.8981 102.303C15.6494 111.137 20.3975 119.22 26.7751 125.928L34.3306 133.902H39.588L33.1816 128.617C25.3589 122.182 19.237 113.926 15.3535 104.574C11.47 95.2218 9.94363 85.0601 10.9084 74.981Z" fill="white"/>
<path d="M10.106 71.0332C7.54877 79.9202 7.0705 89.2758 8.70811 98.3769C10.3457 107.478 14.0554 116.081 19.5504 123.521L27.2476 133.903H32.1745L25.6735 126.982C18.6926 119.643 13.6222 110.703 10.9078 100.947C8.19339 91.192 7.91805 80.9198 10.106 71.0332Z" fill="white"/>
<path d="M16.103 85.8496C18.0313 94.8962 22.0152 103.379 27.7469 110.642C33.4785 117.904 40.8044 123.753 49.1586 127.736L62.0975 133.902H72.8956C73.3246 133.904 73.7524 133.856 74.1706 133.761L56.1317 127.972C46.52 124.76 37.8441 119.239 30.8651 111.895C23.886 104.551 18.8171 95.6075 16.103 85.8496Z" fill="white"/>
<path d="M46.5142 99.1567C56.9723 102.208 68.0607 102.382 78.6095 99.6601V97.9771C72.6792 99.8012 66.508 100.724 60.303 100.714C55.6631 100.709 51.0382 100.186 46.5142 99.1567Z" fill="white"/>
<path d="M18.6689 88.9639C21.6884 97.7076 26.6801 105.64 33.2582 112.148C39.8362 118.656 47.8241 123.564 56.6041 126.494L76.1384 132.785V132.88C76.801 132.426 77.3616 131.839 77.7844 131.157C78.2072 130.474 78.4829 129.711 78.594 128.916L63.5615 125.864C53.6286 123.853 44.3413 119.437 36.5143 113.003C28.6872 106.57 22.5596 98.3153 18.6689 88.9639Z" fill="white"/>
<path d="M7.36719 99.3296V107.194C8.67472 111.73 10.5134 116.097 12.845 120.202L20.5579 133.824H25.4061L18.4014 124.386C12.8914 116.965 9.1204 108.402 7.36719 99.3296Z" fill="white"/>
<path d="M21.5967 91.7954C25.6704 100.097 31.5988 107.352 38.9241 113C46.2495 118.648 54.7758 122.538 63.8448 124.371L78.6096 127.375V123.537L70.6291 122.908C60.5334 122.123 50.7844 118.877 42.236 113.452C33.6877 108.028 26.6009 100.592 21.5967 91.7954Z" fill="white"/>
<path d="M25.7993 91.4808C24.0236 90.1985 22.3974 88.7212 20.9512 87.0767C25.4976 96.6683 32.4966 104.891 41.2413 110.915C49.986 116.938 60.1667 120.549 70.7549 121.382L78.6252 122.011V108.327C75.4651 108.828 72.2704 109.081 69.0706 109.082C52.9007 109.084 37.371 102.767 25.7993 91.4808Z" fill="white"/>
<path d="M42.7711 75.976C47.9596 75.976 52.1489 71.7366 52.1281 66.507C52.1074 61.2775 47.8844 57.0381 42.6959 57.0381C37.5074 57.0381 33.3181 61.2775 33.3389 66.507C33.3596 71.7366 37.5826 75.976 42.7711 75.976Z" fill="white"/>
<path d="M42.9872 44C38.4408 44 34.0018 45.3588 30.2317 47.9047C26.4616 50.4505 23.5296 54.069 21.8066 58.3026C20.0836 62.5362 19.6469 67.1947 20.5517 71.6891C21.4565 76.1834 23.6622 80.3117 26.8899 83.552C30.1176 86.7922 34.2223 88.9988 38.6849 89.8928C43.1475 90.7868 47.7677 90.328 51.9611 88.5744C56.1545 86.8208 59.7328 83.8511 62.2435 80.041C64.7542 76.2309 66.0846 71.7514 66.0664 67.169C66.0338 61.0268 63.5859 55.1385 59.2595 50.7952C54.9331 46.452 49.0813 44.0083 42.9872 44ZM42.9935 45.5729C48.4572 45.5747 53.7257 47.6621 57.7391 51.4149C61.7525 55.1678 64.2129 60.3078 64.6253 65.8006L63.3557 64.4164C60.8346 61.5458 57.7479 59.2358 54.2938 57.6346C50.8398 56.0334 47.0946 55.1764 43.2987 55.1186C39.5028 55.0609 35.74 55.8036 32.2519 57.2992C28.7637 58.7947 25.6272 61.01 23.0437 63.803L21.4898 65.4703C21.9414 60.0354 24.402 54.9778 28.3844 51.2987C32.3668 47.6197 37.5806 45.5874 42.9936 45.6044L42.9935 45.5729ZM63.7545 66.587L62.5272 67.9869C60.1352 70.7292 57.1999 72.936 53.9089 74.4662C50.6179 75.9965 47.0435 76.8165 43.4143 76.8739H43.0241C39.4588 76.8712 35.9288 76.1331 32.6515 74.7048C29.3742 73.2765 26.419 71.1883 23.9678 68.5689L22.1185 66.587L23.9521 64.6052C26.4266 61.9388 29.4278 59.8244 32.7641 58.397C36.1003 56.9695 39.6981 56.2606 43.3275 56.3153C46.9569 56.3701 50.538 57.1874 53.8421 58.715C57.1462 60.2427 60.1004 62.447 62.5161 65.1871L63.7545 66.587ZM43.1665 89.1426C37.4813 89.143 32.0162 86.884 27.9568 82.8558C23.8975 78.8276 21.5712 73.355 21.4827 67.6251L23.0502 69.3711C25.6121 72.1089 28.7006 74.2915 32.1257 75.7847C35.5508 77.2779 39.2401 78.05 42.9664 78.0536H43.3721C47.1679 77.9928 50.9065 77.1363 54.3499 75.5386C57.7933 73.9409 60.8661 71.637 63.373 68.7734L64.6313 67.3106C64.6508 70.1707 64.111 73.0043 63.0427 75.6497C61.9744 78.295 60.3985 80.7002 58.4052 82.7277C56.4118 84.7552 54.0399 86.3653 51.4252 87.466C48.8105 88.5667 46.0041 89.1364 43.1665 89.1426Z" fill="white"/>
</svg>
