<svg width="32" height="32" viewBox="0 0 32 32" fill="none" xmlns="http://www.w3.org/2000/svg">
<path d="M5.33333 20L26.6667 20M5.33333 12L26.6667 12M28 16C28 22.6274 22.6274 28 16 28C9.37258 28 4 22.6274 4 16C4 9.37258 9.37258 4 16 4C22.6274 4 28 9.37258 28 16ZM20.8 16.0001C20.8 20.5776 18.9692 24.7275 16 27.7576C13.0307 24.7275 11.2 20.5776 11.2 16.0001C11.2 11.4225 13.0307 7.2726 16 4.24251C18.9692 7.2726 20.8 11.4225 20.8 16.0001Z" stroke="white" stroke-width="1.5" stroke-linecap="round" stroke-linejoin="round"/>
</svg>
