<svg width="25" height="24" viewBox="0 0 25 24" fill="none" xmlns="http://www.w3.org/2000/svg">
<path d="M16.8735 0.662109C13.7669 0.662109 11.2485 3.18086 11.2485 6.28711C11.2485 9.39336 13.7669 11.9121 16.8735 11.9121C19.9802 11.9121 22.4985 9.39336 22.4985 6.28711C22.4985 3.18086 19.9802 0.662109 16.8735 0.662109ZM7.49854 1.91211C4.73716 1.91211 2.49854 4.15086 2.49854 6.91211C2.49854 9.67336 4.73716 11.9121 7.49854 11.9121C8.53529 11.9121 9.48166 11.6271 10.3145 11.0446C8.17854 7.86965 8.48129 4.82961 9.64541 2.38086C8.98054 2.06586 8.25029 1.91211 7.49854 1.91211ZM3.82666 13.5921C1.53404 14.5384 -0.00146484 16.8571 -0.00146484 19.4121V21.9121C-0.00146484 22.6021 0.55816 23.1621 1.24854 23.1621L6.43954 23.1646C6.14704 22.2146 6.23304 20.6746 6.25229 19.4284C6.29291 16.7821 7.38729 14.8946 7.81591 14.3971C7.02816 14.3908 6.08279 14.1996 5.38916 13.9046C5.22166 13.8334 5.12441 13.7771 4.80329 13.6309C4.48841 13.4871 4.14641 13.4596 3.82666 13.5921ZM12.5767 13.5921C10.284 14.5384 8.74854 16.8571 8.74854 19.4121V21.9121C8.74854 22.6021 9.30816 23.1621 9.99854 23.1621H23.7485C24.4389 23.1621 24.9985 22.6021 24.9985 21.9121V19.4121C24.9985 16.9171 23.4545 14.6546 21.1704 13.6696C20.8489 13.5309 20.4743 13.5271 20.1548 13.6696C19.0488 14.1659 17.9713 14.4121 16.8735 14.4121C15.7795 14.4121 14.6983 14.1521 13.5533 13.6309C13.2384 13.4871 12.8964 13.4596 12.5767 13.5921Z" fill="white"/>
</svg>
