<svg xmlns="http://www.w3.org/2000/svg" version="1.1" viewBox="0.00 0.00 100.00 100.00" width="100.00" height="100.00">
<g stroke-width="2.00" fill="none" stroke-linecap="butt">
<path stroke="#435bff" d="&#10;  M 67.16 24.84&#10;  Q 64.70 24.85 64.07 23.73"/>
<path stroke="#435bff" d="&#10;  M 17.18 25.81&#10;  L 15.81 26.64&#10;  A 1.17 1.11 -9.9 0 0 15.29 27.34&#10;  Q 15.01 28.48 14.08 28.31"/>
<path stroke="#8041ff" d="&#10;  M 85.92 48.07&#10;  Q 84.97 48.48 83.66 48.17&#10;  Q 83.16 48.04 82.98 48.54&#10;  L 82.83 48.98"/>
<path stroke="#6c89ff" d="&#10;  M 67.46 31.30&#10;  Q 66.58 34.10 67.70 34.42"/>
<path stroke="#8041ff" d="&#10;  M 67.17 54.22&#10;  Q 66.82 53.67 66.26 53.59&#10;  C 65.62 53.50 64.87 54.18 64.07 54.29"/>
<path stroke="#8041ff" d="&#10;  M 17.18 63.19&#10;  Q 15.22 62.22 14.07 63.44"/>
<path stroke="#b22cff" d="&#10;  M 85.92 70.18&#10;  Q 85.52 70.02 84.28 70.29&#10;  A 0.79 0.76 49.9 0 1 83.81 70.24&#10;  Q 83.34 70.04 82.82 70.29"/>
<path stroke="#c070ff" d="&#10;  M 42.14 75.07&#10;  Q 40.56 74.79 39.10 75.20"/>
<path stroke="#b22cff" d="&#10;  M 36.14 87.08&#10;  Q 35.32 87.63 33.00 87.61"/>
<path stroke="#8ebfff" d="&#10;  M 79.66 49.75&#10;  L 78.91 50.38&#10;  Q 78.54 50.70 78.05 50.69&#10;  Q 76.88 50.67 76.56 52.23"/>
<path stroke="#c0b5ff" d="&#10;  M 79.67 63.89&#10;  Q 77.53 63.99 76.57 64.76"/>
<path stroke="#9abcfe" d="&#10;  M 60.92 30.09&#10;  Q 59.91 30.98 57.81 31.01"/>
<path stroke="#acb8ff" d="&#10;  M 23.43 41.93&#10;  Q 21.81 43.28 20.34 42.37"/>
<path stroke="#ccb1fe" d="&#10;  M 60.93 65.21&#10;  Q 60.11 65.28 59.85 64.59&#10;  Q 59.68 64.13 59.19 64.09&#10;  Q 58.61 64.04 58.23 64.56&#10;  Q 58.08 64.76 58.24 64.93&#10;  Q 58.34 65.02 58.36 65.16&#10;  Q 58.40 65.37 58.19 65.36&#10;  Q 57.73 65.33 57.81 65.56"/>
</g>
<path fill="#2667fe" d="&#10;  M 67.16 24.84&#10;  Q 64.70 24.85 64.07 23.73&#10;  L 64.05 14.29&#10;  Q 64.04 12.53 62.28 12.53&#10;  L 18.71 12.54&#10;  A 1.51 1.51 0.0 0 0 17.20 14.05&#10;  L 17.18 25.81&#10;  L 15.81 26.64&#10;  A 1.17 1.11 -9.9 0 0 15.29 27.34&#10;  Q 15.01 28.48 14.08 28.31&#10;  L 14.10 13.98&#10;  A 4.59 4.58 -89.9 0 1 18.68 9.40&#10;  L 62.50 9.40&#10;  A 4.68 4.68 0.0 0 1 67.18 14.08&#10;  L 67.16 24.84&#10;  Z"/>
<path fill="#79c2ff" d="&#10;  M 60.92 30.09&#10;  Q 59.91 30.98 57.81 31.01&#10;  L 57.74 19.22&#10;  Q 57.74 18.72 57.24 18.72&#10;  L 24.00 18.72&#10;  Q 23.50 18.72 23.50 19.22&#10;  L 23.43 41.93&#10;  Q 21.81 43.28 20.34 42.37&#10;  L 20.33 18.78&#10;  A 3.18 3.17 90.0 0 1 23.50 15.60&#10;  L 57.77 15.61&#10;  A 3.13 3.13 0.0 0 1 60.90 18.73&#10;  L 60.92 30.09&#10;  Z"/>
<rect fill="#2667fe" x="26.57" y="21.87" width="6.24" height="6.24" rx="2.41"/>
<path fill="#5f4fff" d="&#10;  M 64.07 23.73&#10;  Q 64.70 24.85 67.16 24.84&#10;  L 81.41 25.05&#10;  A 4.57 4.57 0.0 0 1 85.91 29.61&#10;  L 85.92 48.07&#10;  Q 84.97 48.48 83.66 48.17&#10;  Q 83.16 48.04 82.98 48.54&#10;  L 82.83 48.98&#10;  L 82.82 29.95&#10;  Q 82.82 28.13 80.99 28.13&#10;  L 67.77 28.14&#10;  Q 67.25 28.14 67.19 28.65&#10;  Q 67.00 30.17 67.46 31.30&#10;  Q 66.58 34.10 67.70 34.42&#10;  Q 67.28 34.25 67.27 34.75&#10;  Q 67.16 44.47 67.17 54.22&#10;  Q 66.82 53.67 66.26 53.59&#10;  C 65.62 53.50 64.87 54.18 64.07 54.29&#10;  L 64.07 23.73&#10;  Z"/>
<path fill="#5f4fff" d="&#10;  M 17.18 25.81&#10;  L 17.18 63.19&#10;  Q 15.22 62.22 14.07 63.44&#10;  L 14.08 28.31&#10;  Q 15.01 28.48 15.29 27.34&#10;  A 1.17 1.11 -9.9 0 1 15.81 26.64&#10;  L 17.18 25.81&#10;  Z"/>
<path fill="#5f4fff" d="&#10;  M 50.50 44.14&#10;  L 43.21 53.87&#10;  A 3.23 3.23 0.0 0 1 38.04 53.86&#10;  L 30.76 44.13&#10;  A 3.23 3.23 0.0 0 1 30.76 40.26&#10;  L 38.04 30.53&#10;  A 3.23 3.23 0.0 0 1 43.21 30.53&#10;  L 50.50 40.26&#10;  A 3.23 3.23 0.0 0 1 50.50 44.14&#10;  Z&#10;  M 34.75 40.13&#10;  A 0.30 0.30 0.0 0 0 34.99 40.61&#10;  L 46.27 40.59&#10;  A 0.30 0.30 0.0 0 0 46.51 40.11&#10;  L 40.86 32.60&#10;  A 0.30 0.30 0.0 0 0 40.38 32.60&#10;  L 34.75 40.13&#10;  Z&#10;  M 46.52 44.26&#10;  A 0.35 0.35 0.0 0 0 46.24 43.70&#10;  L 35.03 43.71&#10;  A 0.35 0.35 0.0 0 0 34.75 44.27&#10;  L 40.35 51.68&#10;  A 0.35 0.35 0.0 0 0 40.91 51.68&#10;  L 46.52 44.26&#10;  Z"/>
<path fill="#bab5fd" d="&#10;  M 60.92 30.09&#10;  L 60.93 65.21&#10;  Q 60.11 65.28 59.85 64.59&#10;  Q 59.68 64.13 59.19 64.09&#10;  Q 58.61 64.04 58.23 64.56&#10;  Q 58.08 64.76 58.24 64.93&#10;  Q 58.34 65.02 58.36 65.16&#10;  Q 58.40 65.37 58.19 65.36&#10;  Q 57.73 65.33 57.81 65.56&#10;  L 57.81 31.01&#10;  Q 59.91 30.98 60.92 30.09&#10;  Z"/>
<path fill="#79c2ff" d="&#10;  M 67.46 31.30&#10;  L 76.60 31.30&#10;  A 3.05 3.05 0.0 0 1 79.65 34.35&#10;  L 79.66 49.75&#10;  L 78.91 50.38&#10;  Q 78.54 50.70 78.05 50.69&#10;  Q 76.88 50.67 76.56 52.23&#10;  L 76.48 35.02&#10;  Q 76.48 34.51 75.96 34.50&#10;  L 67.70 34.42&#10;  Q 66.58 34.10 67.46 31.30&#10;  Z"/>
<path fill="#deadff" d="&#10;  M 23.43 41.93&#10;  L 23.52 64.99&#10;  Q 23.53 65.49 24.03 65.49&#10;  L 57.81 65.56&#10;  Q 57.73 65.33 58.19 65.36&#10;  Q 58.40 65.37 58.36 65.16&#10;  Q 58.34 65.02 58.24 64.93&#10;  Q 58.08 64.76 58.23 64.56&#10;  Q 58.61 64.04 59.19 64.09&#10;  Q 59.68 64.13 59.85 64.59&#10;  Q 60.11 65.28 60.93 65.21&#10;  C 60.93 67.28 59.64 68.72 57.61 68.72&#10;  Q 39.73 68.73 23.45 68.71&#10;  A 3.12 3.12 0.0 0 1 20.34 65.59&#10;  L 20.34 42.37&#10;  Q 21.81 43.28 23.43 41.93&#10;  Z"/>
<path fill="#a133ff" d="&#10;  M 85.92 48.07&#10;  L 85.92 70.18&#10;  Q 85.52 70.02 84.28 70.29&#10;  A 0.79 0.76 49.9 0 1 83.81 70.24&#10;  Q 83.34 70.04 82.82 70.29&#10;  L 82.83 48.98&#10;  L 82.98 48.54&#10;  Q 83.16 48.04 83.66 48.17&#10;  Q 84.97 48.48 85.92 48.07&#10;  Z"/>
<path fill="#a2bcfe" d="&#10;  M 79.66 49.75&#10;  L 79.67 63.89&#10;  Q 77.53 63.99 76.57 64.76&#10;  L 76.56 52.23&#10;  Q 76.88 50.67 78.05 50.69&#10;  Q 78.54 50.70 78.91 50.38&#10;  L 79.66 49.75&#10;  Z"/>
<path fill="#a133ff" d="&#10;  M 67.17 54.22&#10;  L 67.16 70.35&#10;  A 4.68 4.68 0.0 0 1 62.49 75.03&#10;  L 42.14 75.07&#10;  Q 40.56 74.79 39.10 75.20&#10;  Q 37.88 74.84 36.53 75.00&#10;  Q 36.01 75.07 36.01 75.59&#10;  L 36.14 87.08&#10;  Q 35.32 87.63 33.00 87.61&#10;  L 32.77 75.53&#10;  Q 32.76 75.00 32.22 75.00&#10;  Q 25.78 74.98 19.20 75.02&#10;  C 12.61 75.05 14.04 67.52 14.07 63.44&#10;  Q 15.22 62.22 17.18 63.19&#10;  L 17.24 70.44&#10;  A 1.44 1.43 -0.2 0 0 18.68 71.86&#10;  L 62.52 71.86&#10;  A 1.54 1.53 -0.2 0 0 64.05 70.33&#10;  L 64.07 54.29&#10;  C 64.87 54.18 65.62 53.50 66.26 53.59&#10;  Q 66.82 53.67 67.17 54.22&#10;  Z"/>
<rect fill="#a133ff" x="48.45" y="56.27" width="6.22" height="6.22" rx="2.37"/>
<path fill="#deadff" d="&#10;  M 79.67 63.89&#10;  L 79.67 80.70&#10;  Q 79.67 84.40 75.97 84.40&#10;  L 42.20 84.40&#10;  A 3.10 3.09 -90.0 0 1 39.11 81.30&#10;  L 39.10 75.20&#10;  Q 40.56 74.79 42.14 75.07&#10;  L 42.26 80.78&#10;  Q 42.27 81.28 42.77 81.28&#10;  L 75.99 81.28&#10;  Q 76.50 81.28 76.51 80.76&#10;  L 76.57 64.76&#10;  Q 77.53 63.99 79.67 63.89&#10;  Z"/>
<path fill="#c225fe" d="&#10;  M 85.92 70.18&#10;  L 85.90 86.08&#10;  A 4.53 4.52 -0.0 0 1 81.38 90.59&#10;  Q 59.38 90.62 36.75 90.59&#10;  Q 34.69 90.58 33.00 87.61&#10;  Q 35.32 87.63 36.14 87.08&#10;  Q 37.15 87.48 38.00 87.48&#10;  Q 59.38 87.55 80.95 87.54&#10;  Q 82.80 87.54 82.81 85.69&#10;  L 82.82 70.29&#10;  Q 83.34 70.04 83.81 70.24&#10;  A 0.79 0.76 49.9 0 0 84.28 70.29&#10;  Q 85.52 70.02 85.92 70.18&#10;  Z"/>
</svg>