<svg xmlns="http://www.w3.org/2000/svg" version="1.1" viewBox="0.00 0.00 100.00 100.00" width="100.00" height="100.00">
<path fill="#ffffff" d="&#10;  M 70.00 83.27&#10;  A 6.73 6.73 0.0 0 1 63.27 90.00&#10;  L 16.73 90.00&#10;  A 6.73 6.73 0.0 0 1 10.00 83.27&#10;  L 10.00 16.73&#10;  A 6.73 6.73 0.0 0 1 16.73 10.00&#10;  L 63.27 10.00&#10;  A 6.73 6.73 0.0 0 1 70.00 16.73&#10;  L 70.00 83.27&#10;  Z&#10;  M 41.99 61.41&#10;  C 53.22 68.01 64.64 56.00 57.76 44.91&#10;  Q 51.95 35.55 42.23 27.55&#10;  C 41.16 26.67 39.47 26.33 38.33 27.21&#10;  Q 28.08 35.18 21.84 45.62&#10;  C 15.29 56.57 27.45 67.60 38.01 61.38&#10;  Q 38.68 60.99 38.38 61.71&#10;  Q 36.14 67.09 30.96 70.16&#10;  Q 29.95 70.76 30.07 71.91&#10;  A 1.56 1.56 0.0 0 0 31.62 73.32&#10;  Q 40.06 73.35 48.18 73.34&#10;  C 49.37 73.33 50.17 72.37 49.91 71.19&#10;  A 1.27 1.27 0.0 0 0 49.28 70.34&#10;  Q 44.26 67.55 41.61 61.76&#10;  Q 41.25 60.97 41.99 61.41&#10;  Z"/>
<path fill="#ffffff" d="&#10;  M 88.13 14.25&#10;  C 91.56 14.89 93.78 18.44 93.23 21.91&#10;  Q 88.01 54.76 82.91 87.35&#10;  C 82.17 92.07 77.97 93.97 73.41 92.87&#10;  Q 72.82 92.72 73.21 92.26&#10;  Q 76.63 88.13 76.63 83.63&#10;  Q 76.67 49.73 76.68 16.95&#10;  C 76.68 15.68 76.48 14.16 76.03 12.99&#10;  Q 75.74 12.24 76.53 12.36&#10;  Q 82.61 13.22 88.13 14.25&#10;  Z"/>
</svg>