<svg width="94" height="192" viewBox="0 0 94 192" fill="none" xmlns="http://www.w3.org/2000/svg">
    <path d="M83.4582 181.222C79.031 174.371 70.2788 159.986 70.2788 159.986C70.2788 159.986 65.7499 166.117 70.2788 159.506C74.8078 152.894 84.1091 155.539 89.8382 149.288C95.5674 143.038 94.3956 137.028 87.755 118.156C81.1144 99.2849 69.3957 101.448 69.6561 91.8325C69.9164 82.2163 76.8176 71.6387 79.4217 66.47C82.0257 61.3014 88.5362 51.5651 91.4007 37.7421C94.2653 23.9189 95.3069 2.64339 87.8851 0.23944C80.4633 -2.16469 69.1352 14.1827 65.4895 20.3129C61.8436 26.4432 55.4634 38.4633 53.9009 63.2246C52.3384 87.9859 47 85.8223 47 85.8223C47 85.8223 41.6616 87.9859 40.0991 63.2246C38.5366 38.4633 32.1564 26.4432 28.5105 20.3129C24.8648 14.1827 13.5367 -2.1647 6.11492 0.239438C-1.3069 2.6434 -0.265307 23.9189 2.59932 37.7421C5.46375 51.5651 11.9743 61.3014 14.5783 66.47C17.1824 71.6387 24.0836 82.2163 24.3439 91.8325C24.6043 101.448 12.8856 99.2849 6.245 118.156C-0.39558 137.028 -1.56745 143.038 4.16181 149.288C9.89087 155.539 19.1922 152.894 23.7212 159.506C28.2501 166.117 23.7212 159.986 23.7212 159.986C23.7212 159.986 14.969 174.371 10.5419 181.222C10.5419 181.222 27.5157 191.074 47 191.074C66.4843 191.074 83.4582 181.222 83.4582 181.222ZM33.6059 136.778C33.5479 136.804 33.4869 136.818 33.4259 136.818C33.2992 136.818 33.1756 136.761 33.1009 136.657C33.0276 136.553 30.3386 134.682 21.2246 136.485L21.0598 135.78C27.7645 134.428 28.7094 130.744 31.6299 133.775C26.0071 124.521 16.2553 125.662 15.8051 125.726L15.6953 125.011C15.8204 124.994 28.3691 123.501 33.789 136.325C33.8623 136.496 33.7829 136.691 33.6059 136.778ZM50.9062 149.95C47.7162 150.55 47 148.267 47 148.267C47 148.267 46.2838 150.55 43.0938 149.95C43.0938 149.95 42.4857 149.868 42.5223 149.393C42.5592 148.918 42.8533 148.646 43.2944 148.612C43.7356 148.579 44.7282 149.38 45.6841 148.267C46.6401 147.153 46.6767 145.965 45.868 145.863C45.0591 145.762 44.1033 145.524 43.1106 144.879C42.118 144.234 42.8165 143.623 42.8165 143.623C42.8165 143.623 43.2944 142.877 44.0297 143.42C44.765 143.963 45.963 144.302 47 144.302C48.037 144.302 49.235 143.963 49.9703 143.42C50.7056 142.877 51.1835 143.623 51.1835 143.623C51.1835 143.623 51.882 144.234 50.8894 144.879C49.8967 145.524 48.9409 145.762 48.132 145.863C47.3233 145.965 47.3599 147.153 48.3159 148.267C49.2718 149.38 50.2644 148.579 50.7056 148.612C51.1467 148.646 51.4408 148.918 51.4777 149.393C51.5143 149.868 50.9062 149.95 50.9062 149.95ZM78.1949 125.726C77.7524 125.662 67.9959 124.518 62.3685 133.775C65.2891 130.747 67.3974 134.434 74.1173 135.78L73.9525 136.485C64.8309 134.662 60.9739 136.553 60.9007 136.657C60.8244 136.761 60.7023 136.818 60.5741 136.818C60.5131 136.818 60.4521 136.804 60.3941 136.778C60.2171 136.691 60.1377 136.496 60.211 136.325C65.6309 123.498 78.1827 124.999 78.3047 125.011L78.1949 125.726Z" fill="white"/>
</svg>
