<svg width="78" height="80" viewBox="0 0 78 80" fill="none" xmlns="http://www.w3.org/2000/svg">
<path fill-rule="evenodd" clip-rule="evenodd" d="M13.9789 52.2543L40.3661 62.087C39.2419 63.857 38.3085 66.0917 38.3085 69.3537L13.5976 60.1461C12.9965 59.9242 12.5183 59.4762 12.2526 58.8969C11.9859 58.3167 11.9651 57.6655 12.187 57.0634L13.9789 52.2543ZM49.5403 39.0587C52.5366 43.7302 55.1411 47.9954 56.6653 52.8992C56.8393 53.4691 57.4529 53.8004 58.0165 53.6118C58.5864 53.4389 58.9073 52.8304 58.7333 52.2606C58.3478 51.0198 57.8967 49.8227 57.3935 48.6507L61.293 38.1898C65.5207 49.5581 62.1953 62.8454 59.7303 69.959C57.7998 75.1535 55.8568 77.7914 50.5988 77.8007L40.615 77.833C34.8851 77.833 33.4025 76.2338 32.7837 73.4668L31.8284 69.2505L39.0607 71.9405C40.1202 72.3354 40.5213 71.4519 40.5369 70.8372C40.6671 65.7417 41.9371 63.3997 43.7395 61.1212L43.7503 61.1075C45.5378 58.8427 47.3825 56.5055 45.7585 52.1397L42.0944 42.2612C40.987 39.2806 42.2028 37.0459 43.8426 36.3281C46.2325 35.2821 47.9776 36.3572 49.5403 39.0587ZM18.2764 31.7503L18.9921 32.6171L16.7397 38.6628L14.8071 36.3354V36.3291C14.2602 35.6571 14.1779 34.707 14.5967 33.7756C15.0311 32.789 15.9688 32.0337 17.0158 31.767C17.3761 31.6746 17.7032 31.7027 18.0354 31.7313C18.1153 31.7382 18.1954 31.7451 18.2764 31.7503ZM20.3434 19.7267L22.7354 22.5636L19.8662 30.2751L15.1291 24.5514V24.5451C14.4613 23.7377 14.3415 22.5532 14.8134 21.4561C15.3135 20.306 16.3876 19.4173 17.619 19.1402C18.6014 18.912 19.6485 19.037 20.3434 19.7267ZM24.0012 11.7922C24.918 11.7266 25.7473 12.1787 26.4474 12.6163L23.5949 20.2695L22.2655 18.6578L22.2603 18.6516L22.2541 18.6474L21.1101 17.2576C20.4475 16.4544 20.3288 15.2698 20.7945 14.179C21.2987 13.0195 22.3791 12.1444 23.6001 11.8568C23.7345 11.8277 23.8647 11.8026 24.0012 11.7922ZM34.2235 2.16792C34.5329 2.1575 34.8475 2.21064 35.1455 2.32003L65.5635 13.654C66.8063 14.1134 67.4356 15.498 66.9751 16.7429L56.1017 45.9117C54.7348 43.2301 53.1273 40.637 51.3854 37.9189C48.9715 33.8329 45.3907 33.1943 42.9164 34.3705C40.3556 35.5852 38.5595 38.9493 40.0681 43.0144L43.7311 52.895C44.9286 56.121 43.7802 57.5755 42.0459 59.772L42.0434 59.7752C41.9392 59.9072 41.835 60.0427 41.7308 60.1783L41.6683 60.2596L14.7394 50.2259L32.0638 3.7369C32.292 3.13473 32.7379 2.65028 33.3192 2.38566C33.6109 2.25335 33.913 2.17834 34.2235 2.16792ZM34.1464 0.0030259C33.5567 0.0249041 32.9702 0.159298 32.4159 0.415585C31.3085 0.925034 30.4625 1.83662 30.0333 2.98575L27.2454 10.4681C26.0942 9.6888 24.619 9.40959 23.1323 9.74402C21.2372 10.1607 19.5828 11.5349 18.8067 13.3195C18.2972 14.502 18.2201 15.7678 18.5358 16.8951C18.0795 16.8825 17.619 16.9232 17.1523 17.0315C15.2478 17.4545 13.5924 18.8224 12.8287 20.6008C12.0255 22.4448 12.2682 24.4868 13.458 25.9234H13.4632C13.4632 25.9276 13.4632 25.9359 13.4684 25.9359L16.5439 29.6573C16.5429 29.6573 16.5419 29.6576 16.5408 29.6581L16.5386 29.6592C16.5349 29.6611 16.5299 29.6636 16.522 29.6636C14.8186 30.0647 13.3205 31.3055 12.6152 32.8974C11.8723 34.5684 12.0682 36.4135 12.6047 37.0646L15.8604 41.01L10.1596 56.308C9.73558 57.454 9.7783 58.6907 10.2846 59.7981C10.7889 60.9056 11.7004 61.7515 12.8444 62.1745L29.4113 68.3483L30.6699 73.9439C31.6304 78.2414 34.5173 80 40.6171 80L50.6009 79.9719C57.057 79.9573 59.5865 76.5651 61.7733 70.6955C64.4862 62.86 68.1805 47.8506 62.4953 35.4258L62.413 35.1977L69.0056 17.5035C69.8849 15.1406 68.6806 12.5059 66.324 11.6245L35.906 0.289526C35.3299 0.0780368 34.7382 -0.0188523 34.1464 0.0030259ZM67.2906 65.6292C66.9864 65.6292 66.6822 65.4989 66.4707 65.251C66.08 64.7947 66.1352 64.1154 66.5842 63.7268C68.1188 62.4027 69.1607 60.4284 69.4388 58.2958C69.716 56.1674 69.2096 53.9858 68.0647 52.3137C67.724 51.8209 67.848 51.1479 68.3418 50.8124C68.8367 50.4707 69.5086 50.5968 69.8503 51.0896C71.3162 53.2263 71.934 55.8819 71.5871 58.5781C71.236 61.2681 69.9608 63.6789 67.9949 65.3666C67.7938 65.5437 67.5385 65.6292 67.2906 65.6292ZM69.1837 68.9423C69.389 69.2652 69.7411 69.4507 70.1006 69.4507C70.3027 69.4507 70.4964 69.3955 70.6756 69.2871C74.0344 67.1878 76.3681 63.4498 76.9099 59.2763C77.4537 55.0965 76.1556 50.8824 73.4375 47.9955C73.0301 47.56 72.3415 47.5402 71.9081 47.9528C71.4737 48.3601 71.4528 49.0498 71.8654 49.4811C74.1428 51.8971 75.2294 55.458 74.7627 59.0002C74.3012 62.532 72.3467 65.6897 69.5255 67.4483C69.0212 67.7619 68.8681 68.438 69.1837 68.9423ZM7.38095 27.1012C6.99026 27.1012 6.61 26.8835 6.41414 26.5095C5.24314 24.1977 4.98164 21.4796 5.68799 18.8521C6.37768 16.2434 7.96228 14.0191 10.1376 12.5971C10.6408 12.2772 11.3096 12.4137 11.6399 12.9127C11.9608 13.4149 11.8191 14.0848 11.3201 14.4161C9.61564 15.5235 8.32379 17.3446 7.77684 19.4178C7.21842 21.4911 7.42991 23.7133 8.34671 25.5281C8.61758 26.0594 8.40609 26.7106 7.87477 26.9814C7.71641 27.0627 7.54868 27.1012 7.38095 27.1012ZM2.44167 29.0958C2.65316 29.3937 2.9855 29.5521 3.32097 29.5521C3.53871 29.5521 3.76061 29.4875 3.95022 29.3468C4.43884 28.9989 4.55239 28.3279 4.20547 27.8372C2.26769 25.1369 1.66448 21.4665 2.58857 18.0233C3.51683 14.5697 5.87134 11.6974 8.89365 10.3337C9.44164 10.0857 9.68543 9.44397 9.43643 8.90118C9.19161 8.35319 8.54672 8.1094 8.00393 8.35944C4.39508 9.98676 1.59051 13.3893 0.494516 17.4628C-0.5921 21.5259 0.136131 25.8724 2.44167 29.0958Z" fill="white"/>
</svg>
