<svg width="25" height="24" viewBox="0 0 25 24" fill="none" xmlns="http://www.w3.org/2000/svg">
<path d="M21.3332 6.66671V4.00004C21.3332 2.52728 20.1393 1.33337 18.6666 1.33337H3.99992C2.52716 1.33337 1.33325 2.52728 1.33325 4.00004V20C1.33325 21.4728 2.52716 22.6667 3.99992 22.6667H18.6666C20.1393 22.6667 21.3332 21.4728 21.3332 20V17.3334M18.6666 12H18.6799M14.6666 17.3334H22.6666C23.403 17.3334 23.9999 16.7364 23.9999 16V8.00004C23.9999 7.26366 23.403 6.66671 22.6666 6.66671H14.6666C13.9302 6.66671 13.3332 7.26366 13.3332 8.00004V16C13.3332 16.7364 13.9302 17.3334 14.6666 17.3334Z" stroke="white" stroke-width="1.5" stroke-linecap="round"/>
</svg>
